<svg width="105" height="95" viewBox="0 0 105 95" fill="none" xmlns="http://www.w3.org/2000/svg">
<path d="M71.875 56.2956C69.9104 56.2956 68.2812 54.6664 68.2812 52.7018V47.9102C68.2812 40.9143 66.5562 37.1289 57.5 37.1289C48.4437 37.1289 46.7188 40.9143 46.7188 47.9102V52.7018C46.7188 54.6664 45.0896 56.2956 43.125 56.2956C41.1604 56.2956 39.5312 54.6664 39.5312 52.7018V47.9102C39.5312 43.4539 39.5312 29.9414 57.5 29.9414C75.4688 29.9414 75.4688 43.4539 75.4688 47.9102V52.7018C75.4688 54.6664 73.8396 56.2956 71.875 56.2956Z" fill="#0CFF7B" fill-opacity="0.8"/>
<path d="M57.5009 73.5587C53.955 73.5587 51.0322 70.6357 51.0322 67.0899C51.0322 63.544 53.955 60.6211 57.5009 60.6211C61.0467 60.6211 63.9695 63.544 63.9695 67.0899C63.9695 70.6357 61.0467 73.5587 57.5009 73.5587ZM57.5009 66.3712C57.1175 66.3712 56.782 66.7065 56.782 67.0899C56.782 67.9045 58.2197 67.9045 58.2197 67.0899C58.2197 66.7065 57.8842 66.3712 57.5009 66.3712Z" fill="#0CFF7B" fill-opacity="0.8"/>
<path d="M69.4824 85.0586H45.5241C34.0241 85.0586 29.9512 80.9857 29.9512 69.4857V64.694C29.9512 53.194 34.0241 49.1211 45.5241 49.1211H69.4824C80.9824 49.1211 85.0553 53.194 85.0553 64.694V69.4857C85.0553 80.9857 80.9824 85.0586 69.4824 85.0586ZM45.5241 56.3086C37.9053 56.3086 37.1387 57.0753 37.1387 64.694V69.4857C37.1387 77.1044 37.9053 77.8711 45.5241 77.8711H69.4824C77.1012 77.8711 77.8678 77.1044 77.8678 69.4857V64.694C77.8678 57.0753 77.1012 56.3086 69.4824 56.3086H45.5241Z" fill="#0CFF7B" fill-opacity="0.8"/>
<path d="M57.4967 109.017C29.0822 109.017 5.98633 85.9211 5.98633 57.5065C5.98633 29.0919 29.0822 5.99609 57.4967 5.99609C85.9113 5.99609 109.007 29.0919 109.007 57.5065C109.007 85.9211 85.9113 109.017 57.4967 109.017ZM57.4967 13.1836C33.0592 13.1836 13.1738 33.069 13.1738 57.5065C13.1738 81.944 33.0592 101.829 57.4967 101.829C81.9342 101.829 101.82 81.944 101.82 57.5065C101.82 33.069 81.9342 13.1836 57.4967 13.1836Z" fill="#0CFF7B" fill-opacity="0.8"/>
</svg>
