<svg width="20" height="20" viewBox="0 0 20 20" fill="none" xmlns="http://www.w3.org/2000/svg">
<path d="M13.492 1.66602H6.50866C3.47533 1.66602 1.66699 3.47435 1.66699 6.50768V13.491C1.66699 16.5243 3.47533 18.3327 6.50866 18.3327H13.492C16.5253 18.3327 18.3337 16.5243 18.3337 13.491V6.50768C18.3337 3.47435 16.5253 1.66602 13.492 1.66602ZM8.30866 12.416L6.43366 14.291C6.30866 14.416 6.15033 14.4743 5.99199 14.4743C5.83366 14.4743 5.66699 14.416 5.55033 14.291L4.92533 13.666C4.67533 13.4243 4.67533 13.0243 4.92533 12.7827C5.16699 12.541 5.55866 12.541 5.80866 12.7827L5.99199 12.966L7.42533 11.5327C7.66699 11.291 8.05866 11.291 8.30866 11.5327C8.55033 11.7743 8.55033 12.1743 8.30866 12.416ZM8.30866 6.58268L6.43366 8.45768C6.30866 8.58268 6.15033 8.64102 5.99199 8.64102C5.83366 8.64102 5.66699 8.58268 5.55033 8.45768L4.92533 7.83268C4.67533 7.59102 4.67533 7.19102 4.92533 6.94935C5.16699 6.70768 5.55866 6.70768 5.80866 6.94935L5.99199 7.13268L7.42533 5.69935C7.66699 5.45768 8.05866 5.45768 8.30866 5.69935C8.55033 5.94102 8.55033 6.34102 8.30866 6.58268ZM14.6337 13.8493H10.2587C9.91699 13.8493 9.63366 13.566 9.63366 13.2243C9.63366 12.8827 9.91699 12.5993 10.2587 12.5993H14.6337C14.9837 12.5993 15.2587 12.8827 15.2587 13.2243C15.2587 13.566 14.9837 13.8493 14.6337 13.8493ZM14.6337 8.01602H10.2587C9.91699 8.01602 9.63366 7.73268 9.63366 7.39102C9.63366 7.04935 9.91699 6.76602 10.2587 6.76602H14.6337C14.9837 6.76602 15.2587 7.04935 15.2587 7.39102C15.2587 7.73268 14.9837 8.01602 14.6337 8.01602Z" fill="white"/>
</svg>
