<svg width="99" height="98" viewBox="0 0 99 98" fill="none" xmlns="http://www.w3.org/2000/svg">
<path d="M49.4974 8.16602C26.9982 8.16602 8.66406 26.5002 8.66406 48.9994C8.66406 71.4985 26.9982 89.8327 49.4974 89.8327C71.9966 89.8327 90.3307 71.4985 90.3307 48.9994C90.3307 26.5002 71.9966 8.16602 49.4974 8.16602ZM63.2174 58.391C64.4016 59.5752 64.4016 61.5352 63.2174 62.7193C62.6049 63.3318 61.8291 63.6177 61.0532 63.6177C60.2774 63.6177 59.5016 63.3318 58.8891 62.7193L49.4974 53.3277L40.1057 62.7193C39.4932 63.3318 38.7174 63.6177 37.9416 63.6177C37.1657 63.6177 36.3899 63.3318 35.7774 62.7193C34.5932 61.5352 34.5932 59.5752 35.7774 58.391L45.1691 48.9994L35.7774 39.6077C34.5932 38.4235 34.5932 36.4635 35.7774 35.2794C36.9616 34.0952 38.9216 34.0952 40.1057 35.2794L49.4974 44.671L58.8891 35.2794C60.0732 34.0952 62.0332 34.0952 63.2174 35.2794C64.4016 36.4635 64.4016 38.4235 63.2174 39.6077L53.8257 48.9994L63.2174 58.391Z" fill="#EE2011"/>
</svg>
