<svg width="20" height="20" viewBox="0 0 20 20" fill="none" xmlns="http://www.w3.org/2000/svg">
<path d="M12.918 10.958H11.1096C9.6263 10.958 8.41797 9.75801 8.41797 8.26634V6.45801C8.41797 6.11634 8.14297 5.83301 7.79297 5.83301H5.1513C3.2263 5.83301 1.66797 7.08301 1.66797 9.31634V14.8497C1.66797 17.083 3.2263 18.333 5.1513 18.333H10.0596C11.9846 18.333 13.543 17.083 13.543 14.8497V11.583C13.543 11.233 13.2596 10.958 12.918 10.958Z" fill="white"/>
<path d="M14.8501 1.66699H13.2085H12.3001H9.9418C8.05846 1.66699 6.53346 2.86699 6.4668 5.00866C6.5168 5.00866 6.55846 5.00033 6.60846 5.00033H8.9668H9.87513H11.5168C13.4418 5.00033 15.0001 6.25033 15.0001 8.48366V10.1253V12.3837V14.0253C15.0001 14.0753 14.9918 14.117 14.9918 14.1587C16.8501 14.1003 18.3335 12.867 18.3335 10.692V9.05032V6.79199V5.15033C18.3335 2.91699 16.7751 1.66699 14.8501 1.66699Z" fill="white"/>
<path d="M9.9832 5.95813C9.72487 5.69979 9.2832 5.87479 9.2832 6.23313V8.41646C9.2832 9.33313 10.0582 10.0831 11.0082 10.0831C11.5999 10.0915 12.4249 10.0915 13.1332 10.0915C13.4915 10.0915 13.6749 9.67479 13.4249 9.42479C12.5165 8.51646 10.8999 6.89146 9.9832 5.95813Z" fill="white"/>
</svg>
