<svg width="98" height="96" viewBox="0 0 98 96" fill="none" xmlns="http://www.w3.org/2000/svg">
<path d="M49 60.2292C47.3258 60.2292 45.9375 58.8408 45.9375 57.1667V36.75C45.9375 35.0758 47.3258 33.6875 49 33.6875C50.6742 33.6875 52.0625 35.0758 52.0625 36.75V57.1667C52.0625 58.8408 50.6742 60.2292 49 60.2292Z" fill="#A0D0FD" fill-opacity="0.5"/>
<path d="M49.0003 73.503C48.7553 73.503 48.4695 73.4622 48.1837 73.4214C47.9387 73.3805 47.6937 73.2989 47.4487 73.1764C47.2037 73.0947 46.9587 72.9722 46.7137 72.8089C46.5095 72.6455 46.3053 72.4822 46.1012 72.3189C45.3662 71.543 44.917 70.4814 44.917 69.4197C44.917 68.358 45.3662 67.2964 46.1012 66.5205C46.3053 66.3572 46.5095 66.1939 46.7137 66.0305C46.9587 65.8672 47.2037 65.7447 47.4487 65.663C47.6937 65.5405 47.9387 65.4589 48.1837 65.418C48.7145 65.2955 49.2862 65.2955 49.7762 65.418C50.062 65.4589 50.307 65.5405 50.552 65.663C50.797 65.7447 51.042 65.8672 51.287 66.0305C51.4912 66.1939 51.6953 66.3572 51.8995 66.5205C52.6345 67.2964 53.0837 68.358 53.0837 69.4197C53.0837 70.4814 52.6345 71.543 51.8995 72.3189C51.6953 72.4822 51.4912 72.6455 51.287 72.8089C51.042 72.9722 50.797 73.0947 50.552 73.1764C50.307 73.2989 50.062 73.3805 49.7762 73.4214C49.5312 73.4622 49.2453 73.503 49.0003 73.503Z" fill="#A0D0FD" fill-opacity="0.5"/>
<path d="M73.7467 90.4831H24.2567C16.2942 90.4831 10.2101 87.5839 7.10673 82.3573C4.04423 77.1306 4.45257 70.3931 8.33173 63.4106L33.0767 18.9023C37.1601 11.5523 42.7951 7.50977 49.0017 7.50977C55.2084 7.50977 60.8434 11.5523 64.9267 18.9023L89.6717 63.4514C93.5509 70.4339 94.0001 77.1306 90.8967 82.3981C87.7934 87.5839 81.7092 90.4831 73.7467 90.4831ZM49.0017 13.6348C45.1634 13.6348 41.4067 16.5748 38.4259 21.8831L13.7217 66.4323C10.9451 71.4139 10.4959 75.9873 12.4151 79.2948C14.3342 82.6023 18.5809 84.3989 24.2976 84.3989H73.7876C79.5042 84.3989 83.7101 82.6023 85.6701 79.2948C87.6301 75.9873 87.1401 71.4548 84.3634 66.4323L59.5776 21.8831C56.5967 16.5748 52.8401 13.6348 49.0017 13.6348Z" fill="#A0D0FD" fill-opacity="0.5"/>
</svg>
