<svg width="20" height="20" viewBox="0 0 20 20" fill="none" xmlns="http://www.w3.org/2000/svg">
<path d="M10.0003 1.66699C7.81699 1.66699 6.04199 3.44199 6.04199 5.62533C6.04199 7.76699 7.71699 9.50033 9.90033 9.57533C9.96699 9.56699 10.0337 9.56699 10.0837 9.57533C10.1003 9.57533 10.1087 9.57533 10.1253 9.57533C10.1337 9.57533 10.1337 9.57533 10.142 9.57533C12.2753 9.50033 13.9503 7.76699 13.9587 5.62533C13.9587 3.44199 12.1837 1.66699 10.0003 1.66699Z" fill="white"/>
<path d="M14.2338 11.7914C11.9088 10.2414 8.11712 10.2414 5.77546 11.7914C4.71712 12.4997 4.13379 13.4581 4.13379 14.4831C4.13379 15.5081 4.71712 16.4581 5.76712 17.1581C6.93379 17.9414 8.46712 18.3331 10.0005 18.3331C11.5338 18.3331 13.0671 17.9414 14.2338 17.1581C15.2838 16.4497 15.8671 15.4997 15.8671 14.4664C15.8588 13.4414 15.2838 12.4914 14.2338 11.7914ZM11.6171 15.2164C11.8588 15.4581 11.8588 15.8581 11.6171 16.0997C11.4921 16.2247 11.3338 16.2831 11.1755 16.2831C11.0171 16.2831 10.8588 16.2247 10.7338 16.0997L10.0005 15.3664L9.26712 16.0997C9.14212 16.2247 8.98379 16.2831 8.82546 16.2831C8.66712 16.2831 8.50879 16.2247 8.38379 16.0997C8.14212 15.8581 8.14212 15.4581 8.38379 15.2164L9.11712 14.4831L8.38379 13.7497C8.14212 13.5081 8.14212 13.1081 8.38379 12.8664C8.62546 12.6247 9.02546 12.6247 9.26712 12.8664L10.0005 13.5997L10.7338 12.8664C10.9755 12.6247 11.3755 12.6247 11.6171 12.8664C11.8588 13.1081 11.8588 13.5081 11.6171 13.7497L10.8838 14.4831L11.6171 15.2164Z" fill="white"/>
</svg>
