<svg width="32" height="32" viewBox="0 0 32 32" fill="none" xmlns="http://www.w3.org/2000/svg">
<path fill-rule="evenodd" clip-rule="evenodd" d="M26.3337 16.0007C26.3337 15.4484 25.8859 15.0007 25.3337 15.0007H6.66699C6.11471 15.0007 5.66699 15.4484 5.66699 16.0007C5.66699 16.5529 6.11471 17.0007 6.66699 17.0007H25.3337C25.8859 17.0007 26.3337 16.5529 26.3337 16.0007Z" fill="#56006B"/>
<path fill-rule="evenodd" clip-rule="evenodd" d="M26.3337 9.33398C26.3337 8.7817 25.8859 8.33398 25.3337 8.33398H6.66699C6.11471 8.33398 5.66699 8.7817 5.66699 9.33398C5.66699 9.88627 6.11471 10.334 6.66699 10.334H25.3337C25.8859 10.334 26.3337 9.88627 26.3337 9.33398Z" fill="#56006B"/>
<path fill-rule="evenodd" clip-rule="evenodd" d="M26.3337 22.6673C26.3337 22.115 25.8859 21.6673 25.3337 21.6673H6.66699C6.11471 21.6673 5.66699 22.115 5.66699 22.6673C5.66699 23.2196 6.11471 23.6673 6.66699 23.6673H25.3337C25.8859 23.6673 26.3337 23.2196 26.3337 22.6673Z" fill="#56006B"/>
</svg>
