<svg width="36" height="36" viewBox="0 0 36 36" fill="none" xmlns="http://www.w3.org/2000/svg">
<circle cx="18" cy="18" r="18" fill="#FEFEFE"/>
<path d="M22.9564 8.34766H14.6085C11.1557 8.34766 8.34766 11.1557 8.34766 14.6085V28.1737C8.34766 28.4505 8.45759 28.7159 8.65328 28.9116C8.84897 29.1073 9.11439 29.2172 9.39113 29.2172H22.9564C26.4092 29.2172 29.2172 26.4092 29.2172 22.9564V14.6085C29.2172 11.1557 26.4092 8.34766 22.9564 8.34766ZM15.651 23.9998H13.565V21.9139L19.3355 16.1518L21.4214 18.2377L15.651 23.9998ZM22.4054 17.2537L20.3195 15.1678L21.9097 13.5786L23.9957 15.6645L22.4054 17.2537Z" fill="#039847"/>
</svg>
