<svg width="25" height="24" viewBox="0 0 25 24" fill="none" xmlns="http://www.w3.org/2000/svg">
<path d="M17.3291 15.6402C17.9991 15.2002 18.8791 15.6802 18.8791 16.4802V17.7702C18.8791 19.0402 17.8891 20.4002 16.6991 20.8002L13.5091 21.8602C12.9491 22.0502 12.0391 22.0502 11.4891 21.8602L8.29914 20.8002C7.09914 20.4002 6.11914 19.0402 6.11914 17.7702V16.4702C6.11914 15.6802 6.99914 15.2002 7.65914 15.6302L9.71914 16.9702C10.5091 17.5002 11.5091 17.7602 12.5091 17.7602C13.5091 17.7602 14.5091 17.5002 15.2991 16.9702L17.3291 15.6402Z" fill="#67706B"/>
<path d="M20.4795 6.45957L14.4895 2.52957C13.4095 1.81957 11.6295 1.81957 10.5495 2.52957L4.52953 6.45957C2.59953 7.70957 2.59953 10.5396 4.52953 11.7996L6.12953 12.8396L10.5495 15.7196C11.6295 16.4296 13.4095 16.4296 14.4895 15.7196L18.8795 12.8396L20.2495 11.9396V14.9996C20.2495 15.4096 20.5895 15.7496 20.9995 15.7496C21.4095 15.7496 21.7495 15.4096 21.7495 14.9996V10.0796C22.1495 8.78957 21.7395 7.28957 20.4795 6.45957Z" fill="#67706B"/>
</svg>
