<svg width="18" height="18" viewBox="0 0 18 18" fill="none" xmlns="http://www.w3.org/2000/svg">
<path d="M8.01907 1.87635C8.46747 1.04362 9.64953 1.0095 10.1452 1.81498L10.2226 1.94073L10.6484 1.67868L10.2226 1.94073C10.7144 2.73999 11.6405 3.16274 12.5666 3.01076L13.1631 2.91286C14.1596 2.74932 14.9763 3.69762 14.6668 4.65882C14.3448 5.65905 14.7259 6.75152 15.6002 7.3344L16.2588 7.77344C17.0616 8.30866 17.0052 9.50622 16.1557 9.96368C15.3057 10.4214 14.8363 11.365 14.984 12.319L15.1215 13.2067C15.2846 14.2598 14.3285 15.1423 13.2918 14.8955L13.017 14.8301C12.0139 14.5913 10.9693 15.0121 10.4116 15.8795L10.2592 16.1166C9.72754 16.9436 8.4977 16.8774 8.05799 15.9979C7.59648 15.0749 6.57011 14.5798 5.56043 14.793L4.83039 14.9472C3.76954 15.1713 2.82872 14.2305 3.05278 13.1696L3.20318 12.4575C3.41867 11.4373 2.91832 10.4001 1.98564 9.9338C1.0983 9.49013 1.0213 8.25339 1.84676 7.70309L2.39173 7.33977C3.27082 6.75371 3.65401 5.65529 3.3302 4.64959C3.01942 3.68438 3.83398 2.72993 4.83604 2.88511L5.71694 3.02154C6.64942 3.16595 7.57171 2.70716 8.01907 1.87635Z" stroke="white"/>
</svg>
