<svg width="229" height="220" viewBox="0 0 229 220" fill="none" xmlns="http://www.w3.org/2000/svg">
<g filter="url(#filter0_f_308_2474)">
<g clip-path="url(#clip0_308_2474)">
<rect x="9.48145" y="97" width="117.806" height="113.629" rx="56.8144" fill="#BB7FCA" fill-opacity="0.2"/>
<path d="M24.9226 74.9389C20.1753 74.4447 11.2453 71.3033 9.58637 78.2744C8.45689 84.4512 18.4104 91.8105 25.152 92.5517C21.7636 93.9283 19.8399 98.9933 21.4989 102.664C25.0109 110.959 36.3233 112.282 43.5414 109.512C37.947 115.565 44.6709 123.701 51.0595 125.43C57.4482 127.16 65.7428 121.601 69.8548 117.524C69.8548 117.524 82.7909 104.447 71.2843 100.635C51.5184 94.0871 47.4064 72.3799 37.4175 59.7261C33.4996 54.7141 21.2871 47.0724 15.2867 54.3435C10.1158 61.2086 20.5106 70.5798 24.9226 74.9389Z" fill="#CFD8DC"/>
<path opacity="0.2" d="M21.8529 54.8578C26.3708 54.8578 32.3359 58.9521 34.6478 61.8817C37.5421 65.5525 39.9599 70.1411 42.5365 75.012C48.4663 86.2538 55.1903 98.9958 70.1735 103.955C71.5325 104.414 72.309 104.961 72.4678 105.632C72.9973 107.82 69.8382 112.497 67.3675 115.003C63.7673 118.585 57.8904 122.221 53.6196 122.221C53.0372 122.221 52.4901 122.15 51.9959 122.027C48.9958 121.215 45.9426 118.409 45.1838 115.762C44.7602 114.297 45.0779 113.079 46.1544 111.897C47.2662 110.697 47.4074 108.879 46.4721 107.52C45.8014 106.532 44.6896 105.967 43.5425 105.967C43.1189 105.967 42.6954 106.037 42.2718 106.196C40.4717 106.885 38.2833 107.273 36.1126 107.273C34.0478 107.273 27.0944 106.832 24.7472 101.272C24.7295 101.237 24.7295 101.219 24.7119 101.184C24.306 100.266 24.3236 98.9782 24.7825 97.8134C25.1707 96.8427 25.8237 96.0662 26.4767 95.8015C27.9768 95.1838 28.8592 93.6484 28.6474 92.0424C28.418 90.4364 27.1473 89.2011 25.5237 89.0246C21.8882 88.6363 16.7526 85.5479 14.3171 82.283C13.3818 81.0123 12.9053 79.8123 13.0288 78.9651C13.2229 78.1357 13.5406 77.3239 16.2055 77.3239C17.8291 77.3239 19.7528 77.6592 21.447 77.9592C22.5412 78.1533 23.5824 78.3298 24.5531 78.4357C24.6766 78.4533 24.8001 78.4533 24.9237 78.4533C26.2826 78.4533 27.5179 77.6768 28.118 76.4238C28.7533 75.0649 28.4709 73.4589 27.4121 72.4L26.5473 71.5529C22.8588 67.9527 15.1995 60.4875 18.0762 56.499C19.0292 55.3872 20.2293 54.8578 21.8529 54.8578ZM21.8529 51.3281C19.3821 51.3281 17.0702 52.1752 15.2878 54.3283C10.1169 61.2111 20.494 70.5646 24.9237 74.9237C22.5765 74.6766 19.2233 73.7942 16.2055 73.7942C13.117 73.7942 10.4169 74.7296 9.56977 78.2592C8.44028 84.4361 18.3938 91.7954 25.1354 92.5366C21.747 93.9131 19.8233 98.9782 21.4823 102.649C23.9177 108.402 30.1299 110.802 36.1126 110.802C38.7422 110.802 41.3188 110.344 43.5248 109.496C37.9304 115.55 44.6543 123.686 51.0429 125.415C51.8724 125.645 52.7195 125.733 53.6019 125.733C59.5141 125.733 66.2557 121.056 69.8382 117.491C69.8382 117.491 82.7743 104.414 71.2677 100.602C51.5018 94.0543 47.3898 72.3471 37.4009 59.6934C34.6478 56.1814 27.765 51.3281 21.8529 51.3281Z" fill="#424242"/>
<path d="M127.494 152.591C146.342 128.89 168.456 106.989 166.461 73.6512L166.32 73.5806L95.1627 41.2845C93.0979 40.3491 90.7154 41.8316 90.6977 44.1082C90.5742 66.7331 78.6617 84.6636 65.2491 101.535C46.7891 124.743 25.276 146.467 26.2643 178.658C26.1937 179.911 26.882 181.146 28.0997 181.711H28.1173C37.5238 185.982 82.9502 206.595 97.5452 213.213C100.298 214.466 101.94 215.207 102.063 215.26L102.081 215.278C100.528 189.847 113.111 170.681 127.494 152.591Z" fill="url(#paint0_linear_308_2474)"/>
<path d="M114.224 59.7985L147.914 75.0818C146.008 82.0351 148.885 89.5003 155.009 93.3653C149.803 110.749 137.802 125.432 126.189 139.639L126.066 139.78C123.825 142.533 121.495 145.374 119.254 148.198C109.953 159.881 100.776 172.747 96.1875 187.765C95.1463 187.553 94.105 187.465 93.0285 187.465C87.4517 187.465 82.2984 190.289 79.2806 194.86L45.5902 179.577C46.7727 175.27 46.155 170.629 43.8078 166.729C43.7019 166.57 43.596 166.393 43.4901 166.235L43.4019 166.093C43.2783 165.917 43.1548 165.74 43.0312 165.564C42.8901 165.37 42.7312 165.176 42.59 164.981C42.4489 164.805 42.29 164.611 42.0782 164.381C41.9371 164.223 41.8135 164.064 41.6723 163.923C41.4076 163.64 41.1252 163.376 40.8429 163.111C40.7017 162.987 40.5605 162.864 40.3487 162.687C40.1017 162.475 39.8546 162.281 39.6075 162.087C39.4487 161.964 39.2898 161.858 39.1134 161.734C38.8663 161.558 38.6016 161.381 38.2662 161.187C38.1251 161.099 37.9839 161.011 37.8427 160.94C37.825 160.922 37.7897 160.922 37.7721 160.905C42.9959 143.574 54.9614 128.926 66.5562 114.737L66.6798 114.596C68.9211 111.843 71.2507 109.002 73.492 106.178C82.7396 94.5477 91.8813 81.7528 96.4875 66.7342C97.7935 67.0695 99.1347 67.2283 100.494 67.2283C106.07 67.1577 111.224 64.334 114.224 59.7985ZM113.13 56.4453C110.818 61.5633 105.77 64.5811 100.511 64.5811C98.8877 64.5811 97.2287 64.2987 95.6228 63.6811V63.6987C95.3404 63.5928 95.058 63.4869 94.7756 63.3634L94.758 63.3987C90.646 78.8055 81.5042 91.9358 71.4801 104.519C69.2035 107.378 66.8916 110.219 64.562 113.043C52.12 128.256 39.7134 143.486 34.719 162.14L34.666 162.228C34.6837 162.228 34.6837 162.228 34.7013 162.246C34.9484 162.352 35.2131 162.458 35.4778 162.564C35.5308 162.581 35.5661 162.617 35.619 162.634C35.9543 162.793 36.272 162.952 36.5897 163.128C36.7309 163.199 36.8544 163.287 36.9956 163.376C37.225 163.517 37.4368 163.658 37.6486 163.799C37.7897 163.887 37.9309 163.993 38.0545 164.099C38.2662 164.258 38.478 164.434 38.6898 164.611C38.831 164.734 38.9722 164.84 39.1134 164.964C39.3604 165.193 39.5899 165.423 39.8193 165.652C39.9605 165.793 40.084 165.934 40.2075 166.093C40.3311 166.252 40.4723 166.393 40.5958 166.552C40.7193 166.711 40.8429 166.887 40.9664 167.046L41.2841 167.523C41.39 167.699 41.5135 167.858 41.6194 168.035C43.896 171.811 44.3372 176.612 42.3783 180.918L80.4277 198.178C82.7573 193.06 87.787 190.042 93.0638 190.042C94.7051 190.042 96.364 190.342 97.9876 190.942L98.0406 190.871V190.854C102.17 175.482 111.312 162.387 121.318 149.804C123.595 146.945 125.907 144.104 128.237 141.28C140.678 126.067 153.085 110.837 158.08 92.1828C158.097 92.1475 158.097 92.1122 158.115 92.077C151.144 88.9179 148.055 80.6939 151.214 73.7229L113.13 56.4453Z" fill="#2E7D32"/>
<path d="M83.7091 156.105C82.262 155.452 80.7972 155.399 79.3324 155.963C77.8676 156.528 76.191 157.834 74.285 159.899C71.726 162.793 69.2729 164.646 66.9257 165.441C64.5785 166.235 62.1254 166.058 59.5841 164.893C56.9898 163.711 55.2074 161.999 54.2367 159.74C53.2661 157.481 53.2131 154.958 54.0955 152.169L50.0012 150.316C49.4011 150.034 49.1188 149.328 49.4011 148.71L50.0012 147.369C50.2835 146.769 50.9895 146.486 51.6071 146.769L55.7192 148.639C57.2898 146.151 59.337 144.58 61.8784 143.963C64.155 143.398 66.6963 143.68 69.5377 144.792C70.0848 145.004 70.3318 145.657 70.0848 146.204L68.9729 148.639C68.7435 149.151 68.1435 149.381 67.614 149.187C65.7433 148.498 64.0491 148.357 62.5137 148.745C60.7136 149.204 59.4076 150.334 58.5958 152.134C57.7487 154.022 57.5722 155.681 58.1017 157.111C58.6311 158.54 59.7606 159.67 61.4901 160.446C63.1137 161.187 64.6315 161.24 66.061 160.623C67.4905 160.005 69.1494 158.664 71.0378 156.616C72.9085 154.569 74.638 153.069 76.191 152.151C77.7441 151.234 79.2971 150.722 80.8325 150.651C82.3679 150.581 83.9739 150.916 85.6504 151.675C88.3153 152.893 90.1154 154.657 91.0155 157.005C91.9155 159.352 91.8626 162.034 90.839 165.07L94.2627 166.623C94.8628 166.905 95.1452 167.611 94.8628 168.229L94.2627 169.535C93.9804 170.135 93.2744 170.417 92.6568 170.135L89.233 168.582C87.627 171.406 85.5446 173.223 82.9503 174.07C80.656 174.812 78.1323 174.671 75.3969 173.629C74.8321 173.417 74.6027 172.765 74.8321 172.217L75.944 169.747C76.1734 169.253 76.7381 168.988 77.2323 169.182C79.0677 169.853 80.7443 169.923 82.209 169.394C83.9209 168.776 85.2445 167.417 86.2152 165.299C87.1505 163.235 87.3976 161.381 86.9388 159.74C86.5152 158.099 85.421 156.881 83.7091 156.105Z" fill="white"/>
<path d="M91.8278 165.526L89.2335 168.597L54.202 152.219L53.0195 151.672L55.7197 148.637L90.8042 165.067L91.8278 165.526Z" fill="white"/>
<path opacity="0.5" d="M111.558 128.522C124.804 128.522 135.542 117.784 135.542 104.539C135.542 91.2926 124.804 80.5547 111.558 80.5547C98.3122 80.5547 87.5742 91.2926 87.5742 104.539C87.5742 117.784 98.3122 128.522 111.558 128.522Z" fill="#2E7D32"/>
<path d="M65.2322 101.555C72.7857 92.0604 79.8626 82.2304 84.6276 71.4297C79.8626 82.2127 72.8033 92.0074 65.2675 101.502C53.4786 116.327 40.4366 130.551 32.7949 147.264C40.4189 130.551 53.4609 116.362 65.2322 101.555Z" fill="#2E7D32"/>
<path d="M138.897 157.622C157.321 134.45 178.817 113.131 177.917 81.0469C177.987 79.7939 177.299 78.5585 176.081 78.0114C176.064 78.0114 176.046 78.0114 176.046 77.9938L166.481 73.6523C168.475 106.972 146.362 128.891 127.514 152.593C113.13 170.664 100.547 189.848 102.065 215.279C104.73 216.479 107.042 217.538 108.859 218.367C110.924 219.303 113.307 217.838 113.324 215.561C113.554 192.513 125.449 174.529 138.897 157.622Z" fill="#2E7D32"/>
<path d="M67.5967 98.5508C66.7849 99.6097 66.0084 100.58 65.1965 101.604C59.9021 108.257 54.1488 115.228 49.1367 121.511L124.9 155.89C125.747 154.795 126.612 153.684 127.495 152.589C132.736 146.007 138.225 139.547 143.378 132.947L67.5967 98.5508Z" fill="#FFECB3"/>
<path d="M143.413 132.934C138.242 139.534 132.754 145.993 127.512 152.594C126.647 153.688 125.783 154.782 124.936 155.894L133.636 164.453C135.348 162.159 137.113 159.882 138.913 157.623C143.237 152.188 147.737 146.84 152.078 141.44L143.413 132.934Z" fill="#FFECB3"/>
<path opacity="0.5" d="M143.413 132.934C138.242 139.534 132.754 145.993 127.512 152.594C126.647 153.688 125.783 154.782 124.936 155.894L133.636 164.453C135.348 162.159 137.113 159.882 138.913 157.623C143.237 152.188 147.737 146.84 152.078 141.44L143.413 132.934Z" fill="#FFB74D"/>
<path opacity="0.2" d="M94.2107 44.7472L164.909 76.8315H164.927C164.945 76.8492 164.98 76.8492 164.997 76.8668L174.369 81.1201V81.1377C175.128 107.786 159.668 126.599 143.326 146.524C140.943 149.418 138.49 152.419 136.107 155.401C123.595 171.126 110.253 189.956 109.776 214.893L103.476 212.034L100.899 210.869L98.9581 209.987L29.7773 178.608V178.573C28.9478 151.607 44.6018 132.459 61.1734 112.181C63.4147 109.428 65.7443 106.586 68.0032 103.763C80.4981 88.0205 93.8578 69.2075 94.2107 44.7472ZM93.8401 41.0234C92.1812 41.0234 90.6987 42.3294 90.6811 44.1295C90.5576 66.7545 78.6451 84.685 65.2325 101.557C46.7725 124.764 25.2594 146.489 26.2477 178.679C26.1771 179.932 26.8654 181.167 28.0831 181.732H28.1007C37.5072 186.003 82.9336 206.616 97.5286 213.234C100.282 214.487 101.923 215.228 102.047 215.281L102.064 215.299C104.729 216.499 107.041 217.558 108.859 218.387C109.282 218.582 109.741 218.67 110.165 218.67C111.806 218.67 113.306 217.382 113.324 215.581C113.571 192.533 125.448 174.549 138.896 157.642C157.321 134.453 178.816 113.134 177.916 81.0495C177.987 79.7964 177.298 78.5611 176.081 78.014C176.063 78.014 176.045 78.014 176.045 77.9963L166.48 73.6549L166.339 73.5843L95.1814 41.2882C94.7225 41.1117 94.2813 41.0234 93.8401 41.0234Z" fill="#424242"/>
</g>
</g>
<path d="M31.0104 34.1302C26.2363 33.6333 17.2561 30.4742 15.5878 37.4845C14.452 43.6961 24.4616 51.0968 31.2411 51.8422C27.8336 53.2265 25.8991 58.3201 27.5674 62.0115C31.0992 70.3529 42.4753 71.6839 49.734 68.8976C44.1081 74.9849 50.8699 83.1665 57.2945 84.9058C63.7191 86.6451 72.0604 81.0546 76.1955 76.9549C76.1955 76.9549 89.2045 63.804 77.6331 59.9706C57.7559 53.3862 53.6207 31.5568 43.5756 18.8319C39.6357 13.7916 27.3544 6.10692 21.3203 13.4189C16.1203 20.3227 26.5735 29.7466 31.0104 34.1302Z" fill="#CFD8DC"/>
<path opacity="0.2" d="M27.9225 13.9362C32.4659 13.9362 38.4645 18.0536 40.7895 20.9997C43.7 24.6912 46.1315 29.3056 48.7226 34.2039C54.6857 45.509 61.4475 58.3227 76.5152 63.3098C77.8817 63.7712 78.6626 64.3214 78.8223 64.9958C79.3548 67.1965 76.178 71.8995 73.6933 74.4197C70.0728 78.0224 64.1629 81.6784 59.868 81.6784C59.2823 81.6784 58.7322 81.6074 58.2352 81.4832C55.2182 80.6668 52.1479 77.845 51.3847 75.1828C50.9588 73.7098 51.2782 72.4852 52.3608 71.2961C53.4789 70.0893 53.6209 68.2613 52.6803 66.8948C52.0059 65.9009 50.8878 65.333 49.7342 65.333C49.3083 65.333 48.8823 65.404 48.4564 65.5637C46.6461 66.2558 44.4454 66.6463 42.2625 66.6463C40.186 66.6463 33.1935 66.2026 30.8331 60.6121C30.8154 60.5766 30.8154 60.5589 30.7976 60.5234C30.3894 59.6005 30.4072 58.305 30.8686 57.1336C31.259 56.1575 31.9157 55.3766 32.5724 55.1104C34.0809 54.4892 34.9683 52.9452 34.7553 51.3302C34.5246 49.7152 33.2468 48.4728 31.614 48.2954C27.958 47.9049 22.7935 44.7991 20.3443 41.5158C19.4037 40.238 18.9245 39.0312 19.0488 38.1793C19.244 37.3452 19.5635 36.5288 22.2433 36.5288C23.8761 36.5288 25.8106 36.866 27.5143 37.1677C28.6147 37.3629 29.6618 37.5404 30.6379 37.6469C30.7621 37.6646 30.8864 37.6646 31.0106 37.6646C32.3771 37.6646 33.6195 36.8837 34.2229 35.6237C34.8618 34.2571 34.5778 32.6421 33.513 31.5772L32.6434 30.7254C28.9341 27.1049 21.2317 19.5977 24.1246 15.5867C25.0829 14.4686 26.2898 13.9362 27.9225 13.9362ZM27.9225 10.3867C25.4379 10.3867 23.1129 11.2386 21.3205 13.4038C16.1204 20.3253 26.556 29.7315 31.0106 34.1151C28.6502 33.8667 25.2781 32.9793 22.2433 32.9793C19.1375 32.9793 16.4221 33.9199 15.5703 37.4694C14.4344 43.681 24.444 51.0817 31.2236 51.8271C27.816 53.2114 25.8816 58.305 27.5498 61.9964C29.999 67.7821 36.2461 70.1958 42.2625 70.1958C44.9069 70.1958 47.498 69.7343 49.7164 68.8825C44.0905 74.9699 50.8523 83.1515 57.2769 84.8907C58.111 85.1214 58.9629 85.2102 59.8503 85.2102C65.7957 85.2102 72.5752 80.5071 76.178 76.9221C76.178 76.9221 89.1869 63.7712 77.6155 59.9377C57.7383 53.3534 53.6031 31.524 43.5581 18.799C40.7895 15.2673 33.8679 10.3867 27.9225 10.3867Z" fill="#424242"/>
<path d="M110.84 4.54297L110.964 4.59621L110.84 4.54297Z" fill="url(#paint1_linear_308_2474)"/>
<path d="M134.159 112.22C153.113 88.3846 175.351 66.36 173.345 32.835L173.203 32.764L101.645 0.286061C99.569 -0.654556 97.173 0.836234 97.1553 3.12566C97.0311 25.878 85.0515 43.9094 71.5634 60.876C52.9995 84.214 31.3653 106.061 32.3592 138.433C32.2882 139.693 32.9804 140.935 34.2049 141.503H34.2227C43.6821 145.798 89.3641 166.527 104.041 173.182C106.81 174.442 108.46 175.188 108.585 175.241L108.602 175.259C107.041 149.684 119.695 130.411 134.159 112.22Z" fill="url(#paint2_linear_308_2474)"/>
<path d="M120.813 18.9033L154.693 34.2726C152.777 41.2651 155.669 48.7723 161.828 52.659C156.592 70.1403 144.524 84.9062 132.846 99.193L132.722 99.3349C130.468 102.104 128.125 104.961 125.871 107.8C116.518 119.549 107.29 132.487 102.675 147.59C101.628 147.377 100.581 147.289 99.4986 147.289C93.8904 147.289 88.7081 150.128 85.6733 154.725L51.7933 139.356C52.9824 135.025 52.3612 130.358 50.0008 126.435C49.8943 126.276 49.7879 126.098 49.6814 125.938L49.5926 125.796C49.4684 125.619 49.3442 125.441 49.2199 125.264C49.078 125.069 48.9182 124.874 48.7762 124.678C48.6343 124.501 48.4745 124.306 48.2616 124.075C48.1196 123.915 47.9954 123.755 47.8534 123.614C47.5872 123.33 47.3032 123.063 47.0192 122.797C46.8773 122.673 46.7353 122.549 46.5223 122.371C46.2738 122.158 46.0254 121.963 45.7769 121.768C45.6172 121.644 45.4575 121.537 45.28 121.413C45.0315 121.235 44.7653 121.058 44.4281 120.863C44.2861 120.774 44.1441 120.685 44.0022 120.614C43.9844 120.596 43.9489 120.596 43.9312 120.579C49.1844 103.151 61.2172 88.4202 72.8773 74.1512L73.0016 74.0093C75.2555 71.2406 77.5982 68.3833 79.8521 65.5437C89.1518 53.8481 98.345 40.9812 102.977 25.878C104.29 26.2152 105.639 26.375 107.006 26.375C112.614 26.304 117.796 23.4644 120.813 18.9033ZM119.713 15.5312C117.388 20.678 112.312 23.7128 107.024 23.7128C105.391 23.7128 103.722 23.4289 102.107 22.8077V22.8255C101.824 22.719 101.54 22.6125 101.256 22.4883L101.238 22.5238C97.1027 38.0173 87.9095 51.2215 77.8289 63.8754C75.5395 66.7505 73.2145 69.6079 70.8719 72.4475C58.3599 87.7458 45.8834 103.062 40.8609 121.821L40.8076 121.91C40.8254 121.91 40.8254 121.91 40.8431 121.927C41.0916 122.034 41.3578 122.14 41.624 122.247C41.6772 122.265 41.7127 122.3 41.766 122.318C42.1032 122.478 42.4226 122.637 42.7421 122.815C42.8841 122.886 43.0083 122.975 43.1503 123.063C43.381 123.205 43.594 123.347 43.8069 123.489C43.9489 123.578 44.0909 123.685 44.2151 123.791C44.4281 123.951 44.6411 124.128 44.854 124.306C44.996 124.43 45.138 124.536 45.28 124.661C45.5285 124.891 45.7592 125.122 45.9899 125.353C46.1319 125.495 46.2561 125.637 46.3803 125.796C46.5046 125.956 46.6465 126.098 46.7708 126.258C46.895 126.418 47.0192 126.595 47.1435 126.755L47.4629 127.234C47.5694 127.411 47.6936 127.571 47.8001 127.749C50.0896 131.547 50.5332 136.374 48.5633 140.704L86.8269 158.061C89.1695 152.915 94.2276 149.88 99.5341 149.88C101.185 149.88 102.853 150.182 104.486 150.785L104.539 150.714V150.696C108.692 135.238 117.885 122.069 127.948 109.416C130.237 106.54 132.562 103.683 134.905 100.843C147.417 85.5451 159.893 70.229 164.916 51.4699C164.934 51.4344 164.934 51.3989 164.951 51.3634C157.941 48.1866 154.835 39.9163 158.012 32.906L119.713 15.5312Z" fill="#2E7D32"/>
<path d="M90.1275 115.753C88.6722 115.096 87.1991 115.043 85.7261 115.611C84.2531 116.179 82.567 117.492 80.6503 119.568C78.0769 122.479 75.61 124.342 73.2496 125.141C70.8892 125.94 68.4223 125.762 65.8667 124.591C63.2578 123.402 61.4653 121.68 60.4892 119.409C59.5131 117.137 59.4598 114.599 60.3472 111.795L56.2298 109.932C55.6264 109.648 55.3424 108.938 55.6264 108.317L56.2298 106.968C56.5137 106.364 57.2236 106.08 57.8448 106.364L61.98 108.246C63.5595 105.743 65.6182 104.164 68.1738 103.542C70.4633 102.975 73.0189 103.258 75.8762 104.377C76.4264 104.59 76.6749 105.246 76.4264 105.796L75.3083 108.246C75.0776 108.76 74.4742 108.991 73.9418 108.796C72.0605 108.104 70.3568 107.962 68.8127 108.352C67.0025 108.813 65.6892 109.949 64.8728 111.76C64.0209 113.658 63.8434 115.327 64.3759 116.764C64.9083 118.202 66.0441 119.338 67.7834 120.119C69.4162 120.864 70.9424 120.917 72.38 120.296C73.8175 119.675 75.4858 118.326 77.3848 116.267C79.266 114.209 81.0053 112.7 82.567 111.777C84.1288 110.854 85.6906 110.34 87.2346 110.269C88.7787 110.198 90.3937 110.535 92.0797 111.298C94.7596 112.523 96.5698 114.297 97.4749 116.658C98.3801 119.018 98.3268 121.716 97.2975 124.768L100.74 126.33C101.344 126.614 101.628 127.324 101.344 127.945L100.74 129.259C100.457 129.862 99.7466 130.146 99.1255 129.862L95.6824 128.3C94.0674 131.14 91.9732 132.968 89.3643 133.82C87.0572 134.565 84.5193 134.423 81.7684 133.376C81.2005 133.163 80.9698 132.506 81.2005 131.956L82.3186 129.472C82.5493 128.975 83.1172 128.708 83.6142 128.904C85.4599 129.578 87.1459 129.649 88.6189 129.117C90.3405 128.495 91.6715 127.129 92.6476 124.999C93.5882 122.923 93.8367 121.059 93.3753 119.409C92.9493 117.758 91.849 116.534 90.1275 115.753Z" fill="white"/>
<path d="M98.2914 125.23L95.6825 128.319L60.4537 111.849L59.2646 111.299L61.98 108.246L97.262 124.769L98.2914 125.23Z" fill="white"/>
<path opacity="0.5" d="M118.133 88.0111C131.454 88.0111 142.252 77.2128 142.252 63.8923C142.252 50.5718 131.454 39.7734 118.133 39.7734C104.813 39.7734 94.0146 50.5718 94.0146 63.8923C94.0146 77.2128 104.813 88.0111 118.133 88.0111Z" fill="#2E7D32"/>
<path d="M71.5467 60.8926C79.1426 51.3445 86.2593 41.4591 91.0512 30.5977C86.2593 41.4414 79.1603 51.2912 71.5822 60.8394C59.7268 75.7473 46.6114 90.0518 38.9268 106.859C46.5937 90.0518 59.7091 75.7828 71.5467 60.8926Z" fill="#2E7D32"/>
<path d="M173.098 32.7808L108.23 3.35547L172.938 32.7098L173.098 32.7808Z" fill="#2E7D32"/>
<path d="M145.625 117.275C164.154 93.9722 185.77 72.5332 184.865 40.2682C184.936 39.0082 184.244 37.7658 183.019 37.2157C183.001 37.2157 182.984 37.2157 182.984 37.1979L173.365 32.832C175.37 66.3393 153.132 88.3817 134.178 112.217C119.714 130.39 107.06 149.682 108.586 175.256C111.266 176.463 113.591 177.527 115.419 178.362C117.495 179.302 119.891 177.829 119.909 175.54C120.14 152.361 132.102 134.277 145.625 117.275Z" fill="#2E7D32"/>
<path d="M73.9233 57.8789C73.1069 58.9438 72.326 59.9199 71.5096 60.9492C66.1853 67.64 60.3997 74.6503 55.3594 80.9684L131.549 115.541C132.401 114.44 133.271 113.322 134.158 112.222C139.429 105.602 144.949 99.1063 150.131 92.4688L73.9233 57.8789Z" fill="#FFECB3"/>
<path d="M150.168 92.4492C144.968 99.0868 139.448 105.582 134.177 112.22C133.307 113.32 132.438 114.421 131.586 115.539L140.335 124.146C142.057 121.839 143.832 119.55 145.642 117.278C149.99 111.812 154.516 106.434 158.882 101.004L150.168 92.4492Z" fill="#FFECB3"/>
<path opacity="0.5" d="M150.168 92.4492C144.968 99.0868 139.448 105.582 134.177 112.22C133.307 113.32 132.438 114.421 131.586 115.539L140.335 124.146C142.057 121.839 143.832 119.55 145.642 117.278C149.99 111.812 154.516 106.434 158.882 101.004L150.168 92.4492Z" fill="#FFB74D"/>
<path opacity="0.2" d="M100.687 3.76425L171.784 36.0292H171.801C171.819 36.0469 171.855 36.0469 171.872 36.0647L181.296 40.3418V40.3596C182.059 67.1583 166.513 86.0771 150.078 106.114C147.683 109.025 145.216 112.042 142.82 115.041C130.237 130.854 116.82 149.791 116.34 174.868L110.005 171.993L107.414 170.821L105.461 169.934L35.8911 138.379V138.344C35.057 111.225 50.799 91.9693 67.4639 71.5774C69.7178 68.8088 72.0605 65.9515 74.3322 63.1119C86.8974 47.2811 100.332 28.3623 100.687 3.76425ZM100.315 0.0195312C98.6463 0.0195312 97.1555 1.33284 97.1377 3.14309C97.0135 25.8954 85.0339 43.9268 71.5458 60.8934C52.9819 84.2314 31.3478 106.079 32.3416 138.45C32.2706 139.71 32.9628 140.952 34.1873 141.52H34.2051C43.6645 145.815 89.3466 166.544 104.024 173.2C106.792 174.46 108.443 175.205 108.567 175.258L108.585 175.276C111.265 176.483 113.59 177.548 115.418 178.382C115.844 178.577 116.305 178.666 116.731 178.666C118.381 178.666 119.89 177.37 119.908 175.56C120.156 152.382 132.1 134.297 145.624 117.295C164.152 93.9748 185.769 72.5358 184.864 40.2709C184.935 39.0108 184.242 37.7685 183.018 37.2183C183 37.2183 182.982 37.2183 182.982 37.2005L173.363 32.8347L173.221 32.7637L101.663 0.285743C101.202 0.108268 100.758 0.0195312 100.315 0.0195312Z" fill="#424242"/>
<path d="M228.399 109.219C229.943 99.8483 216.064 95.6776 209.675 96.0326C193.49 96.8667 174.34 108.119 156.291 97.5056C145.784 91.3295 144.453 109.769 144.453 109.769C144.081 115.59 145.358 125.547 150.913 129.238C156.451 132.93 167.064 132.61 167.933 124.375C170.613 131.67 179.114 139.354 187.722 136.515C191.591 135.343 194.146 130.534 192.939 127.055C197.962 131.687 210.137 134.332 214.059 129.38C218.23 123.523 209.942 118.838 206.428 115.573C212.657 116.034 226.624 117.684 228.399 109.219Z" fill="#CFD8DC"/>
<path opacity="0.2" d="M210.456 99.569C214.751 99.569 221.051 101.521 223.731 104.698C224.761 105.905 225.133 107.129 224.92 108.567C224.317 111.158 220.821 112.471 214.52 112.471C212.142 112.471 209.799 112.276 207.918 112.134L206.711 112.046C206.623 112.046 206.534 112.028 206.445 112.028C205.043 112.028 203.765 112.862 203.197 114.157C202.594 115.542 202.931 117.157 204.032 118.186C204.741 118.843 205.576 119.517 206.445 120.209C211.681 124.416 212.195 125.818 211.255 127.255C210.58 128.036 208.965 128.497 206.924 128.497C202.913 128.497 197.838 126.723 195.371 124.451C194.696 123.83 193.827 123.51 192.975 123.51C192.3 123.51 191.626 123.706 191.04 124.096C189.674 124.983 189.106 126.687 189.621 128.231C189.851 128.906 189.692 129.899 189.212 130.84C188.644 131.958 187.686 132.828 186.728 133.13C186.692 133.13 186.674 133.147 186.639 133.165C185.787 133.449 184.9 133.591 184.012 133.591C178.528 133.591 173.133 128.178 171.305 123.173C170.79 121.771 169.442 120.848 167.969 120.848C167.827 120.848 167.685 120.848 167.525 120.884C165.892 121.079 164.614 122.392 164.437 124.025C164.082 127.291 161.171 127.965 158.811 127.965C156.681 127.965 154.48 127.344 152.919 126.297C149.227 123.848 147.648 116.074 148.038 110.058C148.358 105.781 150.15 99.8175 152.351 99.8175C152.741 99.8175 153.433 99.9595 154.534 100.598C160.284 103.988 166.549 105.621 173.701 105.621C180.96 105.621 187.97 103.953 194.75 102.338C200.127 101.06 205.221 99.853 209.924 99.6045C210.066 99.569 210.243 99.569 210.456 99.569ZM210.456 96.0195C210.19 96.0195 209.941 96.0195 209.693 96.0373C198.636 96.6052 186.195 102.036 173.666 102.036C167.862 102.036 162.023 100.865 156.308 97.4926C154.8 96.6052 153.487 96.2325 152.333 96.2325C145.447 96.2325 144.471 109.774 144.471 109.774C144.098 115.595 145.376 125.551 150.931 129.243C153.078 130.663 155.989 131.497 158.793 131.497C163.23 131.497 167.418 129.42 167.951 124.38C170.24 130.609 176.789 137.123 183.995 137.123C185.219 137.123 186.479 136.928 187.739 136.519C191.608 135.348 194.164 130.538 192.957 127.06C196.081 129.935 201.973 132.047 206.907 132.047C209.924 132.047 212.586 131.266 214.059 129.385C218.23 123.528 209.941 118.843 206.427 115.577C208.504 115.737 211.432 116.021 214.503 116.021C220.608 116.021 227.21 114.867 228.399 109.224C229.89 100.208 217.111 96.0195 210.456 96.0195Z" fill="#424242"/>
<defs>
<filter id="filter0_f_308_2474" x="0.990895" y="88.5094" width="134.788" height="130.61" filterUnits="userSpaceOnUse" color-interpolation-filters="sRGB">
<feFlood flood-opacity="0" result="BackgroundImageFix"/>
<feBlend mode="normal" in="SourceGraphic" in2="BackgroundImageFix" result="shape"/>
<feGaussianBlur stdDeviation="4.24528" result="effect1_foregroundBlur_308_2474"/>
</filter>
<linearGradient id="paint0_linear_308_2474" x1="64.204" y1="198.105" x2="128.181" y2="57.0994" gradientUnits="userSpaceOnUse">
<stop stop-color="#43A047"/>
<stop offset="0.9992" stop-color="#66BB6A"/>
</linearGradient>
<linearGradient id="paint1_linear_308_2474" x1="110.904" y1="4.57433" x2="110.904" y2="4.57433" gradientUnits="userSpaceOnUse">
<stop stop-color="#43A047"/>
<stop offset="0.9992" stop-color="#66BB6A"/>
</linearGradient>
<linearGradient id="paint2_linear_308_2474" x1="70.5125" y1="157.99" x2="134.849" y2="16.19" gradientUnits="userSpaceOnUse">
<stop stop-color="#43A047"/>
<stop offset="0.9992" stop-color="#66BB6A"/>
</linearGradient>
<clipPath id="clip0_308_2474">
<rect x="9.48145" y="97" width="117.806" height="113.629" rx="56.8144" fill="white"/>
</clipPath>
</defs>
</svg>
