<svg width="24" height="19" viewBox="0 0 24 19" fill="none" xmlns="http://www.w3.org/2000/svg">
<path d="M8.76123 18.0096C5.46126 18.0016 0.763919 15.7281 0.715803 15.704C0.699764 15.696 0.683726 15.69 0.665682 15.684C0.449159 15.6218 0.298796 15.4213 0.300801 15.1968L0.368966 7.23758C0.372975 7.00903 0.533363 6.81055 0.757905 6.75642L1.01653 6.69628C2.29361 6.39956 3.43036 5.65376 4.30848 4.54107C4.49693 4.3025 4.72148 4.098 4.97609 3.9316C6.34941 3.04145 7.55632 2.55026 8.72314 2.07712C9.82781 1.63004 10.8703 1.20702 11.9469 0.487283C12.0833 0.397065 12.404 0.298828 12.789 0.298828C13.0937 0.298828 13.8255 0.368998 14.054 1.01656C14.5051 2.28763 13.7012 3.06551 12.3539 3.84339C11.0046 4.62327 10.6498 4.67139 10.6358 4.67339C10.4714 4.67941 10.3471 4.81373 10.3491 4.97813C10.3511 5.14252 10.4894 5.27284 10.6538 5.27484L22.0954 5.2989C22.5124 5.2989 23.6973 5.55151 23.6973 6.67222C23.6973 7.9914 22.5485 8.43447 22.0253 8.43447L18.0978 8.42645C18.0035 8.42645 17.9133 8.47056 17.8572 8.54674C17.8011 8.62293 17.783 8.72117 17.8111 8.81339C18.176 10.0283 17.6928 10.7601 17.2217 11.1611C16.8668 11.4618 16.7285 11.965 16.8728 12.4101C16.9991 12.795 16.961 13.2301 16.7605 13.6992C16.5982 14.0781 16.3115 14.3588 16.0969 14.5292C15.8724 14.7076 15.3672 15.1828 15.5175 15.7301C15.6358 16.1591 15.5456 17.2016 14.5191 17.6928C14.0761 17.9053 12.2677 18.0116 9.14616 18.0116L8.76123 18.0096Z" fill="url(#paint0_linear_241_1558)"/>
<path d="M12.7909 0.601452C13.0897 0.601452 13.6129 0.669617 13.7733 1.1187C14.058 1.91863 13.8936 2.6103 12.2075 3.58465C11.0708 4.24024 10.6738 4.35852 10.6037 4.37456C10.3029 4.39862 10.0623 4.64321 10.0503 4.94995C10.0383 5.27273 10.2829 5.5494 10.6057 5.57346C10.6217 5.57546 10.6377 5.57546 10.6538 5.57546H10.6598L22.0974 5.59952C22.1094 5.59952 23.3985 5.64563 23.3985 6.67211C23.3985 7.87301 22.2999 8.13364 22.0292 8.13364L18.1018 8.12562C17.9113 8.12562 17.7329 8.21584 17.6186 8.3682C17.5043 8.52057 17.4702 8.71905 17.5244 8.90149C17.781 9.75154 17.6126 10.4352 17.0272 10.9344C16.5741 11.3193 16.4017 11.9368 16.5881 12.5062C16.6903 12.821 16.6563 13.1818 16.4859 13.5828C16.3495 13.9036 16.0989 14.1462 15.9125 14.2945C15.3391 14.7516 15.0905 15.3029 15.2288 15.8102C15.321 16.145 15.2368 17.0171 14.3908 17.4221C14.1643 17.5303 13.1799 17.7128 9.14413 17.7128H8.7612C5.53542 17.7027 0.894209 15.4593 0.848098 15.4373C0.81602 15.4212 0.781938 15.4092 0.747855 15.3992C0.661647 15.3751 0.601502 15.2949 0.601502 15.2027L0.671671 7.24549C0.673676 7.15327 0.735827 7.07308 0.826044 7.05303L1.08467 6.99288C2.42791 6.68013 3.6248 5.89824 4.54302 4.72942C4.71143 4.51691 4.91191 4.33447 5.13846 4.18611C6.48772 3.30999 7.6806 2.82683 8.83538 2.35769C9.95409 1.9046 11.0106 1.47556 12.1133 0.739786C12.1815 0.69568 12.4361 0.601452 12.7909 0.601452ZM12.7909 0C12.3739 0 11.985 0.104252 11.7825 0.238576C9.60123 1.69409 7.51219 1.92866 4.81367 3.68089C4.50292 3.88338 4.26234 4.11794 4.07389 4.35652C3.27997 5.36495 2.20137 6.11476 0.950344 6.40547L0.69172 6.46561C0.330849 6.54981 0.0742289 6.86858 0.0702192 7.23948L4.97817e-05 15.1967C-0.0039599 15.5596 0.234616 15.8783 0.583459 15.9766C0.583459 15.9766 5.35298 18.3042 8.7592 18.3102H9.14413C11.3855 18.3102 14.0159 18.2641 14.6514 17.9614C15.7802 17.4221 15.9746 16.2452 15.8102 15.6478C15.722 15.323 16.0227 14.9721 16.2874 14.7616C16.552 14.5511 16.8588 14.2364 17.0392 13.8154C17.3159 13.1698 17.2738 12.6626 17.1615 12.3157C17.0532 11.9849 17.1535 11.616 17.4181 11.3895C17.9233 10.9585 18.5208 10.1224 18.0998 8.72707L22.0272 8.73509C22.6628 8.73509 24 8.20982 24 6.67211C24 5.40104 22.7289 4.99807 22.0974 4.99807L10.6578 4.97601H10.6558H10.6538H10.6598C10.7079 4.97401 11.0788 4.93391 12.5103 4.10792C14.2264 3.11753 14.7898 2.17926 14.3427 0.920222C14.0941 0.228552 13.4104 0 12.7909 0Z" fill="#875334"/>
<path d="M14.0639 8.22503L18.3061 8.13281L17.9653 8.624C17.9653 8.74228 17.8109 8.8325 17.6345 8.81847L14.0578 8.66409C13.703 8.63603 13.707 8.24308 14.0639 8.22503Z" fill="#875334"/>
<path d="M9.04762 4.98619L10.445 4.42283L10.9402 4.23438L10.7658 4.89998L10.5773 5.54755L9.07769 5.5295C8.80102 5.53151 8.82909 5.09846 9.04762 4.98619Z" fill="#875334"/>
<path d="M13.9836 11.6565L16.6039 11.5021C16.7222 11.4921 16.6541 12.0073 16.6541 12.0073C16.6541 12.1256 16.5478 12.2158 16.4275 12.2018L13.9756 12.0474C13.733 12.0214 13.739 11.6765 13.9836 11.6565Z" fill="#875334"/>
<path d="M14.0295 14.9905L15.4409 14.8361C15.505 14.8261 15.4669 15.3413 15.4669 15.3413C15.4669 15.4596 15.4108 15.5498 15.3446 15.5358L14.0254 15.3814C13.8951 15.3533 13.8991 15.0085 14.0295 14.9905Z" fill="#875334"/>
<defs>
<linearGradient id="paint0_linear_241_1558" x1="23.6818" y1="9.1862" x2="0.305364" y2="9.13722" gradientUnits="userSpaceOnUse">
<stop offset="0.1277" stop-color="#8D5738"/>
<stop offset="0.6467" stop-color="#A56C43"/>
</linearGradient>
</defs>
</svg>
