<svg width="36" height="36" viewBox="0 0 36 36" fill="none" xmlns="http://www.w3.org/2000/svg">
<path fill-rule="evenodd" clip-rule="evenodd" d="M18 0C8.05911 0 0 8.05873 0 17.9996C0 27.9405 8.05911 35.9996 18 35.9996C27.9409 35.9996 36 27.9405 36 17.9996C36 8.05873 27.9409 0 18 0ZM18 33.199C9.60594 33.199 2.80096 26.3941 2.80096 18C2.80096 12.7853 5.42716 8.18395 9.42886 5.44713C11.9526 3.71864 14.9411 2.79588 18 2.80058C26.3941 2.80058 33.199 9.60517 33.199 17.9996C33.1996 19.0433 33.0931 20.0843 32.8814 21.1063C31.4475 28.0108 25.3293 33.1986 18 33.1986V33.199Z" fill="white"/>
<path d="M17.8357 33.1265C26.3593 33.1265 33.269 26.2167 33.269 17.6931C33.269 9.16951 26.3593 2.25977 17.8357 2.25977C9.31209 2.25977 2.40234 9.16951 2.40234 17.6931C2.40234 26.2167 9.31209 33.1265 17.8357 33.1265Z" fill="#50B651"/>
<path opacity="0.663" fill-rule="evenodd" clip-rule="evenodd" d="M33.2194 17.6475C33.2194 26.1979 26.288 33.1293 17.7396 33.1293C9.19108 33.1293 2.25781 26.1979 2.25781 17.6475C2.25781 13.8651 2.36383 13.3028 3.85266 11.1495C3.85266 11.1495 3.77583 13.5817 5.55928 15.029C6.66822 15.9282 7.82556 15.2791 9.94395 14.3034C12.2356 13.2471 14.0985 12.5657 15.552 12.7455C17.7415 13.0166 24.49 17.0694 28.0119 16.2624C30.8256 15.619 30.5287 8.98535 30.5287 8.98535C33.6016 11.9861 33.2194 14.0142 33.2194 17.6475Z" fill="url(#paint0_linear_4549_43228)"/>
<path opacity="0.744" fill-rule="evenodd" clip-rule="evenodd" d="M21.7289 8.55459C19.0263 7.05884 15.9257 4.05007 16.3379 3.4182C16.75 2.78633 22.0996 2.89504 24.8026 4.39078C27.5056 5.88652 29.8061 10.3734 29.3943 11.0052C28.9826 11.6371 24.4316 10.0503 21.7289 8.55459Z" fill="url(#paint1_radial_4549_43228)"/>
<path fill-rule="evenodd" clip-rule="evenodd" d="M24.0831 21.4928C21.8411 21.4928 20.0234 19.6234 20.0234 17.3175C20.0234 15.0117 21.8411 13.1426 24.0831 13.1426C26.3252 13.1426 28.1432 15.0117 28.1432 17.3175C28.1432 19.6234 26.3256 21.4928 24.0831 21.4928ZM24.112 20.1684C25.5113 20.1684 26.6471 18.892 26.6471 17.3175C26.6471 15.743 25.5113 14.4678 24.112 14.4678C22.7126 14.4678 21.5768 15.7442 21.5768 17.3183C21.5768 18.8924 22.7126 20.1684 24.112 20.1684Z" fill="white"/>
<path fill-rule="evenodd" clip-rule="evenodd" d="M15.707 9.78809H18.6324V21.4536H17.0265V11.0676H15.707V9.78809Z" fill="white"/>
<path fill-rule="evenodd" clip-rule="evenodd" d="M13.5267 13.2612H15.0451V23.0031C15.0451 23.8908 14.1113 24.8154 13.2014 25.2133C12.7712 25.4013 11.9773 25.5129 10.8199 25.5483V24.5791C11.952 24.4529 12.7161 24.2011 13.1123 23.8236C13.3409 23.5059 13.4837 23.1347 13.5271 22.7458V19.8837C13.1212 20.7449 12.6101 21.3158 11.9937 21.5965C11.353 21.9422 10.0489 21.8854 9.51656 21.5965C8.98418 21.3076 8.20327 20.5471 7.84528 19.4143C7.74617 19.1017 7.49957 18.2509 7.52531 17.3493C7.54836 16.4908 7.8326 15.5824 8.06883 15.2091C8.47446 14.5714 9.11401 13.7728 10.0827 13.4391C10.556 13.2759 11.433 13.2173 12.7139 13.2631V14.2269C11.7621 14.1626 11.1683 14.1947 10.9324 14.3233C10.5786 14.5153 9.78006 14.7523 9.51656 16.4928C9.25306 18.2332 9.52424 19.6575 10.3597 20.1034C10.6459 20.2571 11.1521 20.4388 11.62 20.2786C12.5188 19.9713 13.3646 18.8754 13.4292 18.1329C13.4942 17.3796 13.5267 15.7556 13.5267 13.2612Z" fill="white"/>
<path fill-rule="evenodd" clip-rule="evenodd" d="M32.7367 20.7436C31.3028 27.648 25.1846 32.8359 17.8553 32.8359C9.46123 32.8359 2.65625 26.0309 2.65625 17.6369C2.65625 12.4221 5.28244 7.8208 9.28415 5.08398C6.03262 7.78047 3.96224 11.854 3.96224 16.4092C3.96224 24.5344 10.549 31.1208 18.6738 31.1208C25.2906 31.1208 30.8864 26.753 32.7367 20.7436Z" fill="url(#paint2_radial_4549_43228)"/>
<defs>
<linearGradient id="paint0_linear_4549_43228" x1="17.1415" y1="11.0995" x2="19.1258" y2="29.0196" gradientUnits="userSpaceOnUse">
<stop stop-color="#123214"/>
<stop offset="0.46" stop-color="#3E7C37"/>
<stop offset="0.91" stop-color="#5FBB46"/>
</linearGradient>
<radialGradient id="paint1_radial_4549_43228" cx="0" cy="0" r="1" gradientUnits="userSpaceOnUse" gradientTransform="translate(23.195 7.31325) rotate(26.7606) scale(7.62634 3.17623)">
<stop offset="0.13" stop-color="white"/>
<stop offset="0.29" stop-color="white" stop-opacity="0.69"/>
<stop offset="0.45" stop-color="white" stop-opacity="0.4"/>
<stop offset="0.59" stop-color="white" stop-opacity="0.18"/>
<stop offset="0.69" stop-color="white" stop-opacity="0.05"/>
<stop offset="0.74" stop-color="white" stop-opacity="0"/>
</radialGradient>
<radialGradient id="paint2_radial_4549_43228" cx="0" cy="0" r="1" gradientUnits="userSpaceOnUse" gradientTransform="translate(20.4616 14.135) rotate(39.84) scale(17.0904 18.6286)">
<stop offset="0.86" stop-opacity="0"/>
<stop offset="0.98" stop-opacity="0.47"/>
<stop offset="1"/>
</radialGradient>
</defs>
</svg>
