<svg width="79" height="137" viewBox="0 0 79 137" fill="none" xmlns="http://www.w3.org/2000/svg">
<g clip-path="url(#clip0_35_317)">
<path d="M157.092 162.437C173.162 157.816 188.326 150.467 201.921 140.708C208.106 136.282 214.419 130.841 217.047 123.465C219.457 116.666 217.185 109.611 212.274 104.546C206.978 99.0992 199.886 95.8298 192.831 93.3431C184.356 90.5374 175.577 88.7446 166.678 88.002C149.298 86.4375 131.809 86.4833 114.431 88.1387C104.664 88.9942 94.9496 90.3041 85.2875 92.0685C80.7115 92.7145 76.191 93.711 71.7659 95.0491C67.9433 96.4055 63.9786 98.6857 63.2226 103.014C63.1151 103.657 63.833 104.168 64.311 104.38C72.9194 108.384 82.4095 109.549 91.8326 109.309C100.662 109.028 109.453 107.992 118.109 106.212C126.722 104.467 135.186 102.042 143.42 98.9612C151.709 96.0543 159.689 92.3254 167.24 87.83C173.638 83.7882 179.526 77.3381 178.148 69.2351C176.682 60.4248 165.427 57.1752 158.072 55.3526C148.902 53.0652 139.367 52.7986 129.973 52.7692C120.104 52.727 110.322 52.9804 100.508 53.3889C78.2449 54.3418 56.0393 56.2142 33.8409 58.1608C32.9002 58.238 31.8723 58.826 32.5255 59.8301C33.1786 60.8342 35.0843 61.0453 36.1973 61.0217C54.7256 59.4561 73.2528 57.8333 91.8772 56.8089C101.038 56.2885 110.201 55.911 119.38 55.7105C128.363 55.3802 137.357 55.5253 146.324 56.1452C150.64 56.4818 154.914 57.2357 159.084 58.3964C162.811 59.4725 167.171 60.8211 170.08 63.6188C175.907 69.0768 172.46 77.8198 167.472 82.375C164.393 84.9895 160.978 87.1779 157.319 88.8812C153.594 90.7751 149.821 92.5327 146 94.1541C138.447 97.3049 130.671 99.8881 122.736 101.882C113.761 104.136 104.609 105.603 95.3829 106.266C85.9401 106.964 76.0779 106.641 67.3487 102.595L68.4372 103.961C69.0906 100.236 72.4983 98.3848 75.8242 97.3306C79.5623 96.2901 83.361 95.4837 87.1982 94.916C95.2361 93.4186 103.326 92.248 111.468 91.4042C127.553 89.6841 143.747 89.2543 159.895 90.119C168.111 90.4767 176.272 91.6171 184.269 93.5248C191.448 95.3341 198.853 97.9448 204.776 102.486C209.976 106.499 213.903 112.357 212.905 119.218C211.836 126.555 206.085 132.448 200.487 136.827C186.603 147.464 170.833 155.365 154.015 160.111C153.021 160.39 152.974 161.203 153.745 161.839C154.232 162.182 154.787 162.415 155.373 162.522C155.959 162.629 156.561 162.608 157.138 162.459L157.092 162.437Z" fill="#A609CD" fill-opacity="0.4"/>
<path d="M53.8152 65.595C41.1362 64.0054 28.4474 62.4962 15.7843 60.8434L17.2274 63.4263C29.2979 59.5157 41.185 54.98 52.8744 49.968C53.8486 49.5528 53.0313 48.6265 52.5329 48.2482C52.0516 47.9399 51.5107 47.7364 50.9454 47.6509C50.3801 47.5654 49.803 47.5997 49.2514 47.7517C37.6014 52.4425 25.6918 56.6985 13.8261 60.8621C11.6253 61.6293 14.0101 63.3001 15.2692 63.445C27.9629 64.9141 40.6424 66.5322 53.3263 68.0816C54.059 68.1747 55.8554 68.3482 56.0518 67.2803C56.2482 66.2124 54.4732 65.6668 53.7806 65.5785L53.8152 65.595Z" fill="#A609CD" fill-opacity="0.4"/>
</g>
<defs>
<clipPath id="clip0_35_317">
<rect width="211" height="99.5283" fill="white" transform="translate(190.596 179.426) rotate(-154.595)"/>
</clipPath>
</defs>
</svg>
