<svg width="189" height="62" viewBox="0 0 189 62" fill="none" xmlns="http://www.w3.org/2000/svg">
<g clip-path="url(#clip0_35_314)">
<path d="M29.4464 16.1866C13.4904 21.1881 -1.49414 28.8966 -14.8534 38.9757C-20.9309 43.5478 -27.1131 49.1377 -29.5641 56.5741C-31.8116 63.4289 -29.3728 70.4275 -24.3422 75.3748C-18.9184 80.6936 -11.7502 83.7932 -4.63855 86.1113C3.90132 88.7145 12.7201 90.2978 21.6345 90.8283C39.0464 91.9788 56.5301 91.5167 73.8631 89.4481C83.6071 88.3604 93.2878 86.8196 102.905 84.8257C107.464 84.071 111.96 82.9672 116.352 81.5241C120.141 80.0771 124.051 77.7032 124.703 73.3583C124.796 72.7131 124.066 72.2195 123.583 72.018C114.881 68.2205 105.366 67.2814 95.9516 67.7456C87.1314 68.2373 78.3679 69.4823 69.7565 71.4671C61.1871 73.4171 52.7838 76.0425 44.6252 79.3186C36.4077 82.422 28.519 86.3399 21.0767 91.0137C14.7772 95.2066 9.04374 101.795 10.6144 109.863C12.2897 118.636 23.6187 121.617 31.0157 123.264C40.2367 125.332 49.776 125.372 59.168 125.177C69.0345 124.985 78.8082 124.499 88.6096 123.857C110.844 122.374 132.998 119.974 155.144 117.499C156.083 117.4 157.097 116.787 156.42 115.799C155.743 114.811 153.833 114.645 152.72 114.695C134.235 116.701 115.751 118.765 97.1566 120.232C88.0109 120.97 78.859 121.566 69.6881 121.985C60.7149 122.529 51.7202 122.598 42.7415 122.192C38.418 121.958 34.128 121.306 29.9313 120.245C26.18 119.258 21.789 118.013 18.8142 115.286C12.859 109.968 16.096 101.145 20.9749 96.4727C23.9903 93.7856 27.3523 91.5166 30.9703 89.7266C34.6488 87.7447 38.3789 85.8977 42.1606 84.1858C49.6365 80.8561 57.3488 78.0886 65.2333 75.9062C74.1521 73.4395 83.267 71.7553 92.4747 70.8727C101.898 69.9502 111.765 70.0379 120.588 73.8757L119.468 72.5354C118.903 76.2753 115.54 78.2068 112.241 79.3399C108.528 80.469 104.75 81.3656 100.927 82.0245C92.9272 83.7128 84.8675 85.0756 76.748 86.113C60.7087 88.2155 44.5295 89.0306 28.3652 88.5505C20.1432 88.3885 11.9568 87.4427 3.91665 85.7258C-3.30284 84.088 -10.7681 81.6542 -16.7979 77.2556C-22.0914 73.3675 -26.1572 67.6041 -25.3223 60.7213C-24.4281 53.3608 -18.8191 47.3331 -13.3275 42.8218C0.299564 31.8578 15.8776 23.5831 32.5779 18.4379C33.5649 18.1359 33.5927 17.3219 32.806 16.7049C32.3116 16.3731 31.7509 16.1531 31.1628 16.06C30.5747 15.9669 29.9731 16.003 29.3998 16.1658L29.4464 16.1866Z" fill="#A609CD" fill-opacity="0.4"/>
</g>
<defs>
<clipPath id="clip0_35_314">
<rect width="211" height="99.5283" fill="white" transform="translate(-4.45312) rotate(24.0412)"/>
</clipPath>
</defs>
</svg>
