<svg width="368" height="245" viewBox="0 0 368 245" fill="none" xmlns="http://www.w3.org/2000/svg">
<path d="M83.9473 156.009C76.8668 154.437 69.6099 167.961 71.3788 174.992C73.1477 182.024 80.7623 186.419 88.0388 186.458C92.047 186.458 96.1238 185.444 100.005 186.424C103.885 187.404 107.404 191.681 105.605 195.244C104.939 196.562 103.68 197.517 103.057 198.86C102.004 201.138 103.131 203.956 105.052 205.573C106.972 207.19 109.496 207.861 111.946 208.39C127.699 211.82 143.997 211.33 160.108 210.865L267.952 207.631C271.808 207.513 275.753 207.381 279.335 205.95C282.917 204.519 286.111 201.496 286.641 197.679C287.17 193.862 284.122 189.628 280.28 189.795C291.563 184.819 301.826 177.795 310.548 169.078C311.905 167.72 313.262 166.26 313.841 164.433C314.419 162.605 316.501 157.803 314.874 156.789C313.865 156.156 312.606 156.122 311.41 156.103C296.22 155.872 278.737 155.828 263.532 155.828C203.84 155.828 157.384 156.009 83.9571 156.009" fill="#F5F5F5"/>
<path d="M173.048 96.3676C178.463 96.3676 182.853 91.9778 182.853 86.5627C182.853 81.1476 178.463 76.7578 173.048 76.7578C167.633 76.7578 163.243 81.1476 163.243 86.5627C163.243 91.9778 167.633 96.3676 173.048 96.3676Z" fill="#EBEBEB"/>
<path d="M165.62 51.9967L204.404 52.1584C204.404 52.1584 200.729 43.7549 192.884 43.75C186.901 43.75 186.631 47.474 183.045 48.5373C179.458 49.6006 171.853 43.0885 165.62 51.9967Z" fill="#F5F5F5"/>
<path d="M107.403 33.4215L127.915 33.5097C127.915 33.5097 125.955 29.0654 121.819 29.0605C118.654 29.0605 118.517 31.0205 116.615 31.5938C114.714 32.1671 110.711 28.7126 107.403 33.4215Z" fill="#F5F5F5"/>
<path d="M21.6826 114.66L60.4661 114.821C60.4661 114.821 56.7911 106.423 48.9462 106.418C42.9633 106.418 42.6938 110.142 39.107 111.205C35.5202 112.269 27.9301 105.732 21.6826 114.66Z" fill="#F5F5F5"/>
<path d="M120.54 138.908C120.54 138.908 107.08 115.202 105.703 93.2495L101.817 92.8281C101.817 92.8281 104.022 120.489 116.067 140.799L120.54 138.908Z" fill="#E0E0E0"/>
<path d="M102.718 93.0056C99.8226 90.7124 96.3485 88.6397 92.6882 88.9778C89.9785 89.2277 87.5187 90.7908 85.6861 92.7949C83.8535 94.799 82.5599 97.2441 81.3643 99.6892C83.8712 100.21 86.4724 100.041 88.8907 99.1992C91.1839 98.3907 93.2517 96.9942 95.6086 96.4062C97.9655 95.8182 100.381 96.073 102.767 96.3229C104.149 97.3862 103.747 95.2743 102.718 93.0252" fill="#EBEBEB"/>
<path d="M102.969 94.4617C103.165 91.458 103.254 88.1995 101.534 85.7299C99.6765 83.0643 96.2073 82.0598 92.9684 81.7609C89.7295 81.462 86.3926 81.658 83.3203 80.5996C83.8538 82.4996 84.8487 84.2383 86.2165 85.6608C87.5844 87.0834 89.2827 88.1457 91.1603 88.7532" fill="#EBEBEB"/>
<path d="M100.715 94.9201C101.285 93.7205 101.999 92.5949 102.842 91.5685C103.696 90.5348 104.898 89.8483 106.223 89.6379C107.957 89.4468 109.653 90.3925 110.843 91.6665C112.034 92.9405 113.107 98.3305 119.149 101.466C119.796 101.805 109.917 104.666 106.291 99.9965C104.821 98.061 102.935 96.3068 100.681 95.3562" fill="#EBEBEB"/>
<path d="M102.561 94.8135C100.048 93.7159 96.9656 95.0781 95.378 97.3223C93.7904 99.5665 93.418 102.443 93.4523 105.162C93.4866 107.882 93.8688 110.66 93.5944 113.394C96.0796 112.118 98.2641 110.326 100.002 108.138C101.74 105.951 102.992 103.418 103.674 100.708C104.08 99.2299 104.177 97.6834 103.958 96.1659C103.728 94.6376 102.926 93.2538 101.714 92.2949" fill="#EBEBEB"/>
<path d="M100.646 91.6291C102.606 87.8022 104.889 83.7009 108.829 81.9467C112.768 80.1925 117.467 81.246 121.671 80.1582C119.1 85.849 114.438 90.3331 108.652 92.6826" fill="#EBEBEB"/>
<path d="M103.218 93.2414C100.278 90.8355 98.808 87.0478 98.3719 83.2895C97.9358 79.5312 98.514 75.7337 99.0677 72.0195C101.167 73.4514 102.85 75.4144 103.944 77.7083C105.038 80.0022 105.504 82.5452 105.296 85.078" fill="#EBEBEB"/>
<path d="M172.715 155.817H95.8389C95.8389 155.817 102.64 127.397 122.372 128.666C142.105 129.935 140.081 140.191 149.087 142.22C158.093 144.248 168.599 141.921 172.715 155.817Z" fill="#EBEBEB"/>
<path d="M325.615 155.936C325.615 155.975 260.739 156.009 180.732 156.009C100.725 156.009 35.834 155.975 35.834 155.936C35.834 155.897 100.695 155.857 180.732 155.857C260.768 155.857 325.615 155.892 325.615 155.936Z" fill="#E0E0E0"/>
<path d="M146.893 169.049C146.893 169.093 136.559 168.976 123.819 168.79C111.079 168.603 100.74 168.412 100.74 168.373C100.74 168.334 111.074 168.446 123.819 168.633C136.564 168.819 146.893 169.01 146.893 169.049Z" fill="#E0E0E0"/>
<path d="M125.318 175.454C125.318 175.498 122.49 175.375 119.006 175.184C115.523 174.993 112.7 174.807 112.705 174.763C112.71 174.719 115.532 174.841 119.016 175.032C122.5 175.223 125.323 175.42 125.318 175.454Z" fill="#E0E0E0"/>
<path d="M134.26 181.534C134.26 181.579 131.212 181.613 127.454 181.613C123.695 181.613 120.647 181.579 120.647 181.534C120.647 181.49 123.695 181.461 127.454 181.461C131.212 181.461 134.26 181.495 134.26 181.534Z" fill="#E0E0E0"/>
<path d="M319.352 214.132C319.352 214.132 319.102 214.132 318.617 214.157L316.47 214.206L308.204 214.358L277.824 214.848L256.828 215.161C249.282 215.264 241.221 215.402 232.729 215.446C224.253 215.397 215.31 215.558 206.122 214.402C203.799 214.113 201.505 213.629 199.262 212.956L197.592 212.383L196.759 212.099C196.479 212.011 196.19 211.952 195.906 211.878C195.622 211.805 195.338 211.727 195.048 211.668L194.176 211.521C193.594 211.423 193.007 211.354 192.417 211.315C191.829 211.261 191.231 211.266 190.639 211.251C190.046 211.237 189.443 211.251 188.85 211.335C187.655 211.426 186.467 211.603 185.298 211.864C184.116 212.115 182.956 212.457 181.828 212.888C181.26 213.103 180.667 213.265 180.084 213.456C179.501 213.647 178.923 213.843 178.325 213.99C173.607 215.137 168.75 215.614 163.899 215.406C159.122 215.279 154.442 214.73 149.861 214.167C145.279 213.603 140.771 213.035 136.342 212.77C134.127 212.633 131.932 212.594 129.761 212.623C127.59 212.653 125.454 212.824 123.342 213.01C119.118 213.393 115.012 213.917 110.994 214.221C106.976 214.524 103.075 214.618 99.2976 214.652C95.5197 214.686 91.879 214.652 88.3755 214.627L78.2864 214.622L47.877 214.431L39.6156 214.368L37.4645 214.343H36.7295C36.7295 214.343 36.9794 214.343 37.4645 214.343H39.6156H47.8819L78.2864 214.451L88.3608 214.49C91.8643 214.49 95.5099 214.534 99.2829 214.49C103.056 214.446 106.956 214.353 110.964 214.049C114.973 213.745 119.074 213.216 123.303 212.829C125.419 212.643 127.566 212.486 129.741 212.437C131.917 212.388 134.122 212.437 136.342 212.584C140.786 212.844 145.289 213.412 149.875 213.976C154.462 214.539 159.127 215.078 163.889 215.21C168.717 215.413 173.55 214.938 178.246 213.799C178.834 213.652 179.408 213.442 179.991 213.265C180.574 213.089 181.152 212.922 181.72 212.702C182.862 212.268 184.035 211.923 185.229 211.668C186.41 211.405 187.609 211.226 188.816 211.134C189.418 211.065 190.021 211.075 190.619 211.05C191.217 211.026 191.824 211.05 192.422 211.114C193.02 211.178 193.618 211.207 194.201 211.325L195.088 211.477C195.377 211.535 195.666 211.614 195.955 211.687C196.244 211.761 196.533 211.825 196.817 211.913L197.66 212.202L199.326 212.77C201.551 213.439 203.827 213.919 206.132 214.206C215.29 215.362 224.228 215.186 232.705 215.264C241.187 215.225 249.257 215.098 256.803 215.005L277.795 214.72L308.199 214.299L316.466 214.191H318.617L319.352 214.132Z" fill="#263238"/>
<path d="M209.524 191.367C209.818 191.891 212.102 201.618 213.714 208.566C214.172 210.542 215.287 212.304 216.875 213.565C218.464 214.825 220.432 215.511 222.46 215.509H237.709C239.765 215.505 241.758 214.794 243.353 213.497C244.947 212.199 246.048 210.392 246.47 208.38L250.052 191.367H209.524Z" fill="#455A64"/>
<path d="M209.524 191.367C209.524 191.367 219.324 196.728 231.491 196.037C243.658 195.346 250.067 191.367 250.067 191.367H209.524Z" fill="#263238"/>
<path d="M236.346 195.822C236.346 195.822 236.41 195.881 236.478 196.013C236.576 196.212 236.654 196.421 236.709 196.636C236.93 197.434 236.967 198.271 236.817 199.086C236.61 200.307 236.038 201.436 235.175 202.325C234.08 203.405 232.602 204.009 231.064 204.005C229.529 204.024 228.043 203.466 226.899 202.442C226.019 201.584 225.375 200.514 225.027 199.336C224.78 198.566 224.616 197.773 224.537 196.969C224.481 196.676 224.481 196.375 224.537 196.082C224.656 196.352 224.73 196.64 224.758 196.935C224.914 197.701 225.129 198.455 225.4 199.189C225.778 200.269 226.411 201.243 227.247 202.026C228.301 202.932 229.65 203.422 231.039 203.403C232.428 203.41 233.766 202.883 234.778 201.933C235.587 201.128 236.147 200.107 236.39 198.993C236.561 198.237 236.588 197.455 236.469 196.69C236.425 196.415 236.38 196.2 236.346 196.057C236.312 195.915 236.327 195.827 236.346 195.822Z" fill="#263238"/>
<path d="M207.7 135.58C207.7 135.58 194.039 174.177 177.276 184.208C177.276 184.208 196.386 194.008 207.7 184.208C217.628 175.589 233.842 145.468 236.277 135.58H207.7Z" fill="#455A64"/>
<path d="M141.391 180.096L173.363 181.703C173.363 181.703 184.114 187.975 196.819 188.494L167.14 188.529C160.817 188.817 154.497 187.894 148.52 185.809C145.531 184.756 143.458 181.791 141.391 180.096Z" fill="#263238"/>
<path d="M161.008 214.081C160.832 213.964 171.969 196.627 185.88 175.371C199.791 154.115 211.218 136.955 211.4 137.073C211.581 137.19 200.438 154.522 186.522 175.783C172.606 197.044 161.209 214.194 161.008 214.081Z" fill="#455A64"/>
<path d="M176.582 212.598C176.439 212.755 168.766 205.9 159.432 197.296C150.097 188.691 142.664 181.581 142.811 181.425C142.958 181.268 150.626 188.123 159.961 196.732C169.295 205.341 176.724 212.442 176.582 212.598Z" fill="#455A64"/>
<path d="M190.839 211.272C190.658 211.159 200.83 194.318 213.556 173.654C226.281 152.991 236.747 136.326 236.924 136.414C237.1 136.503 226.938 153.368 214.207 174.037C201.477 194.705 191.021 211.38 190.839 211.272Z" fill="#455A64"/>
<path d="M205.883 213.177C205.731 213.324 198.146 205.901 188.948 196.591C179.751 187.281 172.406 179.612 172.553 179.465C172.7 179.318 180.285 186.742 189.492 196.052C198.699 205.362 206.03 213.03 205.883 213.177Z" fill="#455A64"/>
<path d="M196.137 203.533C196.137 203.744 189.678 204.082 181.701 204.288C173.724 204.494 167.246 204.489 167.241 204.288C167.236 204.087 173.699 203.739 181.682 203.533C189.664 203.327 196.132 203.322 196.137 203.533Z" fill="#455A64"/>
<path d="M220.358 122.8C221.376 121.735 222.685 120.994 224.121 120.668C225.562 120.423 227.198 120.918 227.987 122.138C228.649 123.162 228.649 124.534 229.413 125.485C229.952 126.166 230.79 126.524 231.505 127.019C232.088 127.4 232.58 127.905 232.946 128.498C233.312 129.091 233.542 129.757 233.622 130.449C233.68 131.144 233.516 131.84 233.153 132.436C232.79 133.032 232.248 133.498 231.603 133.766L225.13 132.717L218.579 127.729L220.358 122.8Z" fill="#263238"/>
<path d="M233.729 124.866C233.741 124.768 233.782 124.676 233.847 124.602C233.937 124.495 234.051 124.409 234.179 124.351C234.307 124.294 234.446 124.265 234.587 124.269C234.791 124.264 234.993 124.317 235.17 124.42C235.381 124.552 235.551 124.741 235.66 124.964C235.898 125.504 235.917 126.116 235.714 126.67C235.483 127.342 235.03 127.916 234.43 128.296C234.087 128.519 233.7 128.664 233.296 128.723C232.891 128.781 232.479 128.751 232.088 128.634C231.656 128.508 231.257 128.29 230.918 127.993C230.58 127.697 230.31 127.331 230.128 126.919C229.745 126.042 229.848 125.048 229.922 124.112C230.075 123.213 229.98 122.29 229.647 121.441C229.28 120.68 228.67 120.063 227.913 119.687C227.223 119.348 226.453 119.207 225.688 119.28C225.02 119.338 224.371 119.527 223.777 119.839C222.91 120.31 222.169 120.982 221.616 121.799C221.219 122.367 221.058 122.72 221.038 122.71C221.059 122.617 221.093 122.528 221.141 122.446C221.258 122.202 221.391 121.967 221.538 121.74C222.076 120.892 222.817 120.191 223.694 119.702C224.299 119.369 224.966 119.162 225.654 119.094C226.457 119.01 227.268 119.151 227.996 119.501C228.806 119.894 229.46 120.548 229.853 121.358C230.209 122.245 230.314 123.213 230.157 124.156C230.079 125.102 229.99 126.047 230.338 126.846C230.506 127.227 230.756 127.566 231.069 127.841C231.382 128.115 231.752 128.317 232.151 128.434C232.511 128.544 232.89 128.575 233.263 128.525C233.636 128.475 233.994 128.345 234.312 128.144C234.878 127.793 235.31 127.262 235.537 126.635C235.739 126.125 235.739 125.558 235.537 125.048C235.447 124.85 235.305 124.681 235.126 124.558C234.969 124.461 234.79 124.409 234.606 124.406C234.477 124.398 234.348 124.418 234.228 124.463C234.107 124.509 233.997 124.579 233.905 124.67C233.842 124.731 233.783 124.797 233.729 124.866Z" fill="#263238"/>
<path d="M183.329 182.771C180.57 183.261 167.237 178.219 157.638 176.945C155.394 176.646 151.675 179.071 150.881 179.017C147.142 178.758 145.555 170.197 150.092 167.125C154.992 163.818 184.392 169.938 184.392 169.938C184.392 169.938 189.228 171.927 188.768 177.2C188.292 182.859 183.329 182.771 183.329 182.771Z" fill="#EB996E"/>
<path d="M147.886 169.787L137.542 209.722C137.542 209.722 144.667 211.584 144.892 211.996C145.049 212.304 158.739 173.913 158.45 174.731L147.886 169.787Z" fill="#EB996E"/>
<path d="M138.204 208.834C138.204 208.834 131.064 207.315 132.324 208.471C133.583 209.628 144.294 213.817 144.294 213.817L144.882 211.789L138.204 208.834Z" fill="#EB996E"/>
<path d="M219.52 141.534C218.412 139.574 213.674 138.344 213.674 138.344L205.976 136.179L203.526 135.914C201.772 135.527 197.592 135.561 193.476 142.681C185.695 156.136 171.696 140.907 171.696 140.907C171.295 140.165 170.966 139.385 170.716 138.58C170.585 138.18 170.523 137.76 170.534 137.34C170.526 136.817 170.59 136.296 170.725 135.792C170.897 135.341 170.431 134.914 170.064 135.155C169.696 135.395 169.197 136.625 169.304 138.163C169.412 139.702 167.746 137.928 167.129 137.291C166.511 136.654 164.488 134.753 164.15 134.802C163.66 134.856 163.601 135.409 164.233 136.032C164.865 136.654 166.629 138.658 166.276 138.972C165.923 139.285 162.846 135.988 162.846 135.988C162.846 135.988 162.297 135.174 161.866 135.498C161.112 136.12 164.664 139.378 165.012 139.677C165.252 139.888 164.88 140.241 164.635 140.001C164.39 139.761 161.616 136.644 160.842 137.271C160.244 137.761 163.738 139.976 163.954 140.941C164.169 141.907 161.474 138.981 160.925 139.471C160.72 139.653 160.592 139.814 162.395 141.265C163.704 142.242 165.065 143.147 166.472 143.975C168.045 147.106 173.651 156.225 185.715 156.127C192.183 156.087 196.593 152.148 199.493 147.797L210.043 150.34L214.972 153.03C214.972 153.03 220.627 143.499 219.52 141.534Z" fill="#FFBE9D"/>
<path d="M212.37 136.996L227.447 138.344L215.776 130.891C215.776 130.891 217.819 127.044 218.52 125.966C218.662 125.741 237.963 136.746 239.825 138.344C241.594 139.863 240.834 145.586 235.782 145.757C230.73 145.929 217.162 145.757 217.162 145.757L212.37 136.996Z" fill="#FFBE9D"/>
<path d="M206.123 138.093C206.535 137.353 207.892 132.169 207.892 132.169C207.892 132.169 204.991 130.802 205.849 127.759C206.706 124.716 209.279 117.886 209.279 117.886L215.698 117.111L219.471 123.54L214.027 138.402L206.123 138.093Z" fill="#FFBE9D"/>
<path d="M208.137 123.105C208.11 123.181 208.107 123.263 208.127 123.341C208.147 123.419 208.19 123.489 208.25 123.542C208.31 123.596 208.385 123.63 208.464 123.641C208.544 123.653 208.625 123.64 208.697 123.605C208.77 123.57 208.83 123.515 208.871 123.446C208.912 123.376 208.931 123.297 208.927 123.217C208.923 123.136 208.895 123.059 208.846 122.995C208.798 122.931 208.732 122.882 208.656 122.855C208.606 122.837 208.552 122.83 208.499 122.833C208.445 122.836 208.393 122.849 208.345 122.872C208.296 122.895 208.253 122.928 208.218 122.968C208.182 123.008 208.154 123.055 208.137 123.105Z" fill="#263238"/>
<path d="M207.911 122.56C207.945 122.623 208.313 122.481 208.729 122.604C209.146 122.726 209.391 123.03 209.45 122.991C209.508 122.952 209.45 122.863 209.361 122.726C209.221 122.543 209.025 122.411 208.803 122.349C208.582 122.287 208.346 122.297 208.132 122.378C207.97 122.447 207.896 122.53 207.911 122.56Z" fill="#263238"/>
<path d="M212.567 124.649C212.54 124.725 212.537 124.807 212.557 124.884C212.577 124.962 212.62 125.032 212.68 125.086C212.74 125.139 212.814 125.174 212.894 125.185C212.973 125.196 213.055 125.184 213.127 125.149C213.199 125.114 213.26 125.058 213.301 124.989C213.342 124.92 213.361 124.84 213.357 124.76C213.352 124.68 213.324 124.603 213.276 124.538C213.228 124.474 213.162 124.426 213.086 124.399C212.984 124.364 212.872 124.371 212.775 124.418C212.678 124.464 212.603 124.547 212.567 124.649Z" fill="#263238"/>
<path d="M212.479 124.148C212.508 124.217 212.876 124.075 213.292 124.192C213.709 124.31 213.954 124.619 214.017 124.579C214.081 124.54 214.017 124.457 213.924 124.315C213.782 124.135 213.586 124.005 213.366 123.942C213.145 123.878 212.909 123.888 212.694 123.972C212.533 124.036 212.459 124.119 212.479 124.148Z" fill="#263238"/>
<path d="M209.779 127.108C209.539 127.09 209.303 127.031 209.083 126.932C209.02 126.912 208.959 126.886 208.902 126.853C208.862 126.828 208.828 126.794 208.804 126.753C208.78 126.712 208.767 126.666 208.765 126.618C208.776 126.454 208.843 126.298 208.956 126.177L209.524 125.413C209.982 124.736 210.509 124.109 211.097 123.541C210.712 124.264 210.253 124.944 209.725 125.57L209.147 126.319C209.064 126.398 209.005 126.498 208.975 126.608C208.975 126.667 209.039 126.716 209.147 126.76C209.549 126.947 209.794 127.074 209.779 127.108Z" fill="#263238"/>
<path d="M212.077 126.496C211.969 126.839 212.41 127.265 213.057 127.5C213.704 127.735 214.296 127.696 214.434 127.363C214.571 127.03 214.164 126.52 213.503 126.275C212.841 126.03 212.17 126.153 212.077 126.496Z" fill="#EB996E"/>
<path d="M211.068 127.97C211.107 127.946 209.598 128.254 208.774 127.97C208.852 128.232 209.015 128.46 209.239 128.616C209.462 128.773 209.732 128.849 210.004 128.833C210.259 128.856 210.513 128.779 210.712 128.618C210.91 128.457 211.038 128.224 211.068 127.97Z" fill="white"/>
<path d="M207.892 132.168C209.329 132.598 210.858 132.612 212.302 132.207C212.302 132.207 210.641 134.089 207.687 132.923L207.892 132.168Z" fill="#EB996E"/>
<path d="M214.473 124.039C214.541 124.039 214.507 124.299 214.267 124.412C214.027 124.524 213.816 124.412 213.846 124.343C213.875 124.275 214.012 124.26 214.154 124.181C214.296 124.103 214.409 124.015 214.473 124.039Z" fill="#263238"/>
<path d="M217.863 120.052C216.021 121.551 212.257 122.438 209.9 122.129C210.297 121.83 211.988 121.34 212.385 121.042C211.081 121.532 209.249 122.203 207.906 121.821C207.741 121.792 207.59 121.707 207.48 121.581C207.431 121.48 207.403 121.37 207.399 121.257C207.395 121.145 207.414 121.033 207.455 120.929C207.781 119.802 208.211 118.708 208.739 117.661C209.157 116.796 209.862 116.103 210.733 115.701C211.846 115.245 213.125 115.48 214.271 115.843C215.253 116.105 216.162 116.59 216.927 117.259C217.306 117.596 217.595 118.023 217.766 118.501C217.938 118.978 217.986 119.492 217.907 119.993" fill="#263238"/>
<path d="M216.287 119.478C216.287 119.478 213.979 123.28 216.507 126.828C216.507 126.828 215.096 130.375 216.105 132.708C216.105 132.708 218.487 129.028 219.183 127.367C219.878 125.706 223.593 120.017 217.781 118.547L216.287 119.478Z" fill="#263238"/>
<path d="M214.909 153.245C214.909 153.245 214.15 147.816 210.009 146.953C207.701 146.463 204.129 148.727 204.129 148.727L202.718 146.625C202.437 146.195 202.057 145.839 201.609 145.589C201.16 145.338 200.658 145.199 200.145 145.185C199.632 145.17 199.122 145.28 198.661 145.506C198.199 145.731 197.799 146.064 197.495 146.478C196.025 148.595 196.843 151.412 196.843 151.412L196.172 158.919L188.964 170.263C191.365 170.865 193.805 171.586 196.196 172.272L195.51 185.33C208.211 187.133 209.407 177.167 209.299 172.561L210.7 162.403L214.909 153.245Z" fill="#750A79"/>
<g opacity="0.2">
<path d="M204.398 160.722C201.747 160.267 199.129 159.643 196.558 158.855C197.89 159.042 199.209 159.312 200.507 159.664C201.825 159.933 203.125 160.287 204.398 160.722Z" fill="black"/>
</g>
<g opacity="0.4">
<path d="M214.909 153.073C214.856 153.125 214.787 153.158 214.713 153.166C214.607 153.176 214.501 153.162 214.401 153.127C214.301 153.091 214.21 153.034 214.135 152.96C213.914 152.722 213.747 152.44 213.645 152.132C213.571 151.96 213.459 151.808 213.316 151.686C213.153 151.556 212.959 151.472 212.753 151.441C212.259 151.395 211.762 151.436 211.283 151.564C210.681 151.687 210.055 151.59 209.519 151.289C208.962 150.95 208.434 150.565 207.941 150.138C207.447 149.684 206.812 149.412 206.143 149.368C205.472 149.459 204.829 149.697 204.261 150.064C203.683 150.405 203.021 150.575 202.35 150.554C201.74 150.526 201.15 150.326 200.65 149.976C200.245 149.655 199.871 149.297 199.533 148.908C199.257 148.601 198.924 148.351 198.553 148.173C198.272 148.044 197.964 147.987 197.656 148.006C197.392 148.04 197.142 148.147 196.936 148.315C196.97 148.251 197.019 148.196 197.078 148.153C197.24 148.022 197.434 147.937 197.641 147.908C197.974 147.865 198.312 147.911 198.621 148.041C199.017 148.214 199.374 148.465 199.67 148.78C200.01 149.153 200.382 149.496 200.782 149.805C201.256 150.112 201.805 150.282 202.37 150.295C203 150.301 203.619 150.131 204.158 149.805C204.756 149.412 205.437 149.162 206.148 149.074C206.876 149.116 207.568 149.407 208.108 149.898C208.588 150.319 209.101 150.703 209.641 151.044C210.133 151.327 210.711 151.423 211.268 151.314C211.774 151.189 212.299 151.157 212.816 151.221C213.051 151.263 213.271 151.366 213.453 151.52C213.606 151.664 213.727 151.839 213.806 152.034C213.894 152.332 214.043 152.609 214.242 152.847C214.305 152.916 214.38 152.971 214.464 153.01C214.549 153.049 214.64 153.07 214.732 153.073C214.84 153.107 214.904 153.058 214.909 153.073Z" fill="white"/>
</g>
<g opacity="0.4">
<path d="M213.224 157.033C213.133 156.8 213.021 156.575 212.891 156.362C212.7 156.086 212.454 155.851 212.169 155.672C211.885 155.494 211.567 155.375 211.235 155.323C210.778 155.262 210.314 155.344 209.907 155.558C209.435 155.833 208.943 156.074 208.437 156.279C207.825 156.458 207.17 156.425 206.58 156.185C206.268 156.061 205.98 155.882 205.732 155.656C205.495 155.419 205.277 155.164 205.08 154.892C204.894 154.631 204.675 154.396 204.429 154.191C204.192 154.006 203.912 153.883 203.615 153.833C203.031 153.767 202.44 153.834 201.885 154.029C201.366 154.211 200.833 154.355 200.293 154.461C199.8 154.549 199.292 154.501 198.823 154.323C198.44 154.164 198.126 153.874 197.936 153.505C197.814 153.242 197.635 153.01 197.412 152.824C197.272 152.717 197.097 152.665 196.922 152.677C196.799 152.677 196.745 152.736 196.735 152.726C196.726 152.716 196.78 152.662 196.912 152.628C197.009 152.608 197.11 152.608 197.207 152.628C197.305 152.647 197.398 152.685 197.48 152.741C197.97 152.986 198.073 153.873 198.901 154.157C199.337 154.308 199.805 154.341 200.259 154.255C200.788 154.14 201.308 153.989 201.817 153.804C202.406 153.591 203.037 153.518 203.659 153.588C203.997 153.642 204.315 153.781 204.585 153.99C204.848 154.208 205.082 154.458 205.281 154.735C205.469 154.996 205.677 155.242 205.903 155.47C206.23 155.766 206.625 155.974 207.054 156.076C207.482 156.178 207.929 156.17 208.353 156.053C208.859 155.859 209.35 155.63 209.823 155.367C210.27 155.142 210.776 155.065 211.269 155.147C211.62 155.208 211.954 155.343 212.249 155.543C212.544 155.743 212.793 156.004 212.979 156.308C213.079 156.472 213.153 156.651 213.2 156.837C213.215 156.901 213.223 156.967 213.224 157.033Z" fill="white"/>
</g>
<g opacity="0.4">
<path d="M211.381 161.325C211.209 161.18 211.009 161.072 210.793 161.007C210.184 160.904 209.558 161.002 209.01 161.286C208.604 161.466 208.172 161.577 207.731 161.615C207.199 161.625 206.68 161.452 206.261 161.125C205.369 160.488 204.84 159.385 203.938 158.64C203.73 158.453 203.487 158.309 203.223 158.215C202.959 158.122 202.679 158.081 202.399 158.096C201.868 158.167 201.349 158.316 200.861 158.537C200.395 158.745 199.898 158.875 199.391 158.924C198.939 158.942 198.49 158.837 198.092 158.621C197.544 158.296 197.061 157.872 196.666 157.371C196.509 157.202 196.372 157.014 196.26 156.812C196.435 156.963 196.599 157.127 196.75 157.303C197.16 157.765 197.646 158.156 198.185 158.459C198.556 158.649 198.97 158.737 199.386 158.714C199.869 158.652 200.339 158.518 200.782 158.317C201.291 158.074 201.833 157.909 202.39 157.827C203.017 157.791 203.633 158.004 204.105 158.42C204.554 158.815 204.958 159.259 205.31 159.743C205.628 160.177 206 160.569 206.417 160.909C206.784 161.216 207.243 161.388 207.721 161.399C208.142 161.367 208.555 161.269 208.946 161.11C209.282 160.974 209.635 160.882 209.994 160.835C210.271 160.8 210.551 160.823 210.818 160.904C210.987 160.958 211.141 161.05 211.268 161.174C211.357 161.262 211.386 161.321 211.381 161.325Z" fill="white"/>
</g>
<g opacity="0.4">
<path d="M210.145 167.914C210.082 167.926 210.017 167.926 209.954 167.914C209.768 167.904 209.586 167.861 209.415 167.786C208.811 167.471 208.304 166.998 207.945 166.419C207.691 166.046 207.391 165.705 207.053 165.405C206.654 165.089 206.173 164.895 205.667 164.846C204.579 164.694 203.408 165.111 202.129 165.336C201.499 165.469 200.848 165.469 200.218 165.336C199.612 165.213 199.071 164.875 198.694 164.386C198.403 163.935 198.157 163.458 197.959 162.96C197.789 162.546 197.531 162.173 197.204 161.867C196.716 161.433 196.093 161.18 195.44 161.152C194.975 161.127 194.72 161.215 194.715 161.186C194.71 161.157 194.774 161.157 194.896 161.117C195.075 161.077 195.257 161.054 195.44 161.049C196.13 161.048 196.797 161.289 197.327 161.73C197.679 162.048 197.96 162.437 198.15 162.872C198.352 163.351 198.598 163.81 198.885 164.244C199.23 164.685 199.722 164.988 200.272 165.096C200.87 165.216 201.486 165.216 202.085 165.096C202.712 164.984 203.315 164.817 203.917 164.699C204.501 164.574 205.102 164.543 205.696 164.606C206.237 164.671 206.747 164.89 207.166 165.238C207.508 165.557 207.811 165.915 208.068 166.307C208.397 166.876 208.866 167.351 209.43 167.688C209.656 167.799 209.897 167.875 210.145 167.914Z" fill="white"/>
</g>
<g opacity="0.4">
<path d="M209.582 171.187C209.357 171.064 209.122 170.959 208.881 170.874C208.207 170.699 207.505 170.664 206.818 170.771C206.377 170.82 205.892 170.903 205.348 170.947C204.778 171.014 204.2 170.978 203.643 170.839C203.033 170.644 202.483 170.297 202.045 169.83C201.555 169.374 201.163 168.85 200.673 168.399C200.213 167.949 199.633 167.639 199.002 167.507C198.406 167.4 197.797 167.38 197.194 167.448C196.155 167.624 195.096 167.65 194.049 167.527C193.329 167.4 192.681 167.015 192.226 166.444C192.109 166.288 192.018 166.114 191.956 165.929C191.932 165.865 191.917 165.797 191.912 165.729C192.021 165.958 192.152 166.177 192.304 166.38C192.763 166.906 193.393 167.253 194.083 167.36C194.945 167.527 195.994 167.36 197.175 167.228C197.799 167.154 198.431 167.171 199.051 167.277C199.728 167.416 200.35 167.746 200.845 168.228C201.335 168.718 201.771 169.208 202.222 169.668C202.621 170.114 203.127 170.451 203.692 170.648C204.219 170.785 204.767 170.826 205.309 170.771C205.828 170.736 206.313 170.663 206.779 170.629C207.489 170.532 208.213 170.596 208.896 170.815C209.077 170.884 209.25 170.975 209.41 171.084C209.537 171.133 209.591 171.177 209.582 171.187Z" fill="white"/>
</g>
<g opacity="0.2">
<path d="M209.052 176.184C209.052 176.184 209.052 176.247 209.013 176.326C208.935 176.432 208.82 176.506 208.69 176.532C208.5 176.568 208.304 176.547 208.126 176.473C207.944 176.387 207.755 176.313 207.563 176.252C207.393 176.217 207.217 176.219 207.048 176.257C206.879 176.296 206.72 176.372 206.583 176.478C206.357 176.639 206.259 176.791 206.225 176.772C206.191 176.752 206.225 176.566 206.465 176.34C206.614 176.191 206.798 176.082 207 176.023C207.202 175.964 207.416 175.957 207.622 176.002C207.829 176.067 208.029 176.152 208.219 176.257C208.355 176.328 208.507 176.362 208.66 176.355C208.92 176.336 209.018 176.164 209.052 176.184Z" fill="white"/>
</g>
<g opacity="0.2">
<path d="M205.388 151.96C205.349 152.889 205.679 153.796 206.304 154.483C206.622 154.858 207.043 155.13 207.516 155.265C207.988 155.401 208.49 155.393 208.958 155.243C209.425 155.093 209.838 154.807 210.144 154.423C210.45 154.038 210.634 153.572 210.675 153.082C209.814 153.72 208.748 154.017 207.681 153.915C206.701 153.832 205.721 152.871 205.388 151.955" fill="black"/>
</g>
<path d="M210.699 153.082C210.516 153.348 210.264 153.558 209.969 153.69C209.275 154.066 208.469 154.177 207.699 154.003C206.93 153.829 206.249 153.382 205.785 152.744C205.575 152.497 205.437 152.197 205.388 151.877C205.427 151.877 205.564 152.2 205.927 152.632C206.394 153.2 207.037 153.597 207.755 153.759C208.473 153.922 209.224 153.84 209.891 153.528C210.381 153.293 210.645 153.048 210.699 153.082Z" fill="#263238"/>
<g opacity="0.2">
<path d="M201.841 171.779C204.173 172.333 205.932 172.896 207.113 174.474C208.583 176.41 208.735 178.478 208.181 179.536C207.569 180.702 207.035 182.623 203.948 184.333C206.148 182.863 206.854 179.433 206.324 177.081C206.029 175.915 205.472 174.831 204.695 173.912C203.918 172.993 202.942 172.264 201.841 171.779Z" fill="black"/>
</g>
<path d="M162.552 130.602L165.384 144.224L170.48 143.45L168.814 130.068L162.552 130.602Z" fill="#E0E0E0"/>
<path d="M165.826 142.96L169.594 142.425L168.56 132.792C168.546 132.664 168.49 132.543 168.402 132.449C168.314 132.355 168.198 132.291 168.07 132.268C167.056 132.101 164.64 131.778 164.15 132.18L163.881 132.434C163.802 132.506 163.744 132.597 163.711 132.699C163.678 132.8 163.673 132.908 163.695 133.013L165.826 142.96Z" fill="#750A79"/>
<g opacity="0.4">
<path d="M163.625 132.821C164.257 133.171 164.933 133.438 165.634 133.615C166.341 133.79 167.085 133.753 167.77 133.507C168.006 133.426 168.211 133.276 168.358 133.076C168.429 132.973 168.464 132.851 168.458 132.727C168.452 132.603 168.405 132.484 168.324 132.39C168.184 132.278 168.013 132.213 167.834 132.203L166.104 131.968C165.62 131.874 165.122 131.865 164.634 131.944C164.404 131.98 164.189 132.083 164.015 132.238C163.842 132.394 163.716 132.596 163.654 132.821" fill="white"/>
</g>
<g opacity="0.4">
<path d="M169.005 137.433C169.005 137.433 168.843 137.668 168.436 137.85C167.895 138.079 167.285 138.09 166.736 137.879C166.422 137.757 166.158 137.595 165.908 137.492C165.698 137.395 165.468 137.348 165.236 137.355C165.022 137.377 164.816 137.453 164.639 137.575C164.639 137.575 164.639 137.497 164.732 137.404C164.867 137.278 165.039 137.198 165.222 137.174C165.486 137.138 165.755 137.174 166.001 137.276C166.275 137.374 166.545 137.531 166.834 137.644C167.33 137.826 167.873 137.838 168.377 137.678C168.764 137.561 168.98 137.399 169.005 137.433Z" fill="white"/>
</g>
<g opacity="0.4">
<path d="M169.221 138.291C169.221 138.291 169.06 138.526 168.653 138.707C168.111 138.935 167.502 138.945 166.953 138.737C166.639 138.614 166.374 138.452 166.125 138.349C165.914 138.252 165.685 138.205 165.453 138.212C165.239 138.234 165.033 138.31 164.855 138.433C164.855 138.433 164.855 138.354 164.949 138.261C165.083 138.134 165.255 138.053 165.439 138.031C165.703 137.995 165.972 138.031 166.218 138.134C166.492 138.232 166.762 138.389 167.051 138.501C167.547 138.683 168.09 138.695 168.594 138.536C168.981 138.413 169.197 138.256 169.221 138.291Z" fill="white"/>
</g>
<path d="M166.717 133.051C166.688 132.934 165.737 127.397 165.737 127.397L168.878 125.613L169.368 126.495L166.83 127.857L167.496 133.14L166.717 133.051Z" fill="#263238"/>
<path d="M165.336 133.063C165.133 132.749 164.969 132.412 164.846 132.059C164.572 131.432 164.209 130.55 163.827 129.575C163.371 128.413 162.984 127.379 162.759 126.733L162.901 126.679C163.001 126.916 163.064 127.167 163.087 127.424C162.946 127.208 162.836 126.974 162.759 126.728L162.901 126.674C163.18 127.301 163.606 128.32 164.062 129.482C164.449 130.462 164.782 131.348 165.013 131.995C165.158 132.339 165.266 132.697 165.336 133.063Z" fill="#263238"/>
<path d="M158.485 130.203L161.195 124.617L167.462 126.004C167.462 126.004 164.89 126.273 165.012 128.297C165.012 128.297 162.498 127.278 161.656 129.547C161.641 129.547 160.284 128.253 158.485 130.203Z" fill="#455A64"/>
<path d="M161.284 124.484C161.584 126.179 161.716 127.899 161.676 129.62C161.482 128.78 161.374 127.923 161.353 127.062C161.246 126.207 161.223 125.344 161.284 124.484Z" fill="#263238"/>
<path d="M165.154 128.338C164.37 127.89 163.654 127.332 163.028 126.682C162.345 126.09 161.75 125.406 161.259 124.648C161.318 124.604 162.131 125.486 163.219 126.5C164.307 127.515 165.198 128.279 165.154 128.338Z" fill="#263238"/>
<path d="M201.752 171.694C201.752 171.694 170.285 165.152 165.056 168.69C164.159 169.312 163.425 170.141 162.915 171.106L137.925 207.253C137.925 207.253 130.203 204.244 131.403 205.783C132.604 207.322 143.874 214.044 143.874 214.044L145.314 212.084C150.351 206.621 165.586 189.466 171.603 182.684C181.28 183.846 197.774 185.909 200.586 185.384C200.586 185.384 205.893 185.482 206.417 179.426C206.932 173.82 201.752 171.694 201.752 171.694Z" fill="#FFBE9D"/>
<path d="M196.764 89.8775L278.02 69.4004L289.967 73.8937L335.733 135.839C335.733 135.839 302.079 121.409 289.8 131.684C289.8 131.684 271.587 108.203 241.417 115.514C241.417 115.514 230.966 93.3761 196.764 89.8775Z" fill="#750A79"/>
<path opacity="0.2" d="M196.764 89.8775L278.02 69.4004L289.967 73.8937L335.733 135.839C335.733 135.839 302.079 121.409 289.8 131.684C289.8 131.684 271.587 108.203 241.417 115.514C241.417 115.514 230.966 93.3761 196.764 89.8775Z" fill="black"/>
<path d="M249.934 214.322C249.586 214.248 255.118 187.93 262.277 155.556C269.436 123.182 275.507 96.9765 275.869 97.0549C276.232 97.1333 270.685 123.441 263.521 155.855C256.357 188.268 250.277 214.4 249.934 214.322Z" fill="#263238"/>
<path d="M263.883 95.8643C264.157 95.6438 268.504 100.72 273.585 107.193C273.649 107.281 273.717 107.37 273.781 107.448L273.07 107.237C280.724 104.621 286.962 102.783 287.075 103.111C287.187 103.44 281.136 105.811 273.487 108.443L273.056 108.59L272.776 108.237L272.58 107.982C267.499 101.509 263.618 96.0799 263.883 95.8643Z" fill="#263238"/>
<path d="M335.733 135.838C307.254 105.923 295.469 112.083 295.469 112.083C279.373 86.2645 249.409 98.8967 249.409 98.8967C235.199 80.6393 196.773 89.8758 196.773 89.8758L277.256 69.3301L289.996 73.892L335.733 135.838Z" fill="#750A79"/>
<path d="M296.297 119.21C296.087 119.239 294.411 109.111 292.544 96.5964C290.677 84.0818 289.339 73.8947 289.55 73.8653C289.761 73.8359 291.442 83.9593 293.304 96.4837C295.166 109.008 296.508 119.176 296.297 119.21Z" fill="#263238"/>
<path d="M278.019 69.4004C277.674 69.9136 277.275 70.3884 276.828 70.8165C276.025 71.6887 274.868 72.9431 273.398 74.4817C270.458 77.5589 266.426 81.7925 261.923 86.4426C257.42 91.0927 253.304 95.2626 250.28 98.2565C248.771 99.7265 247.536 100.942 246.669 101.755C246.244 102.203 245.774 102.607 245.268 102.96C245.61 102.446 246.007 101.971 246.453 101.544C247.257 100.667 248.413 99.4178 249.883 97.8792C252.823 94.802 256.861 90.5684 261.364 85.9134C265.867 81.2584 269.983 77.0934 273.002 74.1044C274.516 72.6344 275.75 71.4192 276.618 70.6058C277.038 70.1529 277.508 69.7485 278.019 69.4004Z" fill="#263238"/>
<path d="M275.869 96.5302C276.212 96.6135 275.379 101.322 274.002 107.046C272.625 112.769 271.513 118.262 271.17 118.178C270.827 118.095 271.66 112.499 273.017 106.771C274.375 101.043 275.526 96.4567 275.869 96.5302Z" fill="#263238"/>
<path d="M97.117 215.837C93.687 211.265 89.767 206.83 84.7641 204.077C79.8935 201.386 74.2095 200.436 68.6382 200.48C63.0669 200.524 57.5593 201.524 52.0762 202.518C54.3767 205.38 57.2563 207.723 60.5261 209.393C63.7959 211.064 67.382 212.024 71.049 212.211L72.4112 210.251C72.3426 211.647 72.2789 213.039 72.2103 214.43C80.4893 215.406 88.8465 215.532 97.1513 214.808" fill="#750A79"/>
<path opacity="0.2" d="M97.117 215.837C93.687 211.265 89.767 206.83 84.7641 204.077C79.8935 201.386 74.2095 200.436 68.6382 200.48C63.0669 200.524 57.5593 201.524 52.0762 202.518C54.3767 205.38 57.2563 207.723 60.5261 209.393C63.7959 211.064 67.382 212.024 71.049 212.211L72.4112 210.251C72.3426 211.647 72.2789 213.039 72.2103 214.43C80.4893 215.406 88.8465 215.532 97.1513 214.808" fill="black"/>
<path d="M59.4355 206.051C59.9308 205.867 60.4453 205.741 60.9692 205.674C62.3856 205.42 63.8186 205.271 65.2567 205.228C70.0086 205.123 74.747 205.773 79.2952 207.153C83.8247 208.531 88.2399 210.259 92.5007 212.323C94.1373 213.102 95.4407 213.754 96.3521 214.214C96.8359 214.426 97.2972 214.685 97.729 214.988C97.2219 214.847 96.7296 214.656 96.259 214.42L92.339 212.705C88.0522 210.76 83.6445 209.094 79.1433 207.717C74.6438 206.36 69.9713 205.661 65.2714 205.644C63.8485 205.653 62.4271 205.738 61.0133 205.899C60.4924 205.992 59.9647 206.043 59.4355 206.051Z" fill="#263238"/>
<path d="M97.8572 215.939C100.155 212.057 101.414 207.649 101.513 203.138C101.611 198.628 100.546 194.169 98.4207 190.19C97.3982 192.398 96.3757 194.611 95.3533 196.829C96.5979 189.519 92.9326 182.046 87.5525 176.945C82.1722 171.844 75.2632 168.703 68.4424 165.842C67.0162 176.155 69.1233 186.647 74.4205 195.609C79.6978 204.473 88.2042 212.343 97.8768 215.939" fill="#750A79"/>
<path d="M77.5902 177.635C77.7372 177.557 82.4559 185.965 88.1399 196.407C93.8239 206.849 98.3172 215.385 98.1751 215.463C98.033 215.542 93.3094 207.133 87.6254 196.687C81.9414 186.24 77.4481 177.709 77.5902 177.635Z" fill="#263238"/>
<path d="M295.165 200.068C293.462 199.268 291.547 199.035 289.702 199.401C288.722 199.568 287.673 199.862 287.002 200.607C286.331 201.351 286.198 202.665 286.972 203.307C287.474 203.643 288.077 203.795 288.678 203.738C290.118 203.738 291.725 203.463 292.877 204.336C293.538 204.826 293.975 205.654 294.763 205.899C295.157 205.99 295.571 205.95 295.94 205.786C296.31 205.621 296.616 205.341 296.812 204.987C297.186 204.263 297.268 203.423 297.042 202.64C296.949 202.096 296.731 201.58 296.405 201.134C296.08 200.688 295.655 200.323 295.165 200.068Z" fill="#750A79"/>
<path d="M298.978 192.716C297.959 194.186 295.984 193.696 295.058 192.804C294.132 191.912 293.755 190.633 293.402 189.408C292.599 186.605 291.785 183.67 292.383 180.818C292.529 179.955 292.909 179.149 293.481 178.486C293.771 178.159 294.142 177.915 294.556 177.777C294.971 177.639 295.415 177.613 295.842 177.702C296.822 177.962 297.459 178.942 297.905 179.868C299.227 182.609 299.922 185.61 299.939 188.653C299.939 190.07 299.777 191.554 298.959 192.72" fill="#750A79"/>
<path d="M301.77 194.798C301.247 194.116 300.899 193.317 300.756 192.469C300.612 191.622 300.678 190.753 300.947 189.937C301.504 188.306 302.501 186.861 303.828 185.762C305.332 184.422 307.083 183.388 308.983 182.719C309.718 182.421 310.509 182.286 311.301 182.322C311.699 182.345 312.086 182.464 312.427 182.67C312.769 182.876 313.055 183.162 313.261 183.503C313.805 184.537 313.285 185.791 312.722 186.816C311.73 188.621 310.598 190.346 309.336 191.975C308.322 193.284 307.155 194.572 305.612 195.165C304.068 195.758 302.456 195.69 301.638 194.616" fill="#750A79"/>
<path d="M299.047 214.621C298.994 214.405 298.963 214.183 298.954 213.96C298.91 213.47 298.851 212.877 298.778 212.157C298.689 211.27 298.555 210.389 298.376 209.516C298.132 208.452 297.805 207.41 297.396 206.399C297.001 205.389 296.465 204.441 295.803 203.582C295.265 202.88 294.577 202.308 293.789 201.906C293.255 201.642 292.683 201.464 292.094 201.377C291.872 201.371 291.652 201.34 291.438 201.284C291.66 201.257 291.886 201.257 292.109 201.284C292.72 201.331 293.317 201.487 293.873 201.744C294.703 202.133 295.432 202.71 295.999 203.43C296.688 204.301 297.243 205.271 297.646 206.306C298.056 207.333 298.376 208.394 298.601 209.476C298.772 210.36 298.888 211.254 298.949 212.152C299.008 212.916 299.032 213.534 299.042 213.965C299.068 214.183 299.07 214.403 299.047 214.621Z" fill="#263238"/>
<path d="M298.924 213.236C298.909 213.134 298.909 213.03 298.924 212.928V212.055C298.924 211.296 298.924 210.193 298.885 208.836C298.821 206.121 298.586 202.373 298.135 198.252C297.684 194.131 297.077 190.412 296.528 187.761C296.395 187.095 296.268 186.497 296.141 185.973C296.013 185.448 295.925 184.993 295.827 184.625C295.729 184.258 295.68 183.998 295.626 183.773C295.596 183.674 295.578 183.572 295.572 183.469C295.615 183.562 295.649 183.659 295.675 183.758C295.744 183.978 295.827 184.248 295.93 184.596C296.033 184.944 296.16 185.409 296.293 185.933C296.425 186.458 296.572 187.056 296.714 187.722C297.468 191.189 298.034 194.694 298.409 198.223C298.86 202.348 299.066 206.112 299.086 208.831C299.086 210.193 299.086 211.281 299.037 212.055C299.037 212.413 298.997 212.702 298.983 212.932C298.972 213.035 298.952 213.137 298.924 213.236Z" fill="#263238"/>
<path d="M298.899 205.982C298.875 205.677 298.875 205.371 298.899 205.066C298.933 204.478 299.016 203.63 299.178 202.592C299.378 201.373 299.648 200.168 299.986 198.98C300.387 197.522 300.892 196.094 301.496 194.707C302.535 192.158 304.029 189.819 305.906 187.803C306.231 187.455 306.578 187.128 306.944 186.823C307.106 186.691 307.248 186.554 307.39 186.446L307.797 186.172C308.041 185.989 308.298 185.825 308.566 185.682C307.678 186.377 306.836 187.129 306.043 187.931C304.224 189.956 302.762 192.276 301.721 194.791C301.121 196.167 300.614 197.581 300.202 199.024C299.805 200.352 299.545 201.572 299.344 202.596C299.144 203.621 299.046 204.468 298.982 205.046C298.98 205.36 298.952 205.673 298.899 205.982Z" fill="#263238"/>
</svg>
