<svg width="24" height="24" viewBox="0 0 24 24" fill="none" xmlns="http://www.w3.org/2000/svg">
<path d="M19.5 19.75H15.5C15.09 19.75 14.75 19.41 14.75 19C14.75 18.59 15.09 18.25 15.5 18.25H19.5C19.91 18.25 20.25 18.59 20.25 19C20.25 19.41 19.91 19.75 19.5 19.75Z" fill="#292D32"/>
<path d="M12.1498 11.62C12.1198 11.62 12.0998 11.62 12.0698 11.62C12.0098 11.61 11.9498 11.62 11.8898 11.62C8.9898 11.53 6.7998 9.25 6.7998 6.44C6.7998 3.58 9.1298 1.25 11.9898 1.25C14.8498 1.25 17.1798 3.58 17.1798 6.44C17.1698 9.25 14.9698 11.53 12.1798 11.62C12.1698 11.62 12.1598 11.62 12.1498 11.62ZM11.9898 2.75C9.9598 2.75 8.2998 4.41 8.2998 6.44C8.2998 8.44 9.8598 10.05 11.8498 10.12C11.9098 10.11 12.0398 10.11 12.1698 10.12C14.1298 10.03 15.6698 8.42 15.6798 6.44C15.6798 4.41 14.0198 2.75 11.9898 2.75Z" fill="#292D32"/>
<path d="M11.9902 22.5597C9.95016 22.5597 8.02016 22.0297 6.56016 21.0497C5.17016 20.1197 4.41016 18.8497 4.41016 17.4797C4.41016 16.1097 5.18016 14.8497 6.56016 13.9297C9.55016 11.9297 14.4102 11.9297 17.4002 13.9297C17.7402 14.1597 17.8402 14.6297 17.6102 14.9697C17.3802 15.3197 16.9102 15.4097 16.5702 15.1797C14.0802 13.5197 9.88016 13.5197 7.39016 15.1797C6.43016 15.8197 5.91016 16.6297 5.91016 17.4797C5.91016 18.3297 6.43016 19.1597 7.39016 19.7997C8.60016 20.6097 10.2302 21.0497 11.9802 21.0497C12.3902 21.0497 12.7302 21.3897 12.7302 21.7997C12.7302 22.2097 12.4002 22.5597 11.9902 22.5597Z" fill="#292D32"/>
</svg>
