<svg width="34" height="34" viewBox="0 0 34 34" fill="none" xmlns="http://www.w3.org/2000/svg">
<path d="M7.08366 21.25C3.95283 21.25 1.41699 23.7858 1.41699 26.9167C1.41699 27.9792 1.71449 28.985 2.23866 29.835C3.21616 31.4783 5.01533 32.5833 7.08366 32.5833C9.15199 32.5833 10.9512 31.4783 11.9287 29.835C12.4528 28.985 12.7503 27.9792 12.7503 26.9167C12.7503 23.7858 10.2145 21.25 7.08366 21.25ZM9.87449 26.4492L6.85699 29.24C6.65866 29.4242 6.38949 29.5233 6.13449 29.5233C5.86533 29.5233 5.59616 29.4242 5.38366 29.2117L3.98116 27.8092C3.57033 27.3983 3.57033 26.7183 3.98116 26.3075C4.39199 25.8967 5.07199 25.8967 5.48283 26.3075L6.16283 26.9875L8.42949 24.8908C8.85449 24.4942 9.53449 24.5225 9.93116 24.9475C10.3278 25.3725 10.2995 26.0525 9.87449 26.4492Z" fill="#56006B"/>
<path d="M30.458 17.708H26.9163C25.358 17.708 24.083 18.983 24.083 20.5413C24.083 22.0997 25.358 23.3747 26.9163 23.3747H30.458C30.8547 23.3747 31.1663 23.063 31.1663 22.6663V18.4163C31.1663 18.0197 30.8547 17.708 30.458 17.708Z" fill="#56006B"/>
<path d="M23.4177 7.64957C23.8427 8.0604 23.4885 8.6979 22.8935 8.6979L11.1635 8.68374C10.4835 8.68374 10.1435 7.86207 10.6252 7.3804L13.1044 4.88707C15.201 2.80457 18.5869 2.80457 20.6835 4.88707L23.361 7.5929C23.3752 7.60707 23.4035 7.6354 23.4177 7.64957Z" fill="#56006B"/>
<path d="M30.9826 26.4353C30.1184 29.3537 27.6251 31.167 24.2251 31.167H15.0168C14.4643 31.167 14.1101 30.5578 14.3368 30.0478C14.7618 29.0562 15.0309 27.937 15.0309 26.917C15.0309 22.6245 11.5318 19.1253 7.23926 19.1253C6.16259 19.1253 5.11426 19.352 4.15092 19.777C3.62676 20.0037 2.98926 19.6495 2.98926 19.0828V17.0003C2.98926 13.147 5.31259 10.4553 8.92509 10.002C9.27926 9.94533 9.66176 9.91699 10.0584 9.91699H24.2251C24.5934 9.91699 24.9476 9.93116 25.2876 9.98783C28.1493 10.3137 30.2176 12.0562 30.9826 14.6487C31.1243 15.1162 30.7843 15.5837 30.3026 15.5837H27.0584C23.9843 15.5837 21.5476 18.3887 22.2134 21.5762C22.6809 23.8995 24.8343 25.5003 27.2001 25.5003H30.3026C30.7984 25.5003 31.1243 25.982 30.9826 26.4353Z" fill="#56006B"/>
</svg>
