<svg width="101" height="94" viewBox="0 0 101 94" fill="none" xmlns="http://www.w3.org/2000/svg">
<path d="M91.7902 94.8197L8.44122 94.9137C6.73257 94.9156 5.31404 93.5003 5.31212 91.7916C5.31019 90.0829 6.72553 88.6644 8.43418 88.6625L91.7831 88.5686C93.4918 88.5667 94.9103 89.982 94.9122 91.6906C94.9141 93.3993 93.4988 94.8178 91.7902 94.8197Z" fill="#E67EFF" fill-opacity="0.5"/>
<path d="M87.6232 94.8227L12.6091 94.9073C10.9005 94.9092 9.48195 93.4938 9.48002 91.7852L9.44715 62.6131C9.42189 40.1922 27.6131 21.9599 50.034 21.9347C72.4548 21.9094 90.6871 40.1006 90.7124 62.5215L90.7452 91.6936C90.7472 93.4023 89.3318 94.8208 87.6232 94.8227ZM15.7277 88.6526L84.4905 88.5751L84.4612 62.5285C84.4398 43.5667 69.0029 28.1645 50.041 28.1859C31.0791 28.2072 15.677 43.6441 15.6983 62.606L15.7277 88.6526Z" fill="#E67EFF" fill-opacity="0.5"/>
<path d="M50.026 15.6807C48.3173 15.6826 46.8988 14.2673 46.8969 12.5587L46.8922 8.39121C46.8903 6.68256 48.3056 5.26403 50.0143 5.2621C51.7229 5.26018 53.1414 6.67551 53.1434 8.38417L53.1481 12.5516C53.15 14.2603 51.7346 15.6788 50.026 15.6807Z" fill="#E67EFF" fill-opacity="0.5"/>
<path d="M20.8607 24.0426C20.0689 24.0435 19.2768 23.7526 18.651 23.1282L14.4788 18.9655C13.2689 17.7583 13.2666 15.7579 14.4738 14.548C15.681 13.3381 17.6814 13.3358 18.8913 14.543L23.0635 18.7057C24.2734 19.9129 24.2756 21.9133 23.0685 23.1232C22.444 23.7491 21.6526 24.0417 20.8607 24.0426Z" fill="#E67EFF" fill-opacity="0.5"/>
<path d="M79.206 23.9769C78.4142 23.9778 77.622 23.687 76.9962 23.0626C75.7863 21.8554 75.784 19.855 76.9912 18.6451L81.154 14.473C82.3612 13.263 84.3616 13.2608 85.5715 14.468C86.7814 15.6752 86.7836 17.6756 85.5765 18.8855L81.4137 23.0576C80.7893 23.6834 79.9978 23.9761 79.206 23.9769Z" fill="#E67EFF" fill-opacity="0.5"/>
</svg>