<svg width="100" height="77" viewBox="0 0 100 77" fill="none" xmlns="http://www.w3.org/2000/svg">
<path d="M28.4358 52.212C24.8308 51.9878 23.1406 49.6845 22.8674 46.5859H15.8857C16.0492 52.1769 18.9855 56.0031 23.9726 57.4096C25.3004 55.5449 26.7943 53.8052 28.4358 52.212Z" fill="#C02026"/>
<path d="M57.5098 29.8764L66.3227 17.5898H59.573L46.4929 35.148C45.697 36.1524 45.0503 37.2674 44.5731 38.4582C44.12 39.5826 43.8148 40.7615 43.665 41.9651C44.0867 41.8056 44.5066 41.6561 44.9249 41.5167C45.8255 41.211 46.7416 40.9531 47.6692 40.7439C48.5174 40.5561 49.3685 40.392 50.2226 40.2517C51.5373 37.574 54.2878 35.7554 57.5934 35.7554C61.0924 35.7554 63.9339 37.832 65.0915 40.8178C65.4819 40.9118 65.8724 40.9969 66.2603 41.1059C68.0372 41.5867 69.7786 42.191 71.4719 42.9144C71.0179 35.4724 65.0703 29.8313 57.5098 29.8764Z" fill="#131B42"/>
<path d="M80.0827 55.288C76.3623 51.0098 71.6498 47.7174 66.3614 45.7017C65.4883 45.3698 64.6014 45.0617 63.6883 44.7924C59.3557 43.5148 54.8103 43.1314 50.3262 43.6652H50.3112C48.7203 43.8536 47.1455 44.1604 45.5998 44.5833C45.1508 44.7085 44.7055 44.84 44.2639 44.9803C42.0595 45.6854 39.9269 46.5992 37.8947 47.7094C37.7787 47.772 37.6614 47.8284 37.5467 47.8922C34.7353 49.4537 32.1423 51.3821 29.8353 53.6272C28.1913 55.2192 26.6945 56.9576 25.3634 58.8211C25.3597 58.8254 25.3563 58.83 25.3534 58.8349C25.2611 58.9602 25.1513 59.0666 25.2025 59.2908C26.0432 59.2908 26.8865 59.2908 27.7309 59.2908C28.4345 59.2908 29.138 59.2908 29.8415 59.3046C30.0478 59.3179 30.254 59.2765 30.4393 59.1843C30.6246 59.0922 30.7824 58.9527 30.8968 58.7798C32.1541 57.0986 33.5702 55.5434 35.1255 54.1357C37.6772 51.8547 40.5538 49.969 43.6601 48.541C44.4186 48.1953 44.4273 48.2066 44.4273 49.0332C44.4273 49.4002 44.4273 49.7659 44.4273 50.1316C44.4273 52.7342 44.4273 55.336 44.4273 57.9369C44.4273 58.1248 44.3175 58.4379 44.5084 58.4805C44.9192 58.5677 45.3431 58.5723 45.7558 58.4942C46.0402 58.4329 45.888 58.0697 45.8892 57.848C45.8892 55.9994 45.8892 54.1495 45.8892 52.2996C45.8892 50.9157 45.8892 49.5317 45.8892 48.1477C45.8892 47.7783 45.9479 47.5603 46.357 47.4188C47.5928 46.9929 48.8523 46.6399 50.1291 46.3617C51.9303 45.9667 53.7604 45.7183 55.6014 45.619C56.1378 45.5902 56.3137 45.6954 56.3075 46.2766C56.285 48.6713 56.2912 51.0659 56.285 53.4606C56.285 54.3223 56.285 55.1828 56.275 56.0444C56.2675 56.707 56.5906 56.6607 57.0372 56.6707C57.4837 56.6807 57.7956 56.6957 57.7856 56.0444C57.7769 55.2567 57.7781 54.4689 57.7756 53.6811C57.7644 51.1912 57.7694 48.7013 57.7644 46.2102C57.7644 45.8482 57.7432 45.5977 58.2721 45.6328C60.9669 45.7921 63.6345 46.2633 66.2217 47.0368C66.7107 47.1871 67.1972 47.3437 67.6812 47.5203C68.0554 47.6568 68.1801 47.8271 68.1801 48.2241C68.1614 50.327 68.2001 52.4324 68.1602 54.5352C68.1502 55.0162 68.356 55.0776 68.613 55.0713C68.6965 55.0713 68.7851 55.06 68.8737 55.055C69.2229 55.0362 69.6795 55.2567 69.6633 54.5428C69.6633 54.2848 69.6633 54.0267 69.6633 53.7687C69.6421 52.1894 69.6558 50.6088 69.6545 49.0282C69.6545 48.3093 69.6545 48.3055 70.3094 48.6099C70.7893 48.8328 71.2616 49.0662 71.7265 49.31C74.973 51.0114 77.9022 53.2635 80.3846 55.9668C80.538 55.6149 80.2486 55.4708 80.0827 55.288Z" fill="#C02026"/>
<path d="M88.6069 57.9602C88.2404 57.3603 87.8436 56.7797 87.4181 56.2205C85.5208 53.7732 83.4801 51.4612 81.0963 49.4573C78.7126 47.4534 76.0893 45.8101 73.3089 44.4212C72.9346 44.2358 72.5604 44.0705 72.1787 43.9039C70.4854 43.1804 68.744 42.5761 66.9671 42.0954C66.5792 41.9864 66.1887 41.9012 65.7996 41.8073C63.3702 41.2235 60.8907 40.8754 58.395 40.7678C55.8989 40.6666 53.399 40.8261 50.9356 41.2437C50.0808 41.3831 49.2292 41.5472 48.381 41.7359C47.4534 41.9452 46.5374 42.2031 45.6367 42.5087C45.2209 42.649 44.801 42.7984 44.3768 42.9571C43.9145 43.1307 43.4484 43.3148 42.9785 43.5094C43.4076 43.5695 43.6259 43.4367 43.8517 43.3641C44.0139 43.3115 44.1798 43.2739 44.3419 43.2251C44.7735 43.0998 45.2039 42.9671 45.6392 42.8581C47.2723 42.4642 48.9314 42.1888 50.6038 42.034C50.8695 42.0077 51.134 41.9739 51.4009 41.9513C56.4648 41.5605 61.5534 42.2587 66.3272 43.9991C68.3272 44.7271 70.2591 45.6316 72.1001 46.7019C72.5342 46.9524 72.9646 47.2129 73.3912 47.4834C76.128 49.2218 78.5479 51.3172 80.7508 53.673C82.0207 55.032 83.0547 56.575 84.0614 58.1318C84.2635 58.4424 84.4768 58.5914 84.8635 58.5827C85.9948 58.5576 87.1287 58.5488 88.2601 58.5827C88.8701 58.6014 88.8302 58.3121 88.6069 57.9602Z" fill="#131B42"/>
<path d="M44.8095 23.8438L47.0698 17.8496H24.3448C22.8479 23.7211 19.8729 34.2818 18.1465 39.2553L23.9606 40.7895C25.4687 38.3786 27.3672 36.6564 30.9984 36.6564C35.1285 36.6564 36.9185 39.2352 36.9185 43.0928C36.9167 43.7749 36.8583 44.4557 36.7439 45.128L36.7538 45.1105C38.7527 44.0065 40.8303 43.0528 42.9696 42.2574C43.1188 41.0509 43.4241 39.869 43.8777 38.7418C42.7663 33.8797 39.0827 30.7261 33.6491 30.7261C30.4894 30.7261 28.3277 31.5189 26.4728 32.9429C27.119 30.9653 28.3751 26.6719 29.1535 23.8426L44.8095 23.8438Z" fill="#C02026"/>
</svg>
