<svg width="32" height="32" viewBox="0 0 32 32" fill="none" xmlns="http://www.w3.org/2000/svg">
<g clip-path="url(#clip0_681_5367)">
<path d="M19.7421 4.67748C21.0337 4.67748 22.0808 3.63039 22.0808 2.33874C22.0808 1.04709 21.0337 0 19.7421 0C18.4504 0 17.4033 1.04709 17.4033 2.33874C17.4033 3.63039 18.4504 4.67748 19.7421 4.67748Z" fill="black"/>
<path d="M22.2343 16.719C22.6325 16.1225 21.9702 15.6766 21.9702 15.6766L19.7505 14.0897C19.5581 13.9722 18.8 13.4469 18.3287 14.0431C17.9995 14.4746 18.081 14.9301 18.4629 15.2751L19.9511 16.3788C20.0051 16.42 20.0177 16.4988 19.9792 16.5546L19.1141 17.805C19.0753 17.8609 19.0189 17.9555 18.9903 18.0171C18.1913 19.7327 19.4125 20.3278 19.8088 20.4706C19.8729 20.4937 19.9814 20.5076 20.0493 20.5076C20.5012 20.5076 22.1222 20.5076 23.6392 20.5076C25.424 20.5076 25.3807 19.3871 25.3807 19.3871V15.9406C25.3807 15.9406 25.3807 15.9201 25.3807 15.8585C25.3807 15.7969 25.3295 15.0893 24.6115 15.0893C24.1075 15.0893 23.9698 15.572 23.969 15.7563C23.9594 15.8236 23.9652 15.934 23.9652 16.0021V17.3689C23.9652 17.437 23.9101 17.4921 23.842 17.4921H21.7722C21.7044 17.4921 21.6861 17.4512 21.7311 17.4003C21.9958 17.0698 22.1101 16.9052 22.2343 16.719Z" fill="black"/>
<path d="M27.5043 20.495C28.415 20.495 29.1532 19.7568 29.1532 18.8461C29.1532 17.9355 28.415 17.1973 27.5043 17.1973C26.5937 17.1973 25.8555 17.9355 25.8555 18.8461C25.8555 19.7568 26.5937 20.495 27.5043 20.495Z" fill="black"/>
<path d="M29.158 21.4002C29.158 21.0434 28.8688 20.7539 28.5117 20.7539H18.7879C18.431 20.7539 18.1416 21.0431 18.1416 21.4002C18.1416 21.757 18.4308 22.0465 18.7879 22.0465H28.5117C28.8685 22.0462 29.158 21.757 29.158 21.4002Z" fill="black"/>
<path d="M3.18602 20.7531H8.2514V30.5008C8.2514 31.3287 8.92247 32 9.75061 32C10.5787 32 11.2498 31.3287 11.2498 30.5008V20.7531H15.3159C15.6157 20.7531 15.7975 20.5162 15.7199 20.2265L13.3784 11.487C13.3008 11.1972 13.4455 10.8306 13.6998 10.6719L17.4721 8.3193L17.7476 11.1084L22.3668 14.6574C22.5402 14.7904 22.7446 14.855 22.9474 14.855C23.2337 14.855 23.5168 14.7266 23.7046 14.4824C24.0258 14.0645 23.9473 13.4656 23.5294 13.1446L19.5622 10.0965L19.2768 7.17772C19.2626 7.03816 19.2171 6.90977 19.1509 6.79586C19.1315 6.75744 19.1087 6.71981 19.0776 6.68463L19.0656 6.67101C19.0601 6.66445 19.0542 6.65847 19.0487 6.65191L15.1148 2.2031C14.916 1.97853 14.6031 1.98857 14.4194 2.22544L8.54803 9.3033C8.36434 9.54018 8.09719 9.94985 7.95461 10.2138L2.89977 20.2733C2.75753 20.5371 2.88614 20.7531 3.18602 20.7531Z" fill="black"/>
</g>
<defs>
<clipPath id="clip0_681_5367">
<rect width="32" height="32" fill="white"/>
</clipPath>
</defs>
</svg>
