<svg width="190" height="178" viewBox="0 0 190 178" fill="none" xmlns="http://www.w3.org/2000/svg">
<g filter="url(#filter0_f_188_1214)">
<g clip-path="url(#clip0_188_1214)">
<rect x="8.5" y="55.1875" width="117.806" height="113.629" rx="56.8144" fill="#BB7FCA" fill-opacity="0.2"/>
<path d="M21.772 181.412C24.2754 184.125 34.5869 179.394 42.7257 175.6C48.8244 172.766 73.23 162.752 85.3611 157.558C88.6365 156.157 93.4007 154.326 96.8305 149.816C99.8743 145.801 107.947 128.752 91.6913 111.481C75.193 93.9464 58.1984 98.7878 51.8461 103.287C48.1075 105.934 45.0637 111.9 43.6962 114.933C37.9174 127.748 29.6793 151.227 26.3267 160.458C23.8674 167.262 19.2906 178.721 21.772 181.412Z" fill="#FFC107"/>
<path d="M42.0638 118.797C42.2181 120.716 42.6041 123.837 43.9275 129.847C44.8319 133.972 46.3096 138.295 47.5117 141.151C51.118 149.742 56.18 153.205 61.3081 155.984C70.0205 160.704 75.9426 161.587 75.9426 161.587L68.8404 164.487C68.8404 164.487 64.5394 163.594 58.6724 160.704C53.081 157.947 47.2581 153.282 43.0012 144.151C41.1594 140.192 40.0897 136.354 39.4721 133.31C38.7112 129.538 38.5898 127.399 38.5898 127.399L42.0638 118.797Z" fill="#FF8F00"/>
<path d="M33.341 141.162C33.341 141.162 34.2233 148.319 40.1344 157.352C47.0602 167.917 56.732 169.648 56.732 169.648L50.3025 172.295C50.3025 172.295 43.1231 170.1 36.2966 160.781C32.0397 154.97 30.8486 148.022 30.8486 148.022L33.341 141.162Z" fill="#FF8F00"/>
<path d="M27.2195 158.123C27.2195 158.123 28.8296 164.299 32.3587 168.909C36.5605 174.412 41.9092 176.011 41.9092 176.011L36.9795 178.195C36.9795 178.195 33.241 177.412 29.1495 172.228C26.0395 168.291 25.1572 163.77 25.1572 163.77L27.2195 158.123Z" fill="#FF8F00"/>
<path opacity="0.44" d="M24.5391 173.803C24.3185 173.307 24.3185 172.744 24.5501 172.259L52.6391 114.008L57.26 131.377L27.7042 174.068C26.9102 175.259 25.1236 175.105 24.5391 173.803Z" fill="#FFFDE7"/>
<path d="M59.4881 137.212C72.6117 152.563 87.555 150.644 92.5288 146.762C97.5136 142.869 101.451 129.492 88.3822 114.394C74.685 98.5797 59.1793 103.09 55.5951 106.509C52.0109 109.928 47.4452 123.129 59.4881 137.212Z" fill="url(#paint0_linear_188_1214)"/>
<path d="M104.561 143.531C99.7746 139.517 97.227 140.234 93.8083 141.656C89.3969 143.487 82.4601 144.844 73.042 141.656L75.8763 134.83C81.4676 136.716 85.515 135.8 89.0109 133.738C93.5105 131.091 99.6643 127.463 109.237 135.503C113.229 138.855 117.321 141.083 120.32 140.068C122.504 139.34 123.662 136.087 124.246 133.495C124.301 133.264 124.39 132.602 124.456 132.018C124.985 127.97 125.867 119.236 132.374 114.769C139.333 109.994 146.645 109.994 146.645 109.994L147.968 123.14C144.605 122.644 142.267 123.327 140.292 124.419C132.859 128.555 139.333 144.435 127.764 149.773C116.637 154.945 107.538 146.024 104.561 143.531Z" fill="#03A9F4"/>
<path d="M63.6239 126.768L58.8376 122.478C67.6271 112.663 65.3112 105.45 63.6239 100.201C63.282 99.1423 62.9622 98.1387 62.7526 97.1792C62.0027 93.7825 61.8483 90.8269 62.0799 88.2463C58.7053 84.0445 57.2164 79.6442 57.1172 79.3465C55.0659 73.1376 56.6099 67.083 60.15 61.4035C67.3073 49.8789 80.2656 49.8789 80.2656 49.8789L84.5887 61.4476C81.3022 61.3152 70.5276 61.4807 67.2191 66.697C63.0394 73.2699 65.7854 77.3283 65.9839 77.7915C66.789 76.7438 67.6051 75.9057 68.333 75.255C73.6155 70.568 78.2033 69.8952 81.1258 70.1599C84.4122 70.4577 87.3898 72.1119 89.5183 74.8249C91.8453 77.8025 92.8047 81.6735 92.0658 85.1915C91.349 88.6213 89.0661 91.5217 85.6363 93.3634C79.648 96.5837 74.6632 96.1426 71.3216 95.0287C71.3437 95.1059 71.3547 95.1941 71.3768 95.2713C71.4981 95.8227 71.7407 96.5947 72.0274 97.488C73.9794 103.532 77.6077 113.126 63.6239 126.768ZM71.7297 85.379C72.3693 85.8421 73.042 86.2281 73.7368 86.5038C76.0528 87.4302 78.5782 87.1214 81.4456 85.5775C83.1329 84.6731 83.3314 83.7027 83.3976 83.3828C83.5961 82.4234 83.2653 81.1992 82.5484 80.2839C81.9198 79.4788 81.1919 79.0597 80.3207 78.9715C78.6665 78.8282 76.4277 79.8758 74.189 81.872C73.1192 82.8314 72.3031 84.0114 71.7297 85.379Z" fill="#F44336"/>
<path d="M82.7783 128.564L75.9297 128.376C75.9297 128.376 79.183 110.003 89.715 106.915C91.6891 106.342 93.8506 105.757 96.0232 105.437C97.3135 105.239 99.3538 104.941 100.357 104.566C100.589 102.835 99.8611 100.629 99.045 98.1256C98.4053 96.1847 97.7436 94.1885 97.3907 92.0049C96.707 87.748 97.8429 83.9874 100.589 81.3957C103.942 78.2527 109.356 77.2491 115.466 78.6387C118.951 79.4327 121.521 81.1421 123.781 82.6419C127.013 84.7924 128.899 85.8843 132.847 83.2264C137.622 80.0062 131.38 67.4008 128.06 60.1222L140.445 54.9609C142.11 58.6003 150.15 77.3263 144.845 88.0127C143.059 91.6079 139.982 93.99 135.946 94.8833C127.167 96.8464 122.028 93.4276 118.278 90.9352C116.503 89.7552 114.948 88.8288 113.26 88.3436C101.537 85.002 117.903 102.25 110.239 110.003C105.64 114.646 94.4021 115.87 93.6742 116.047C86.4396 117.789 82.7783 128.564 82.7783 128.564Z" fill="#F48FB1"/>
<path d="M62.0682 88.2461C61.8587 90.6723 61.7594 92.117 62.388 95.2711C65.4208 97.4988 72.0268 97.4988 72.0268 97.4988C71.74 96.6055 71.4864 95.8336 71.3761 95.2821C71.354 95.2049 71.343 95.1167 71.321 95.0395C64.6047 91.6869 62.0682 88.2461 62.0682 88.2461Z" fill="#C92B27"/>
<path d="M48.3281 99.1089L36.9248 93.5175L42.6044 85.3125L51.5483 91.2347L48.3281 99.1089Z" fill="#FFC107"/>
<path d="M31.5201 83.6273C25.6972 82.8443 19.764 77.9037 19.1133 77.3412L24.837 70.625C26.5684 72.0918 30.2408 74.5511 32.7001 74.8819L31.5201 83.6273Z" fill="#FB8C00"/>
<path d="M41.7975 68.9251L33.416 66.1791C34.3755 63.2455 34.6291 60.0804 34.1329 57.0256L42.8452 55.625C43.562 60.0584 43.1981 64.6572 41.7975 68.9251Z" fill="#03A9F4"/>
<path d="M94.1426 62.3672L102.761 60.4818L105.25 71.8586L96.6313 73.744L94.1426 62.3672Z" fill="#FB8C00"/>
<path d="M115.523 65.0634L109.457 58.656C112.633 55.6453 113.361 51.7082 113.361 51.6641L122.073 53.0867C121.963 53.7815 120.849 60.0235 115.523 65.0634Z" fill="#FFC107"/>
<path d="M118.894 99.0449L126.599 96.6368L129.231 105.058L121.525 107.466L118.894 99.0449Z" fill="#FB8C00"/>
<path d="M121.136 170.121L112.369 169.085C112.744 165.964 110.417 162.137 109.777 161.288L116.835 155.994C117.365 156.689 121.964 163.052 121.136 170.121Z" fill="#F44336"/>
<path d="M116.228 115.312L122.602 122.601L115.313 128.975L108.939 121.687L116.228 115.312Z" fill="#F44336"/>
</g>
</g>
<path d="M62.1021 131.533C64.6055 134.246 74.9169 129.515 83.0558 125.721C89.1544 122.887 113.56 112.873 125.691 107.679C128.967 106.278 133.731 104.447 137.161 99.9368C140.204 95.9225 148.277 78.8728 132.021 61.6025C115.523 44.0675 98.5285 48.9089 92.1762 53.4084C88.4376 56.0552 85.3938 62.0215 84.0263 65.0543C78.2475 77.8692 70.0093 101.348 66.6567 110.579C64.1974 117.384 59.6207 128.842 62.1021 131.533Z" fill="#FFC107"/>
<path d="M82.3938 68.916C82.5482 70.8349 82.9342 73.9559 84.2576 79.9664C85.1619 84.0909 86.6397 88.414 87.8418 91.2704C91.4481 99.8614 96.51 103.324 101.638 106.103C110.351 110.824 116.273 111.706 116.273 111.706L109.171 114.606C109.171 114.606 104.869 113.713 99.0024 110.823C93.4111 108.066 87.5882 103.401 83.3312 94.27C81.4895 90.3109 80.4198 86.473 79.8022 83.4292C79.0412 79.6576 78.9199 77.5181 78.9199 77.5181L82.3938 68.916Z" fill="#FF8F00"/>
<path d="M73.6711 91.2812C73.6711 91.2812 74.5534 98.4386 80.4645 107.471C87.3903 118.036 97.0621 119.767 97.0621 119.767L90.6326 122.414C90.6326 122.414 83.4532 120.219 76.6267 110.901C72.3698 105.089 71.1787 98.1408 71.1787 98.1408L73.6711 91.2812Z" fill="#FF8F00"/>
<path d="M67.5496 108.242C67.5496 108.242 69.1597 114.418 72.6888 119.028C76.8905 124.531 82.2393 126.13 82.2393 126.13L77.3096 128.314C77.3096 128.314 73.571 127.531 69.4795 122.347C66.3696 118.41 65.4873 113.889 65.4873 113.889L67.5496 108.242Z" fill="#FF8F00"/>
<path opacity="0.44" d="M64.8691 123.924C64.6486 123.428 64.6486 122.866 64.8802 122.38L92.9692 64.1289L97.5901 81.4985L68.0343 124.189C67.2402 125.38 65.4536 125.226 64.8691 123.924Z" fill="#FFFDE7"/>
<path d="M99.8181 87.3328C112.942 102.684 127.885 100.765 132.859 96.8833C137.844 92.9903 141.781 79.613 128.712 64.5153C115.015 48.7007 99.5093 53.2113 95.9251 56.6301C92.341 60.0489 87.7752 73.2497 99.8181 87.3328Z" fill="url(#paint1_linear_188_1214)"/>
<path d="M144.891 93.6522C140.105 89.6379 137.557 90.3548 134.138 91.7774C129.727 93.6081 122.79 94.9646 113.372 91.7774L116.206 84.9509C121.798 86.8368 125.845 85.9214 129.341 83.8591C133.841 81.2123 139.994 77.584 149.567 85.6237C153.559 88.9763 157.651 91.204 160.65 90.1894C162.834 89.4615 163.992 86.2082 164.576 83.6165C164.632 83.3849 164.72 82.7232 164.786 82.1387C165.315 78.0913 166.198 69.3569 172.704 64.8905C179.663 60.1152 186.975 60.1152 186.975 60.1152L188.298 73.261C184.935 72.7647 182.597 73.4484 180.623 74.5402C173.189 78.6758 179.663 94.5566 168.094 99.8943C156.967 105.067 147.869 96.1446 144.891 93.6522Z" fill="#03A9F4"/>
<path d="M103.954 76.8892L99.1677 72.5992C107.957 62.784 105.641 55.5715 103.954 50.3221C103.612 49.2634 103.292 48.2598 103.083 47.3003C102.333 43.9036 102.178 40.948 102.41 38.3674C99.0353 34.1656 97.5465 29.7653 97.4473 29.4676C95.396 23.2587 96.94 17.2041 100.48 11.5246C107.637 0 120.596 0 120.596 0L124.919 11.5687C121.632 11.4363 110.858 11.6018 107.549 16.8181C103.369 23.391 106.116 27.4494 106.314 27.9126C107.119 26.8649 107.935 26.0268 108.663 25.3761C113.946 20.6891 118.533 20.0163 121.456 20.281C124.742 20.5788 127.72 22.233 129.848 24.946C132.175 27.9236 133.135 31.7945 132.396 35.3126C131.679 38.7424 129.396 41.6428 125.966 43.4845C119.978 46.7048 114.993 46.2637 111.652 45.1498C111.674 45.227 111.685 45.3152 111.707 45.3924C111.828 45.9438 112.071 46.7158 112.358 47.6091C114.31 53.6526 117.938 63.2472 103.954 76.8892ZM112.06 35.5C112.699 35.9632 113.372 36.3492 114.067 36.6249C116.383 37.5513 118.908 37.2425 121.776 35.6986C123.463 34.7942 123.662 33.8237 123.728 33.5039C123.926 32.5445 123.595 31.3203 122.878 30.405C122.25 29.5999 121.522 29.1808 120.651 29.0926C118.997 28.9492 116.758 29.9969 114.519 31.9931C113.449 32.9525 112.633 34.1325 112.06 35.5Z" fill="#F44336"/>
<path d="M123.108 78.6848L116.26 78.4973C116.26 78.4973 119.513 60.1242 130.045 57.0363C132.019 56.4628 134.181 55.8783 136.353 55.5585C137.644 55.36 139.684 55.0622 140.687 54.6873C140.919 52.9558 140.191 50.7502 139.375 48.2467C138.735 46.3058 138.074 44.3096 137.721 42.126C137.037 37.8691 138.173 34.1085 140.919 31.5168C144.272 28.3738 149.687 27.3702 155.796 28.7598C159.281 29.5538 161.851 31.2632 164.111 32.763C167.343 34.9135 169.229 36.0053 173.177 33.3475C177.952 30.1273 171.71 17.5219 168.39 10.2433L180.775 5.08203C182.44 8.72137 190.48 27.4474 185.176 38.1338C183.389 41.729 180.312 44.1111 176.276 45.0044C167.497 46.9675 162.358 43.5487 158.608 41.0563C156.833 39.8763 155.278 38.9499 153.591 38.4646C141.867 35.1231 158.233 52.3713 150.569 60.1242C145.97 64.7671 134.732 65.9912 134.004 66.1677C126.77 67.9102 123.108 78.6848 123.108 78.6848Z" fill="#F48FB1"/>
<path d="M102.398 38.3672C102.189 40.7934 102.09 42.2381 102.718 45.3922C105.751 47.6199 112.357 47.6199 112.357 47.6199C112.07 46.7266 111.816 45.9546 111.706 45.4032C111.684 45.326 111.673 45.2378 111.651 45.1606C104.935 41.808 102.398 38.3672 102.398 38.3672Z" fill="#C92B27"/>
<path d="M88.6581 49.23L77.2549 43.6386L82.9344 35.4336L91.8784 41.3558L88.6581 49.23Z" fill="#FFC107"/>
<path d="M71.8502 33.7484C66.0272 32.9654 60.094 28.0248 59.4434 27.4623L65.167 20.7461C66.8985 22.2129 70.5709 24.6722 73.0302 25.003L71.8502 33.7484Z" fill="#FB8C00"/>
<path d="M82.1276 19.0462L73.7461 16.3002C74.7056 13.3666 74.9592 10.2015 74.4629 7.14669L83.1753 5.74609C83.8921 10.1795 83.5282 14.7783 82.1276 19.0462Z" fill="#03A9F4"/>
<path d="M134.473 12.4883L143.091 10.6029L145.58 21.9797L136.961 23.8651L134.473 12.4883Z" fill="#FB8C00"/>
<path d="M155.853 15.1845L149.787 8.77709C152.963 5.76637 153.691 1.82927 153.691 1.78516L162.403 3.2078C162.293 3.90259 161.179 10.1446 155.853 15.1845Z" fill="#FFC107"/>
<path d="M159.224 49.166L166.929 46.7579L169.561 55.1791L161.855 57.5872L159.224 49.166Z" fill="#FB8C00"/>
<path d="M161.467 120.242L152.699 119.206C153.074 116.085 150.747 112.258 150.107 111.409L157.166 106.115C157.695 106.81 162.294 113.173 161.467 120.242Z" fill="#F44336"/>
<path d="M186.632 109.058C183.335 108.562 179.96 108.363 176.63 108.485L176.332 99.6621C180.203 99.5298 184.118 99.7504 187.945 100.335L186.632 109.058Z" fill="#FB8C00"/>
<path d="M174.771 121.203L180.969 114.925L189.5 123.348L183.301 129.626L174.771 121.203Z" fill="#F48FB1"/>
<path d="M156.558 65.4336L162.932 72.7219L155.644 79.0961L149.269 71.8078L156.558 65.4336Z" fill="#F44336"/>
<defs>
<filter id="filter0_f_188_1214" x="0.00944996" y="46.6969" width="134.788" height="130.61" filterUnits="userSpaceOnUse" color-interpolation-filters="sRGB">
<feFlood flood-opacity="0" result="BackgroundImageFix"/>
<feBlend mode="normal" in="SourceGraphic" in2="BackgroundImageFix" result="shape"/>
<feGaussianBlur stdDeviation="4.24528" result="effect1_foregroundBlur_188_1214"/>
</filter>
<linearGradient id="paint0_linear_188_1214" x1="95.5884" y1="113.665" x2="62.7601" y2="133.362" gradientUnits="userSpaceOnUse">
<stop offset="0.0235" stop-color="#8F4700"/>
<stop offset="1" stop-color="#703E2D"/>
</linearGradient>
<linearGradient id="paint1_linear_188_1214" x1="135.918" y1="63.7858" x2="103.09" y2="83.4827" gradientUnits="userSpaceOnUse">
<stop offset="0.0235" stop-color="#8F4700"/>
<stop offset="1" stop-color="#703E2D"/>
</linearGradient>
<clipPath id="clip0_188_1214">
<rect x="8.5" y="55.1875" width="117.806" height="113.629" rx="56.8144" fill="white"/>
</clipPath>
</defs>
</svg>
