<svg width="32" height="32" viewBox="0 0 32 32" fill="none" xmlns="http://www.w3.org/2000/svg">
<g clip-path="url(#clip0_681_5361)">
<path d="M12.01 6.02719C13.6747 6.02719 15.0233 4.67744 15.0233 3.01388C15.0233 1.34863 13.6747 0 12.01 0C10.3448 0 8.99609 1.34863 8.99609 3.01388C8.99616 4.67744 10.3448 6.02719 12.01 6.02719Z" fill="black"/>
<path d="M22.3636 15.2072C22.7247 15.2072 23.0176 14.9143 23.0176 14.5532V13.1933C23.0176 12.8322 22.7247 12.5392 22.3636 12.5392H19.2145C18.9802 12.5392 18.7639 12.4136 18.6466 12.2102L17.6698 10.5045C16.8885 9.07808 16.0812 7.45508 14.621 7.45508H11.9789H9.3369C7.87665 7.45508 6.28809 9.0437 6.28809 10.5045V20.6333C6.28809 21.3634 6.87959 21.9555 7.60965 21.9555C7.96909 21.9555 7.60965 21.9555 8.5324 21.9555L9.0349 30.5938C9.0349 31.3706 9.66527 32.0005 10.4421 32.0005C10.77 32.0005 11.3745 32.0005 11.9789 32.0005C12.5834 32.0005 13.1879 32.0005 13.5157 32.0005C14.2926 32.0005 14.923 31.3706 14.923 30.5938L15.4255 21.9555L15.6868 12.9483L17.414 14.9775C17.538 15.1233 17.72 15.2073 17.912 15.2073L22.3636 15.2072Z" fill="black"/>
<path d="M19.6855 17.4655C19.6855 18.617 20.619 19.551 21.7715 19.551C22.9242 19.551 23.8576 18.617 23.8576 17.4655C23.8576 16.3123 22.9242 15.3789 21.7715 15.3789C20.619 15.3789 19.6855 16.3123 19.6855 17.4655Z" fill="black"/>
<path d="M23.6006 20.2012H21.7714H19.9423C18.9317 20.2012 17.832 21.3008 17.832 22.3125V25.8627C17.832 26.368 18.2416 26.7782 18.7469 26.7782C18.9959 26.7782 18.7469 26.7782 19.3857 26.7782L19.7333 31.0275C19.7333 31.5649 20.1699 32.0009 20.7079 32.0009C20.9344 32.0009 21.3529 32.0009 21.7715 32.0009C22.19 32.0009 22.6086 32.0009 22.8351 32.0009C23.3731 32.0009 23.8097 31.5649 23.8097 31.0275L24.1573 26.7782C24.7961 26.7782 24.5471 26.7782 24.7961 26.7782C25.3014 26.7782 25.711 26.3681 25.711 25.8627V22.3125C25.7109 21.3008 24.6113 20.2012 23.6006 20.2012Z" fill="black"/>
</g>
<defs>
<clipPath id="clip0_681_5361">
<rect width="32" height="32" fill="white"/>
</clipPath>
</defs>
</svg>
