<svg width="24" height="24" viewBox="0 0 24 24" fill="none" xmlns="http://www.w3.org/2000/svg">
<path d="M17.9959 1.88672L22.0544 6.11731V22.2052H6.89355V22.2577H22.1062V6.17055L17.9959 1.88672Z" fill="#909090"/>
<path d="M17.9456 1.83203H6.8418V22.203H22.0544V6.11587L17.9456 1.83203Z" fill="#F4F4F4"/>
<path d="M6.73028 2.92578H2.06934V7.90548H16.7305V2.92578H6.73028Z" fill="#7A7B7C"/>
<path d="M16.8085 7.82319H2.16406V2.83984H16.8085V7.82319Z" fill="#DD2025"/>
<path d="M7.02072 3.68292H6.06738V7.1841H6.81722V6.00318L6.98279 6.01266C7.14368 6.00989 7.30306 5.98107 7.45472 5.92732C7.5877 5.88158 7.71003 5.80938 7.81432 5.71506C7.92045 5.62521 8.00413 5.51181 8.05868 5.38391C8.13183 5.17128 8.15796 4.94531 8.13527 4.7216C8.13071 4.56179 8.10269 4.40352 8.05211 4.25186C8.00607 4.14238 7.93773 4.04369 7.85146 3.96206C7.76519 3.88043 7.66287 3.81766 7.55101 3.77774C7.45429 3.74273 7.35437 3.71732 7.25268 3.70188C7.17567 3.69 7.09791 3.68366 7.01999 3.68292M6.88214 5.35619H6.81722V4.27666H6.95799C7.02013 4.27218 7.08247 4.28172 7.14042 4.30457C7.19837 4.32742 7.25044 4.363 7.29279 4.40868C7.38056 4.52613 7.42744 4.66909 7.42628 4.8157C7.42628 4.99513 7.42628 5.15779 7.26435 5.27231C7.14769 5.33647 7.01491 5.36609 6.88214 5.35619ZM9.55981 3.67344C9.47884 3.67344 9.40007 3.67927 9.34463 3.68146L9.17103 3.68584H8.60209V7.18701H9.27169C9.52758 7.19403 9.78236 7.15066 10.0215 7.05937C10.214 6.98301 10.3845 6.85993 10.5175 6.70123C10.6469 6.54109 10.7397 6.35464 10.7896 6.1549C10.8469 5.92868 10.8748 5.69603 10.8727 5.46268C10.8869 5.18708 10.8656 4.9108 10.8093 4.64064C10.7559 4.44177 10.6559 4.25849 10.5175 4.10598C10.409 3.98283 10.2761 3.88349 10.1273 3.81421C9.99948 3.75507 9.86504 3.71148 9.72684 3.68438C9.67189 3.6753 9.61623 3.67115 9.56054 3.67198M9.42778 6.54367H9.35484V4.30875H9.36432C9.5147 4.29145 9.66685 4.31859 9.80197 4.3868C9.90093 4.46582 9.98156 4.56536 10.0383 4.67857C10.0995 4.79771 10.1348 4.92847 10.1419 5.06224C10.1484 5.22271 10.1419 5.354 10.1419 5.46268C10.1448 5.58788 10.1368 5.71309 10.1178 5.83687C10.0953 5.96396 10.0538 6.08691 9.99454 6.20158C9.9275 6.30819 9.83692 6.39801 9.72976 6.46417C9.63977 6.52237 9.5332 6.54953 9.42632 6.54148M13.1317 3.68584H11.3593V7.18701H12.1091V5.79821H13.0573V5.14758H12.1091V4.33647H13.1303V3.68584" fill="#464648"/>
<path d="M16.3043 15.1489C16.3043 15.1489 18.6296 14.7273 18.6296 15.5216C18.6296 16.316 17.189 15.9928 16.3043 15.1489ZM14.585 15.2095C14.2156 15.2911 13.8555 15.4106 13.5106 15.5661L13.8024 14.9097C14.0941 14.2532 14.3968 13.3582 14.3968 13.3582C14.745 13.9442 15.1501 14.4944 15.6062 15.0008C15.2622 15.0521 14.9213 15.1223 14.585 15.2109V15.2095ZM13.6645 10.4683C13.6645 9.77606 13.8884 9.58714 14.0628 9.58714C14.2371 9.58714 14.4333 9.67103 14.4399 10.2721C14.3831 10.8764 14.2565 11.4722 14.0628 12.0475C13.7974 11.5645 13.66 11.0216 13.6638 10.4705L13.6645 10.4683ZM10.2735 18.1388C9.56012 17.7121 11.7695 16.3984 12.17 16.3561C12.1678 16.3568 11.0204 18.5852 10.2735 18.1388ZM19.3087 15.6157C19.3014 15.5428 19.2358 14.7353 17.7988 14.7696C17.1999 14.76 16.6012 14.8022 16.0096 14.8958C15.4364 14.3184 14.9429 13.6671 14.542 12.9592C14.7946 12.2294 14.9474 11.4688 14.9964 10.698C14.9753 9.82274 14.7659 9.32091 14.0949 9.3282C13.4238 9.3355 13.3261 9.92267 13.4143 10.7965C13.5008 11.3837 13.6639 11.9571 13.8994 12.5019C13.8994 12.5019 13.5894 13.4669 13.1795 14.4268C12.7695 15.3867 12.4894 15.89 12.4894 15.89C11.7766 16.122 11.1055 16.4668 10.5018 16.9112C9.90075 17.4706 9.6564 17.9003 9.97296 18.3299C10.2458 18.7004 11.2006 18.7843 12.054 17.6661C12.5074 17.0886 12.9217 16.4813 13.294 15.8484C13.294 15.8484 14.5952 15.4917 15.0001 15.394C15.4049 15.2963 15.8943 15.2189 15.8943 15.2189C15.8943 15.2189 17.0825 16.4144 18.2284 16.3721C19.3744 16.3298 19.3189 15.6872 19.3116 15.6172" fill="#DD2025"/>
<path d="M17.8896 1.89062V6.17446H21.9984L17.8896 1.89062Z" fill="#909090"/>
<path d="M17.9463 1.83203V6.11587H22.0551L17.9463 1.83203Z" fill="#F4F4F4"/>
<path d="M6.96408 3.62433H6.01074V7.1255H6.76349V5.94531L6.9298 5.9548C7.09069 5.95203 7.25006 5.92321 7.40173 5.86946C7.5347 5.8237 7.65702 5.7515 7.76133 5.6572C7.86666 5.56711 7.94957 5.45373 8.00349 5.32604C8.07665 5.11342 8.10278 4.88745 8.08008 4.66374C8.07553 4.50393 8.04751 4.34566 7.99693 4.194C7.95089 4.08452 7.88255 3.98582 7.79628 3.9042C7.71001 3.82257 7.60768 3.7598 7.49582 3.71988C7.39867 3.68452 7.29825 3.65887 7.19604 3.64329C7.11903 3.63141 7.04127 3.62507 6.96335 3.62433M6.82549 5.2976H6.76058V4.21807H6.90208C6.96421 4.21359 7.02656 4.22312 7.08451 4.24598C7.14246 4.26883 7.19453 4.30441 7.23688 4.35009C7.32464 4.46754 7.37153 4.61049 7.37037 4.7571C7.37037 4.93654 7.37037 5.0992 7.20844 5.21371C7.09178 5.27788 6.95899 5.30676 6.82622 5.29687M9.50317 3.61484C9.4222 3.61484 9.34342 3.62068 9.28799 3.62287L9.11658 3.62724H8.54764V7.12842H9.21724C9.47313 7.13543 9.72791 7.09206 9.96707 7.00077C10.1596 6.92442 10.33 6.80134 10.4631 6.64263C10.5924 6.48249 10.6853 6.29604 10.7351 6.0963C10.7924 5.87009 10.8204 5.63744 10.8183 5.40409C10.8324 5.12849 10.8111 4.85221 10.7548 4.58204C10.7014 4.38318 10.6014 4.1999 10.4631 4.04738C10.3545 3.92423 10.2217 3.82489 10.0728 3.75562C9.94503 3.69648 9.81058 3.65289 9.67239 3.62578C9.61743 3.61671 9.56178 3.61256 9.50608 3.61338M9.37333 6.48508H9.30039V4.25016H9.30987C9.46025 4.23286 9.6124 4.25999 9.74752 4.32821C9.84647 4.40722 9.9271 4.50677 9.98385 4.61997C10.0451 4.73911 10.0804 4.86987 10.0874 5.00364C10.094 5.16411 10.0874 5.29541 10.0874 5.40409C10.0904 5.52928 10.0823 5.6545 10.0634 5.77828C10.0409 5.90536 9.99931 6.02832 9.94008 6.14298C9.87304 6.24959 9.78247 6.33942 9.67531 6.40557C9.58531 6.46378 9.47874 6.49093 9.37187 6.48289M13.0751 3.62724H11.3026V7.12842H12.0525V5.73962H13.0007V5.08898H12.0525V4.27788H13.0736V3.62724" fill="white"/>
</svg>
