<svg width="25" height="25" viewBox="0 0 25 25" fill="none" xmlns="http://www.w3.org/2000/svg">
<path d="M6.91657 16.1449C7.02066 16.0367 7.12884 15.9306 7.24314 15.8367C7.57584 15.5571 8.44331 14.908 8.91072 15.1774C9.18831 15.3366 9.14748 15.8714 9.04543 16.0939C8.79233 16.6429 8.14735 17.1063 7.75138 17.5614C7.44113 17.9227 7.06557 18.2472 6.72675 18.586C6.18382 19.129 5.66334 19.7393 5.07754 20.2352C5.0755 20.2352 0.380981 24.1991 0.380981 24.1991L0.015625 23.8337L3.98147 19.1351C4.72647 18.3901 5.46943 17.6451 6.21443 16.9021C6.45528 16.6654 6.6798 16.3939 6.91657 16.1449Z" fill="url(#paint0_linear_241_1566)"/>
<path d="M6.91678 16.189C5.98604 15.1868 5.15939 14.101 4.48787 12.9763C3.97556 12.1191 2.78968 10.1208 3.73675 9.16969L4.56543 8.34101C5.34309 7.56539 7.39031 8.27977 9.66409 9.96164L14.7995 4.82624C13.5116 3.11785 12.9013 1.6952 13.3707 1.22575L14.4178 0.176628C15.0995 -0.505098 17.806 1.09512 20.4635 3.75263C23.119 6.40809 24.7213 9.11662 24.0375 9.79835L22.9904 10.8454C22.5189 11.3149 21.0963 10.7046 19.3899 9.41667L14.2566 14.5521C15.9384 16.8279 16.6528 18.8751 15.8772 19.6528L15.0485 20.4814C14.0688 21.4612 11.9807 20.1855 11.1092 19.6507C9.6049 18.7302 8.16797 17.5361 6.91678 16.189Z" fill="url(#paint1_linear_241_1566)"/>
<path d="M24.0697 9.5638C23.4818 10.1516 20.8896 8.51672 18.2811 5.9082C15.6726 3.29968 14.0377 0.709534 14.6255 0.119658C15.2134 -0.468178 17.8055 1.16674 20.4141 3.77526C23.0226 6.38378 24.6575 8.97597 24.0697 9.5638Z" fill="url(#paint2_linear_241_1566)"/>
<path d="M15.9854 19.5157C15.2547 20.2464 12.1421 18.3216 9.03552 15.2151C5.92897 12.1085 4.00218 8.99587 4.73289 8.26515C5.4636 7.53444 8.70486 8.53254 12.2319 12.1147C15.6528 15.5866 16.7162 18.785 15.9854 19.5157Z" fill="url(#paint3_linear_241_1566)"/>
<path d="M8.88672 10.5759L14.7998 4.82617C14.7998 4.82617 15.9183 6.30597 16.7694 7.17343C17.6206 8.0409 19.3943 9.41864 19.3943 9.41864L13.6547 15.1562C13.6547 15.1562 12.4015 14.6561 10.9646 13.2192C9.29086 11.5475 8.88672 10.5759 8.88672 10.5759Z" fill="url(#paint4_linear_241_1566)"/>
<path opacity="0.2" d="M14.9612 0.614282C15.0347 0.614282 15.447 0.646939 16.4696 1.30009C16.4737 1.30213 16.4778 1.30417 16.4818 1.30825C17.5575 1.96345 18.8128 2.98603 20.0129 4.1862C21.3437 5.51699 22.4663 6.92943 23.0889 8.05611C23.0909 8.0602 23.0929 8.06224 23.095 8.06632C23.5236 8.80724 23.5583 9.12769 23.5583 9.20729C23.5583 9.2277 23.5604 9.24607 23.5624 9.26648C23.5685 9.3318 23.5665 9.37058 23.5624 9.39099L22.5684 10.387C22.5582 10.3891 22.5398 10.3911 22.5153 10.3911C22.1296 10.3911 21.1743 10.0074 19.7435 8.9297C19.6333 8.84602 19.5047 8.8052 19.3741 8.8052C19.2169 8.8052 19.0597 8.86643 18.9414 8.98481L13.8366 14.0916C13.6243 14.3039 13.5978 14.6407 13.7733 14.8836C14.7347 16.2144 15.1755 17.2145 15.3776 17.8228L15.4001 17.8901C15.647 18.6678 15.5736 19.025 15.5307 19.0862C15.5082 19.1107 15.4899 19.1372 15.4715 19.1658C15.4572 19.1882 15.4429 19.2066 15.4266 19.2209L14.5979 20.0496C14.5204 20.1272 14.3816 20.2292 14.0693 20.2292C13.2038 20.2292 11.9486 19.4577 11.4118 19.1291C10.379 18.4963 9.37067 17.7248 8.41543 16.8369C8.29705 16.7267 8.14805 16.6736 7.99905 16.6736C7.84393 16.6736 7.6888 16.7328 7.56838 16.8491C7.47653 16.939 7.37039 17.0471 7.27038 17.1614C7.08056 17.3819 6.86012 17.5921 6.62744 17.8125C6.50905 17.9248 6.39067 18.0371 6.27637 18.1514C6.09267 18.3351 5.91101 18.5269 5.73548 18.7127C5.39053 19.078 5.03334 19.4536 4.66594 19.7659L4.67003 19.772C4.51898 19.8924 4.14955 20.2027 3.16574 21.0334L4.41693 19.5516L5.80487 18.1636L6.62948 17.337C6.77848 17.188 6.91931 17.0329 7.05402 16.8798C7.14179 16.7818 7.2316 16.6818 7.32141 16.5858C7.54389 16.3511 7.54593 15.9858 7.32549 15.749C6.41516 14.7672 5.63138 13.7283 4.99252 12.6608C4.023 11.0422 3.74133 10.0115 4.14955 9.60122L4.97619 8.77254C5.08641 8.66436 5.28848 8.63987 5.44156 8.63987C5.70894 8.63987 6.05389 8.71131 6.43966 8.84398C6.44374 8.84602 6.44578 8.84602 6.44986 8.84806C7.03157 9.03992 7.98885 9.45631 9.24616 10.3544C9.35434 10.4319 9.47885 10.4687 9.60335 10.4687C9.75848 10.4687 9.91156 10.4095 10.0299 10.2952L15.2082 5.26186C15.4286 5.04754 15.4552 4.70055 15.2694 4.45358C14.0427 2.82683 13.759 1.86956 13.8101 1.63075L14.8081 0.632652C14.8143 0.632652 14.8204 0.63061 14.8286 0.63061C14.8694 0.626528 14.9041 0.622446 14.9429 0.610199C14.9429 0.616323 14.949 0.614282 14.9612 0.614282ZM14.9612 0.00195312C14.8939 0.00195312 14.8326 0.0101176 14.7775 0.0264463C14.6204 0.0386929 14.4918 0.0876792 14.3999 0.179528L13.3528 1.22865C12.8834 1.6981 13.4937 3.12075 14.7816 4.82914L9.60335 9.86044C8.48279 9.05829 7.46633 8.53985 6.64172 8.26839C6.19472 8.11327 5.78855 8.03162 5.4436 8.03162C5.06396 8.03162 4.75779 8.13163 4.54552 8.34187L3.71683 9.17055C2.76977 10.1197 3.9536 12.1179 4.46796 12.9772C5.1354 14.0937 5.95591 15.1734 6.87849 16.1674C6.64989 16.4103 6.43149 16.6716 6.19881 16.9043C5.45585 17.6493 4.71085 18.3943 3.96585 19.1372L0 23.8358L0.365356 24.2012C0.365356 24.2012 5.05988 20.2374 5.06192 20.2374C5.64975 19.7414 6.17023 19.1311 6.71112 18.5882C7.04994 18.2493 7.42346 17.9268 7.73575 17.5635C7.81535 17.4717 7.90516 17.3798 7.99905 17.288C8.96653 18.1861 10.0116 18.9903 11.0913 19.6536C11.7343 20.0475 13.0365 20.8436 14.0693 20.8436C14.4387 20.8436 14.7734 20.7415 15.0306 20.4843L15.8593 19.6557C15.9083 19.6067 15.9512 19.5516 15.9879 19.4944C16.2471 19.2005 16.2553 18.5678 15.9818 17.7064C15.9736 17.6819 15.9654 17.6554 15.9573 17.6309C15.6736 16.7757 15.1204 15.7041 14.2693 14.5284L19.3761 9.42161C20.6947 10.4177 21.8438 11.0075 22.5153 11.0075C22.7133 11.0075 22.8684 10.9565 22.9746 10.8504L24.0216 9.80329C24.1502 9.6747 24.1972 9.47059 24.1706 9.21137C24.1686 8.87255 23.9747 8.37248 23.6257 7.76628C22.9991 6.63143 21.8765 5.18838 20.4477 3.75961C19.1659 2.47168 17.8739 1.43684 16.8003 0.785734C16.0185 0.283624 15.3715 0.00195312 14.9612 0.00195312Z" fill="#424242"/>
<defs>
<linearGradient id="paint0_linear_241_1566" x1="4.27866" y1="19.3127" x2="5.21429" y2="20.2495" gradientUnits="userSpaceOnUse">
<stop stop-color="#F5F5F5"/>
<stop offset="0.1455" stop-color="#EFEFEF"/>
<stop offset="0.3368" stop-color="#DFDFDF"/>
<stop offset="0.5535" stop-color="#C3C3C3"/>
<stop offset="0.7872" stop-color="#9E9E9E"/>
<stop offset="1" stop-color="#757575"/>
</linearGradient>
<linearGradient id="paint1_linear_241_1566" x1="8.25104" y1="4.54233" x2="19.5797" y2="15.8714" gradientUnits="userSpaceOnUse">
<stop offset="0.0048445" stop-color="#F44336"/>
<stop offset="0.1943" stop-color="#EC3E33"/>
<stop offset="0.4956" stop-color="#D4302C"/>
<stop offset="0.6496" stop-color="#C62828"/>
</linearGradient>
<linearGradient id="paint2_linear_241_1566" x1="14.5057" y1="4.84193" x2="24.1901" y2="4.84193" gradientUnits="userSpaceOnUse">
<stop offset="0.0020297" stop-color="#FF5252"/>
<stop offset="0.0742" stop-color="#F34949"/>
<stop offset="0.2674" stop-color="#D93535"/>
<stop offset="0.4653" stop-color="#C62727"/>
<stop offset="0.6692" stop-color="#BB1F1F"/>
<stop offset="0.8882" stop-color="#B71C1C"/>
</linearGradient>
<linearGradient id="paint3_linear_241_1566" x1="4.46705" y1="13.9827" x2="16.3009" y2="14.2318" gradientUnits="userSpaceOnUse">
<stop offset="0.0020297" stop-color="#FF5252"/>
<stop offset="0.1867" stop-color="#E13B3B"/>
<stop offset="0.3739" stop-color="#CA2A2A"/>
<stop offset="0.5502" stop-color="#BC2020"/>
<stop offset="0.7029" stop-color="#B71C1C"/>
</linearGradient>
<linearGradient id="paint4_linear_241_1566" x1="11.6369" y1="7.7778" x2="16.3186" y2="12.4593" gradientUnits="userSpaceOnUse">
<stop offset="0.0048445" stop-color="#F44336"/>
<stop offset="0.1454" stop-color="#EC3E32"/>
<stop offset="0.3689" stop-color="#D42F29"/>
<stop offset="0.5918" stop-color="#B71C1C"/>
</linearGradient>
</defs>
</svg>
