<svg width="20" height="20" viewBox="0 0 20 20" fill="none" xmlns="http://www.w3.org/2000/svg">
<path d="M13.492 1.66699H6.50866C3.47533 1.66699 1.66699 3.47533 1.66699 6.50866V13.4837C1.66699 16.5253 3.47533 18.3337 6.50866 18.3337H13.4837C16.517 18.3337 18.3253 16.5253 18.3253 13.492V6.50866C18.3337 3.47533 16.5253 1.66699 13.492 1.66699ZM15.417 13.667C15.417 14.917 14.917 15.417 13.667 15.417H10.5003C9.25033 15.417 8.75033 14.917 8.75033 13.667V12.167C8.75033 10.917 9.25033 10.417 10.5003 10.417H13.667C14.917 10.417 15.417 10.917 15.417 12.167V13.667Z" fill="white"/>
</svg>
