<svg width="34" height="34" viewBox="0 0 34 34" fill="none" xmlns="http://www.w3.org/2000/svg">
<path d="M14.5195 14.2095C14.5195 14.9745 14.732 15.0878 15.2137 15.2578L15.9362 15.5128V13.1045H15.5112C14.9729 13.1045 14.5195 13.6003 14.5195 14.2095Z" fill="white"/>
<path d="M18.0625 20.8956H18.4875C19.04 20.8956 19.4792 20.3998 19.4792 19.7906C19.4792 19.0256 19.2667 18.9123 18.785 18.7423L18.0625 18.4873V20.8956Z" fill="white"/>
<path d="M27.737 7.76301L24.8329 10.6672C24.6204 10.8797 24.3512 10.9788 24.082 10.9788C23.8129 10.9788 23.5437 10.8797 23.3312 10.6672C22.9204 10.2563 22.9204 9.57634 23.3312 9.16551L26.2354 6.26134C23.742 4.13634 20.5262 2.83301 16.9987 2.83301C9.1787 2.83301 2.83203 9.17967 2.83203 16.9997C2.83203 24.8197 9.1787 31.1663 16.9987 31.1663C24.8187 31.1663 31.1654 24.8197 31.1654 16.9997C31.1654 13.4722 29.862 10.2563 27.737 7.76301ZM19.4779 16.7447C20.3845 17.0705 21.6029 17.7222 21.6029 19.8047C21.6029 21.5755 20.2004 23.0347 18.4862 23.0347H18.0612V23.3888C18.0612 23.9697 17.5795 24.4513 16.9987 24.4513C16.4179 24.4513 15.9362 23.9697 15.9362 23.3888V23.0347H15.8229C13.9387 23.0347 12.3945 21.448 12.3945 19.493C12.3945 18.898 12.8762 18.4163 13.457 18.4163C14.0379 18.4163 14.5195 18.898 14.5195 19.4788C14.5195 20.258 15.1004 20.8955 15.8229 20.8955H15.9362V17.7505L14.5195 17.2547C13.6129 16.9288 12.3945 16.2772 12.3945 14.1947C12.3945 12.4238 13.797 10.9647 15.5112 10.9647H15.9362V10.6247C15.9362 10.0438 16.4179 9.56217 16.9987 9.56217C17.5795 9.56217 18.0612 10.0438 18.0612 10.6247V10.9788H18.1745C20.0587 10.9788 21.6029 12.5655 21.6029 14.5205C21.6029 15.1013 21.1212 15.583 20.5404 15.583C19.9595 15.583 19.4779 15.1013 19.4779 14.5205C19.4779 13.7413 18.897 13.1038 18.1745 13.1038H18.0612V16.2488L19.4779 16.7447Z" fill="white"/>
<path d="M32.1442 2.42217C32.0308 2.16717 31.8325 1.95467 31.5633 1.84134C31.4358 1.79884 31.3083 1.77051 31.1667 1.77051H25.5C24.9192 1.77051 24.4375 2.25217 24.4375 2.83301C24.4375 3.41384 24.9192 3.89551 25.5 3.89551H28.6025L26.2367 6.26134C26.775 6.72884 27.2708 7.22467 27.7383 7.76301L30.1042 5.39717V8.49967C30.1042 9.08051 30.5858 9.56217 31.1667 9.56217C31.7475 9.56217 32.2292 9.08051 32.2292 8.49967V2.83301C32.2292 2.69134 32.2008 2.56384 32.1442 2.42217Z" fill="white"/>
</svg>
