<svg width="91" height="91" viewBox="0 0 91 91" fill="none" xmlns="http://www.w3.org/2000/svg">
<circle cx="45.5" cy="45.5" r="45.5" fill="#039847"/>
<circle cx="45.5" cy="45.5" r="37.5" fill="white"/>
<path d="M45.5003 23.416C33.3324 23.416 23.417 33.3314 23.417 45.4994C23.417 57.6673 33.3324 67.5827 45.5003 67.5827C57.6682 67.5827 67.5837 57.6673 67.5837 45.4994C67.5837 33.3314 57.6682 23.416 45.5003 23.416ZM56.0562 40.4202L43.5349 52.9414C43.2257 53.2506 42.8062 53.4273 42.3645 53.4273C41.9228 53.4273 41.5032 53.2506 41.1941 52.9414L34.9445 46.6919C34.3041 46.0514 34.3041 44.9914 34.9445 44.351C35.5849 43.7106 36.6449 43.7106 37.2853 44.351L42.3645 49.4302L53.7153 38.0794C54.3557 37.4389 55.4157 37.4389 56.0562 38.0794C56.6966 38.7198 56.6966 39.7577 56.0562 40.4202Z" fill="#039847"/>
</svg>
