<svg width="91" height="91" viewBox="0 0 91 91" fill="none" xmlns="http://www.w3.org/2000/svg">
<circle cx="45.5" cy="45.5" r="45.5" fill="#009262"/>
<circle cx="45.15" cy="45.15" r="36.4" fill="#F2F9F1"/>
<path d="M45.9371 70.5378C45.3684 70.5378 44.7996 70.4667 44.2546 70.3009C31.9554 66.9121 23.0449 55.4185 23.0449 42.9534V32.5499C23.0449 29.8958 24.9645 27.0285 27.4291 26.0094L40.6288 20.6063C44.065 19.2081 47.8329 19.2081 51.2454 20.6063L64.4452 26.0094C66.9098 27.0285 68.8293 29.8958 68.8293 32.5499V42.9534C68.8293 55.3948 59.8952 66.8884 47.6196 70.3009C47.0746 70.4667 46.5059 70.5378 45.9371 70.5378ZM45.9371 23.1419C44.5863 23.1419 43.2592 23.4027 41.9795 23.924L28.7798 29.3271C27.6423 29.801 26.5996 31.3414 26.5996 32.5737V42.9771C26.5996 53.8544 34.4199 63.9024 45.2025 66.8884C45.6764 67.0305 46.1978 67.0305 46.6717 66.8884C57.4543 63.9024 65.2746 53.8544 65.2746 42.9771V32.5737C65.2746 31.3414 64.2319 29.801 63.0944 29.3271L49.8947 23.924C48.615 23.4027 47.2879 23.1419 45.9371 23.1419Z" fill="#292D32"/>
<path d="M61.8552 43.49V35.6475C61.8552 34.1826 60.7476 32.5212 59.372 31.9674L49.4214 27.8943C47.1884 26.9832 44.6695 26.9832 42.4364 27.8943L32.4858 31.9674C31.1281 32.5212 30.0205 34.1826 30.0205 35.6475V43.49C30.0205 52.2258 36.3624 60.4078 45.0268 62.8017C45.6163 62.9624 46.2594 62.9624 46.8489 62.8017C55.5133 60.4078 61.8552 52.2258 61.8552 43.49ZM47.2777 46.6163V51.3147C47.2777 52.0472 46.6703 52.6546 45.9379 52.6546C45.2054 52.6546 44.598 52.0472 44.598 51.3147V46.6163C42.7937 46.0447 41.4717 44.3654 41.4717 42.3824C41.4717 39.9171 43.4725 37.9163 45.9379 37.9163C48.4032 37.9163 50.404 39.9171 50.404 42.3824C50.404 44.3833 49.082 46.0447 47.2777 46.6163Z" fill="#00BA00"/>
</svg>
