<svg width="133" height="133" viewBox="0 0 133 133" fill="none" xmlns="http://www.w3.org/2000/svg">
<path d="M40.84 103.453L33.1721 130.307C32.7521 129.618 32.469 128.806 32.469 127.872V101.589L94.2374 41.2217L40.84 103.453ZM37.2679 132.553C38.4146 132.544 39.5754 132.157 40.5239 131.208L57.6907 114.037L44.6103 107.497L37.2679 132.553ZM126.065 1.48042L7.9409 59.6013C-2.56303 64.7683 -2.61022 79.7315 7.86069 84.9646L30.9354 96.5019L119.596 9.88451C120.559 8.94548 122.031 8.78033 123.177 9.4787C124.716 10.4225 125.046 12.5176 123.871 13.8907L46.9555 103.434L88.6693 124.196C96.9082 128.316 106.827 123.592 108.818 114.598L132.747 6.73711C133.615 2.87245 129.619 -0.265519 126.065 1.48042Z" fill="#56006B"/>
</svg>
