<svg width="22" height="22" viewBox="0 0 22 22" fill="none" xmlns="http://www.w3.org/2000/svg">
<path d="M8.552 0.514864C8.69799 0.538045 8.83799 0.589771 8.96398 0.667086C9.08997 0.7444 9.19949 0.845786 9.28628 0.96545C9.37306 1.08511 9.43542 1.22071 9.46977 1.36448C9.50413 1.50826 9.50981 1.65739 9.4865 1.80336L8.855 5.74986H14.825L15.515 1.44786C15.5722 1.16277 15.7375 0.910883 15.9763 0.745011C16.2151 0.579139 16.5088 0.512169 16.7959 0.558145C17.083 0.60412 17.3412 0.75947 17.5163 0.991619C17.6913 1.22377 17.7697 1.51468 17.735 1.80336L17.105 5.74986H20.375C20.6734 5.74986 20.9595 5.86839 21.1705 6.07937C21.3815 6.29035 21.5 6.5765 21.5 6.87486C21.5 7.17323 21.3815 7.45938 21.1705 7.67036C20.9595 7.88134 20.6734 7.99986 20.375 7.99986H16.745L15.785 13.9999H19.625C19.9234 13.9999 20.2095 14.1184 20.4205 14.3294C20.6315 14.5403 20.75 14.8265 20.75 15.1249C20.75 15.4232 20.6315 15.7094 20.4205 15.9204C20.2095 16.1313 19.9234 16.2499 19.625 16.2499H15.425L14.735 20.5534C14.6778 20.8385 14.5125 21.0903 14.2737 21.2562C14.0349 21.4221 13.7412 21.4891 13.4541 21.4431C13.167 21.3971 12.9088 21.2418 12.7337 21.0096C12.5587 20.7775 12.4803 20.4865 12.515 20.1979L13.145 16.2499H7.175L6.485 20.5534C6.42785 20.8385 6.26254 21.0903 6.02373 21.2562C5.78492 21.4221 5.49117 21.4891 5.20406 21.4431C4.91696 21.3971 4.6588 21.2418 4.48373 21.0096C4.30866 20.7775 4.23027 20.4865 4.265 20.1979L4.895 16.2499H1.625C1.32663 16.2499 1.04048 16.1313 0.829505 15.9204C0.618526 15.7094 0.5 15.4232 0.5 15.1249C0.5 14.8265 0.618526 14.5403 0.829505 14.3294C1.04048 14.1184 1.32663 13.9999 1.625 13.9999H5.255L6.215 7.99986H2.375C2.07663 7.99986 1.79048 7.88134 1.5795 7.67036C1.36853 7.45938 1.25 7.17323 1.25 6.87486C1.25 6.5765 1.36853 6.29035 1.5795 6.07937C1.79048 5.86839 2.07663 5.74986 2.375 5.74986H6.575L7.265 1.44786C7.31219 1.15359 7.47421 0.890069 7.71551 0.715144C7.9568 0.540219 8.25765 0.468188 8.552 0.514864ZM13.505 13.9999L14.465 7.99986H8.495L7.535 13.9999H13.505Z" fill="#039847"/>
</svg>
