<svg width="35" height="34" viewBox="0 0 35 34" fill="none" xmlns="http://www.w3.org/2000/svg">
<path d="M21.5388 5.59596V10.9793H19.4138V5.59596C19.4138 5.21346 19.0738 5.0293 18.8471 5.0293C18.7763 5.0293 18.7055 5.04346 18.6346 5.0718L7.40047 9.30763C6.64964 9.59096 6.16797 10.2993 6.16797 11.1068V12.056C4.8788 13.0193 4.04297 14.5635 4.04297 16.306V11.1068C4.04297 9.42096 5.07714 7.9193 6.64964 7.3243L17.898 3.0743C18.2096 2.96096 18.5355 2.9043 18.8471 2.9043C20.2638 2.9043 21.5388 4.0518 21.5388 5.59596Z" fill="white"/>
<path d="M30.9596 20.5413V21.958C30.9596 22.3405 30.6621 22.6522 30.2654 22.6663H28.1971C27.4463 22.6663 26.7663 22.1138 26.7096 21.3772C26.6671 20.938 26.8371 20.5272 27.1204 20.2438C27.3754 19.9747 27.7296 19.833 28.1121 19.833H30.2513C30.6621 19.8472 30.9596 20.1588 30.9596 20.5413Z" fill="white"/>
<path d="M28.098 18.3462H29.543C30.3221 18.3462 30.9596 17.7087 30.9596 16.9295V16.3062C30.9596 13.3737 28.5655 10.9795 25.633 10.9795H9.36964C8.16547 10.9795 7.06047 11.3762 6.16797 12.0562C4.8788 13.0195 4.04297 14.5637 4.04297 16.3062V25.8403C4.04297 28.7728 6.43714 31.167 9.36964 31.167H25.633C28.5655 31.167 30.9596 28.7728 30.9596 25.8403V25.5712C30.9596 24.792 30.3221 24.1545 29.543 24.1545H28.3105C26.9505 24.1545 25.6471 23.3187 25.293 22.0012C24.9955 20.9245 25.3496 19.8903 26.058 19.1962C26.5821 18.6578 27.3046 18.3462 28.098 18.3462ZM20.3346 18.0628H10.418C9.83714 18.0628 9.35547 17.5812 9.35547 17.0003C9.35547 16.4195 9.83714 15.9378 10.418 15.9378H20.3346C20.9155 15.9378 21.3971 16.4195 21.3971 17.0003C21.3971 17.5812 20.9155 18.0628 20.3346 18.0628Z" fill="white"/>
</svg>
