<svg width="34" height="34" viewBox="0 0 34 34" fill="none" xmlns="http://www.w3.org/2000/svg">
<path d="M26.6484 8.85451H28.5751C28.3059 8.47201 28.0226 8.11784 27.7251 7.76367L26.6484 8.85451Z" fill="white"/>
<path d="M26.2354 6.26211C25.8812 5.96461 25.527 5.68128 25.1445 5.41211V7.33878L26.2354 6.26211Z" fill="white"/>
<path d="M27.738 7.76337L31.9172 3.58421C32.328 3.17337 32.328 2.49337 31.9172 2.08254C31.5063 1.67171 30.8263 1.67171 30.4155 2.08254L26.2363 6.26171C26.7747 6.72921 27.2705 7.23921 27.738 7.76337Z" fill="white"/>
<path d="M25.146 4.25C25.146 3.66917 24.6643 3.1875 24.0835 3.1875C23.5168 3.1875 23.0635 3.64083 23.0352 4.19333C23.7718 4.5475 24.4802 4.94417 25.146 5.41167V4.25Z" fill="white"/>
<path d="M30.8126 9.91699C30.8126 9.33616 30.3309 8.85449 29.7501 8.85449H28.5742C29.0417 9.52033 29.4526 10.2287 29.7926 10.9653C30.3592 10.937 30.8126 10.4837 30.8126 9.91699Z" fill="white"/>
<path d="M18.0625 20.8956H18.4875C19.04 20.8956 19.4792 20.3998 19.4792 19.7906C19.4792 19.0256 19.2667 18.9123 18.785 18.7423L18.0625 18.4873V20.8956Z" fill="white"/>
<path d="M29.8054 10.9647C29.7912 10.9647 29.777 10.9788 29.7487 10.9788H24.082C23.9404 10.9788 23.8129 10.9505 23.6712 10.8938C23.4162 10.7805 23.2037 10.5822 23.0904 10.313C23.0479 10.1855 23.0195 10.058 23.0195 9.91634V4.24967C23.0195 4.23551 23.0337 4.22134 23.0337 4.19301C21.192 3.32884 19.152 2.83301 16.9987 2.83301C9.1787 2.83301 2.83203 9.17967 2.83203 16.9997C2.83203 24.8197 9.1787 31.1663 16.9987 31.1663C24.8187 31.1663 31.1654 24.8197 31.1654 16.9997C31.1654 14.8463 30.6695 12.8063 29.8054 10.9647ZM19.4779 16.7447C20.3845 17.0563 21.6029 17.7222 21.6029 19.8047C21.6029 21.5755 20.2004 23.0347 18.4862 23.0347H18.0612V23.3888C18.0612 23.9697 17.5795 24.4513 16.9987 24.4513C16.4179 24.4513 15.9362 23.9697 15.9362 23.3888V23.0347H15.8229C13.9387 23.0347 12.3945 21.448 12.3945 19.493C12.3945 18.898 12.8762 18.4163 13.457 18.4163C14.0379 18.4163 14.5195 18.898 14.5195 19.4788C14.5195 20.258 15.1004 20.8955 15.8229 20.8955H15.9362V17.7505L14.5195 17.2547C13.6129 16.943 12.3945 16.2772 12.3945 14.1947C12.3945 12.4238 13.797 10.9647 15.5112 10.9647H15.9362V10.6247C15.9362 10.0438 16.4179 9.56217 16.9987 9.56217C17.5795 9.56217 18.0612 10.0438 18.0612 10.6247V10.9788H18.1745C20.0587 10.9788 21.6029 12.5655 21.6029 14.5205C21.6029 15.1013 21.1212 15.583 20.5404 15.583C19.9595 15.583 19.4779 15.1013 19.4779 14.5205C19.4779 13.7413 18.897 13.1038 18.1745 13.1038H18.0612V16.2488L19.4779 16.7447Z" fill="white"/>
<path d="M14.5195 14.2095C14.5195 14.9745 14.732 15.0878 15.2137 15.2578L15.9362 15.5128V13.1045H15.5112C14.9729 13.1045 14.5195 13.6003 14.5195 14.2095Z" fill="white"/>
</svg>
